<svg width="509" height="850" viewBox="0 0 509 850" fill="none" xmlns="http://www.w3.org/2000/svg">
<g filter="url(#filter0_g_72_641)">
<path d="M95.2207 280.216L59.1616 43.0997" stroke="#1A1A1A" stroke-width="17.4832" stroke-linecap="round"/>
<circle cx="56.4298" cy="28.8946" r="17.4832" fill="#1A1A1A"/>
</g>
<g filter="url(#filter1_g_72_641)">
<path d="M22.9466 340.94C22.9466 331.504 27.1117 322.548 34.3285 316.468L169.395 202.673C178.886 194.677 192.143 192.89 203.413 198.086L462.346 317.48C473.684 322.709 480.947 334.054 480.947 346.54V815.186C480.947 832.859 466.62 847.186 448.947 847.186H54.9466C37.2735 847.186 22.9466 832.859 22.9466 815.186V340.94Z" fill="#BDA73A"/>
<g filter="url(#filter2_g_72_641)">
<path d="M326.923 164.432L176.947 157.936L317.947 369.956H493.43C498.458 369.956 501.256 364.144 498.12 360.214L352.137 177.25C345.981 169.534 336.786 164.86 326.923 164.432Z" fill="#BDA73A"/>
<path d="M326.923 164.432L176.947 157.936L317.947 369.956H493.43C498.458 369.956 501.256 364.144 498.12 360.214L352.137 177.25C345.981 169.534 336.786 164.86 326.923 164.432Z" stroke="#BDA73A" stroke-width="12.5804" stroke-linecap="round"/>
</g>
<path d="M322.284 353.272L177.671 181.556C176.229 179.844 173.59 179.852 172.159 181.572L29.284 353.272" stroke="#BDA73A" stroke-width="55.7133" stroke-linecap="round"/>
<g filter="url(#filter3_g_72_641)">
<path d="M337.284 391.272L177.284 197.616C175.849 195.879 173.188 195.875 171.748 197.608L29.284 369.015" stroke="#1A1A1A" stroke-width="30" stroke-linecap="round"/>
</g>
<g style="mix-blend-mode:multiply" opacity="0.4" filter="url(#filter4_g_72_641)">
<path d="M258.43 204.659L274.605 226.133" stroke="#BDA73A" stroke-width="21.5664" stroke-linecap="round"/>
</g>
<g style="mix-blend-mode:multiply" opacity="0.4" filter="url(#filter5_g_72_641)">
<path d="M313.244 250.084L325.825 267.428" stroke="#BDA73A" stroke-width="21.5664" stroke-linecap="round"/>
</g>
<g style="mix-blend-mode:multiply" opacity="0.4" filter="url(#filter6_g_72_641)">
<path d="M324.028 207.137L336.609 225.307" stroke="#BDA73A" stroke-width="21.5664" stroke-linecap="round"/>
</g>
<path d="M327.947 377.105H484.947V816.105C484.947 833.778 470.62 848.105 452.947 848.105H327.947V377.105Z" fill="#1A1A1A"/>
<g filter="url(#filter7_g_72_641)">
<path d="M83.7337 426.49L100.352 395.144C107.654 381.37 115.619 366.964 129.422 359.717C148.381 349.765 168.45 352.965 178.095 356.943L144.534 446.33L84.3791 428.043C83.7237 427.843 83.4128 427.096 83.7337 426.49Z" fill="#F6F0E5" stroke="#F6F0E5" stroke-width="18.5138" stroke-linecap="round"/>
<path d="M268.444 426.49L251.826 395.144C244.524 381.37 236.559 366.964 222.756 359.717C203.796 349.765 183.727 352.965 174.082 356.943L207.644 446.33L267.799 428.043C268.454 427.843 268.765 427.096 268.444 426.49Z" fill="#F6F0E5" stroke="#F6F0E5" stroke-width="18.5138" stroke-linecap="round"/>
<circle cx="156.535" cy="409.848" r="31.1979" transform="rotate(30 156.535 409.848)" fill="#BD9ADA"/>
<path d="M165.962 643.879H117.587L107.153 770.208H165.962V643.879Z" fill="#E8B2AB"/>
<path d="M120.946 694.855C120.946 694.855 128.249 692.158 135.946 688.355" stroke="#E09F97" stroke-width="6.53429" stroke-linecap="round"/>
<path d="M124.291 685.207C124.291 685.207 129.446 690.355 131.946 698.552" stroke="#E09F97" stroke-width="6.53429" stroke-linecap="round"/>
<path d="M185.565 643.879H233.94L244.374 770.208H185.565V643.879Z" fill="#E8B2AB"/>
<path d="M166.764 727.475C166.764 725.671 165.301 724.208 163.496 724.208H109.309C107.658 724.208 106.267 725.439 106.066 727.077L100.764 770.208H166.764V727.475Z" fill="#1A1A1A"/>
<path d="M184.764 727.475C184.764 725.671 186.226 724.208 188.031 724.208H242.218C243.869 724.208 245.26 725.439 245.461 727.077L250.764 770.208H184.764V727.475Z" fill="#1A1A1A"/>
<path d="M103.946 423.56C103.946 387.41 133.251 358.105 169.401 358.105H184.492C220.641 358.105 249.946 387.41 249.946 423.56V423.56C249.946 437.116 238.957 448.105 225.401 448.105H128.492C114.936 448.105 103.946 437.116 103.946 423.56V423.56Z" fill="#1A1A1A"/>
<path d="M101.946 411.105H251.946L249.355 424.89C246.113 442.136 232.008 455.255 214.573 457.242L176.73 461.555C173.523 461.92 170.284 461.896 167.083 461.483L138.305 457.771C120.553 455.481 106.483 441.676 103.856 423.971L101.946 411.105Z" fill="#1A1A1A"/>
<rect x="93.9464" y="434.105" width="55" height="55" rx="27.5" fill="#1A1A1A"/>
<rect x="201.946" y="433.105" width="55" height="55" rx="27.5" fill="#1A1A1A"/>
<path d="M124.308 500.126C124.308 500.126 105.169 524.462 82.594 587.466" stroke="#1A1A1A" stroke-width="42.4729" stroke-linejoin="round"/>
<ellipse cx="26.6817" cy="27.2262" rx="26.6817" ry="27.2262" transform="matrix(0.0872418 -0.996187 -0.996187 -0.0872418 99.2481 647.339)" fill="#E8B2AB"/>
<path d="M107.77 594.807C108.436 593.216 107.407 591.429 105.698 591.204V591.204C91.9339 589.396 78.841 584.171 67.6135 576.006L65.1462 574.211C63.584 573.075 61.3707 573.695 60.6253 575.477L53.4833 592.549C52.3125 595.347 52.9381 598.575 55.0695 600.734L56.6774 602.362C66.553 612.364 80.213 617.699 94.253 617.037V617.037C96.8808 616.913 99.2025 615.287 100.218 612.86L107.77 594.807Z" fill="#F6F0E5"/>
<path d="M225.794 500.126C225.794 500.126 244.932 524.462 267.508 587.466" stroke="#1A1A1A" stroke-width="42.4729" stroke-linejoin="round"/>
<ellipse cx="275.648" cy="618.384" rx="26.6817" ry="27.2262" transform="rotate(-95.0049 275.648 618.384)" fill="#E8B2AB"/>
<path d="M242.331 594.807C241.666 593.216 242.694 591.429 244.403 591.204V591.204C258.168 589.396 271.261 584.171 282.488 576.006L284.956 574.211C286.518 573.075 288.731 573.695 289.476 575.477L296.618 592.549C297.789 595.347 297.164 598.575 295.032 600.734L293.424 602.362C283.549 612.364 269.889 617.699 255.849 617.037V617.037C253.221 616.913 250.899 615.287 249.884 612.86L242.331 594.807Z" fill="#F6F0E5"/>
<ellipse cx="176.838" cy="414.881" rx="65.3429" ry="50.6407" fill="#E8B2AB"/>
<path d="M86.1866 659.258L126.477 510.631L222.787 502.549L265.304 659.255C267.371 666.873 261.635 674.372 253.743 674.372H97.7489C89.8575 674.372 84.1219 666.875 86.1866 659.258Z" fill="#1A1A1A"/>
<path d="M159.411 451.117H195.349V476.71C195.349 486.634 187.304 494.679 177.38 494.679V494.679C167.456 494.679 159.411 486.634 159.411 476.71V451.117Z" fill="#E8B2AB"/>
<path d="M176.866 364.614C208.296 364.614 234.538 381.733 240.763 404.536C252.392 404.632 261.783 412.395 261.783 421.959C261.783 431.583 252.275 439.384 240.547 439.384C238.44 439.384 236.406 439.131 234.485 438.662C223.49 454.514 201.812 465.299 176.866 465.299C152.286 465.299 130.878 454.829 119.736 439.358C119.351 439.375 118.963 439.384 118.573 439.384C106.845 439.384 97.3367 431.582 97.3367 421.959C97.337 413.979 103.875 407.251 112.797 405.187C118.697 382.06 145.138 364.614 176.866 364.614Z" fill="#E8B2AB"/>
<path d="M160.314 466.971C159.927 468.086 159.719 469.258 159.719 470.467C159.719 477.922 167.559 483.964 177.23 483.964C186.901 483.964 194.741 477.922 194.741 470.467C194.741 469.344 194.561 468.253 194.225 467.209L269.267 489.37C272.473 490.316 273.408 494.278 270.831 496.406C257.192 507.665 220.272 534.367 176.866 534.368C133.459 534.368 96.5383 507.665 82.9 496.406C80.3228 494.278 81.2582 490.316 84.4635 489.37L160.314 466.971Z" fill="#F6F0E5"/>
<path d="M241.099 405.037C209.21 406.745 189.332 378.936 183.379 364.817L188.284 356.105L198.876 359.131C220.451 365.295 236.756 383.023 241.099 405.037Z" fill="#1A1A1A"/>
<path d="M110.413 405.037C160.353 406.745 187.675 383.292 196.997 369.174L188.829 356.65L160.542 357.264C133.997 357.842 112.266 378.551 110.413 405.037Z" fill="#1A1A1A"/>
<circle cx="159.955" cy="419.237" r="3.81167" fill="#1A1A1A"/>
<circle cx="191.54" cy="419.237" r="3.81167" fill="#1A1A1A"/>
<path d="M192.665 408.742L186.637 410.744" stroke="#1A1A1A" stroke-width="6.53429" stroke-linecap="round"/>
<path d="M192.665 408.742L186.637 410.744" stroke="#5A0000" stroke-opacity="0.2" stroke-width="6.53429" stroke-linecap="round" style="mix-blend-mode:multiply"/>
<path d="M159.411 408.742L165.439 410.744" stroke="#1A1A1A" stroke-width="6.53429" stroke-linecap="round"/>
<path d="M159.411 408.742L165.439 410.744" stroke="#5A0000" stroke-opacity="0.2" stroke-width="6.53429" stroke-linecap="round" style="mix-blend-mode:multiply"/>
<path d="M183.37 423.891V423.891C178.574 426.287 172.918 426.29 168.123 423.891V423.891" stroke="#1A1A1A" stroke-width="5.44524" stroke-linecap="round" stroke-linejoin="round"/>
<path d="M167.051 763.674H99.5302C81.4862 763.674 66.8587 778.301 66.8587 796.345V810.503C66.8587 813.51 69.2966 815.948 72.304 815.948H167.051V763.674Z" fill="#1A1A1A"/>
<path d="M184.476 763.674H251.997C270.041 763.674 284.668 778.301 284.668 796.345V810.503C284.668 813.51 282.231 815.948 279.223 815.948H184.476V763.674Z" fill="#1A1A1A"/>
<path d="M117.376 424.189L109.315 419.535" stroke="#EA968B" stroke-width="6.53429" stroke-linecap="round"/>
<path d="M156.531 448.105C143.518 439.881 140.825 433.736 138.031 422.105" stroke="#E09F97" stroke-width="6.53429" stroke-linecap="round"/>
<path d="M133.531 433.605C133.531 433.605 135.531 426.45 146.876 426.45" stroke="#E09F97" stroke-width="6.53429" stroke-linecap="round"/>
<path d="M140.531 445.105C140.531 445.105 144.531 437.45 153.876 437.45" stroke="#E09F97" stroke-width="6.53429" stroke-linecap="round"/>
<path d="M241.09 424.189L249.151 419.535" stroke="#EA968B" stroke-width="6.53429" stroke-linecap="round"/>
<path d="M217.026 701.686C217.026 701.686 219.788 694.407 221.974 686.105" stroke="#E09F97" stroke-width="6.53429" stroke-linecap="round"/>
<path d="M211.946 692.828C211.946 692.828 219.214 692.321 227.038 695.817" stroke="#E09F97" stroke-width="6.53429" stroke-linecap="round"/>
</g>
<g filter="url(#filter8_g_72_641)">
<ellipse cx="93.5225" cy="504.483" rx="19.0583" ry="17.4248" fill="#F6F0E5"/>
<ellipse cx="19.0583" cy="17.4248" rx="19.0583" ry="17.4248" transform="matrix(-1 0 0 1 278.116 487.058)" fill="#F6F0E5"/>
<ellipse cx="121.838" cy="522.997" rx="19.0583" ry="17.4248" fill="#F6F0E5"/>
<ellipse cx="19.0583" cy="17.4248" rx="19.0583" ry="17.4248" transform="matrix(-1 0 0 1 249.801 505.572)" fill="#F6F0E5"/>
<ellipse cx="158.865" cy="530.62" rx="19.0583" ry="17.4248" fill="#F6F0E5"/>
<ellipse cx="19.0583" cy="17.4248" rx="19.0583" ry="17.4248" transform="matrix(-1 0 0 1 212.773 513.195)" fill="#F6F0E5"/>
</g>
</g>
<g filter="url(#filter9_g_72_641)">
<path d="M198.235 23.7362L204.375 82.6199C259.296 56.1507 289.697 81.7533 310.903 56.938C311.476 56.2682 311.044 55.2152 310.169 55.1182C304.114 54.4477 286.312 51.5231 278.317 39.8708C277.338 38.4449 277.923 36.5524 279.343 35.5668C288.906 28.9334 297.917 17.143 301.666 11.9048C302.273 11.0564 301.408 9.97991 300.416 10.303C245.782 28.1003 223.971 7.26565 200.336 19.6451C198.849 20.4239 198.061 22.0668 198.235 23.7362Z" fill="#E8B2AB" stroke="#E8B2AB" stroke-width="8.7416"/>
<path d="M196.482 21.2817L239.261 32.1093L194.125 43.6089L191.104 26.2691C190.56 23.149 193.412 20.5045 196.482 21.2817Z" fill="#1A1A1A"/>
<path d="M229.674 30.9341C164.844 58.5764 121.666 29.1883 50.3272 56.229C45.5852 58.0264 42.9046 62.9995 43.775 67.9955L53.7902 125.477C55.003 132.437 62.4532 136.403 69.0202 133.796C171.322 93.1839 191.662 130.55 249.411 107.46C253.994 105.627 256.53 100.739 255.683 95.8768L245.819 39.264C244.545 31.9532 236.501 28.0235 229.674 30.9341Z" fill="#E8B2AB"/>
<path d="M106.809 91.9717L99.1546 92.7228L98.0386 98.811L94.1615 98.681L99.4858 73.8065L103.241 73.438L113.353 96.6157L109.124 97.7233L106.809 91.9717ZM99.829 89.1934L105.462 88.6407L101.775 79.3053L99.829 89.1934ZM116.99 96.4411L114.673 72.8266C114.866 72.8078 116.019 72.6703 118.132 72.4143C119.692 72.2126 120.918 72.0681 121.808 71.9807C123.782 71.787 125.387 72.1643 126.622 73.1124C127.879 74.0341 128.601 75.4458 128.788 77.3475C128.882 78.3104 128.66 79.2678 128.122 80.2199C127.605 81.1455 126.879 81.9216 125.944 82.548C127.229 82.5191 128.41 83.0351 129.486 84.0961C130.586 85.1547 131.21 86.4302 131.356 87.9227C131.635 90.7631 130.819 92.8483 128.908 94.178C127.52 95.1406 125.357 95.7659 122.421 96.0541C121.747 96.1202 120.781 96.1906 119.525 96.2653C118.292 96.3376 117.448 96.3962 116.99 96.4411ZM119.265 75.0374L119.952 82.0422L121.577 81.8828C122.684 81.7742 123.541 81.3377 124.146 80.5735C124.684 79.8645 124.907 79.0406 124.815 78.1018C124.555 75.697 123.412 74.5818 121.388 74.7561C120.858 74.8081 120.151 74.9018 119.265 75.0374ZM120.228 84.8586L121.036 93.0912L123.528 92.8467C124.852 92.7168 125.824 92.2204 126.444 91.3576C127.047 90.5693 127.287 89.5493 127.164 88.2975C127.063 87.2625 126.624 86.382 125.848 85.6561C124.966 84.8434 123.899 84.4984 122.648 84.6213L120.228 84.8586ZM133.566 70.9729L137.935 70.5442L140.259 94.2308L135.89 94.6595L133.566 70.9729ZM154.119 93.0897C150.941 93.4014 148.299 92.3604 146.193 89.9666C144.334 87.8645 143.244 85.1765 142.923 81.9028C142.606 78.9202 143.11 76.1366 144.436 73.5518C146.031 70.4789 148.416 68.7866 151.594 68.4748C152.725 68.3638 154.034 68.4541 155.521 68.7457C157.234 69.1123 158.598 69.6347 159.612 70.3129L158.372 73.2781C156.266 72.1237 154.393 71.6148 152.754 71.7514C150.9 71.9332 149.531 73.2099 148.646 75.5813C147.913 77.5246 147.648 79.5313 147.851 81.6015C148.078 83.9123 148.777 85.8366 149.949 87.3743C151.12 88.912 152.44 89.6088 153.909 89.4647C155.401 89.3183 156.549 88.9991 157.351 88.5072L156.642 81.2857L151.768 81.764L151.452 78.5504L160.696 77.6434L161.876 89.6673C160.36 90.8125 159.149 91.5996 158.243 92.0287C157.082 92.5801 155.707 92.9338 154.119 93.0897ZM178.301 84.9569L170.646 85.708L169.53 91.7962L165.653 91.6662L170.978 66.7916L174.733 66.4232L184.845 89.6008L180.615 90.7085L178.301 84.9569ZM171.321 82.1786L176.954 81.6259L173.267 72.2905L171.321 82.1786ZM186.165 65.8118L190.534 65.3831L192.858 89.0698L188.489 89.4985L186.165 65.8118ZM195.562 64.8898L199.858 64.4682L201.874 85.0135L211.443 84.0746L211.751 87.216L197.886 88.5764L195.562 64.8898Z" fill="#1A1A1A"/>
<g style="mix-blend-mode:multiply" opacity="0.61">
<path d="M244.855 35.5712L251.039 70.0539" stroke="#E8B2AB" stroke-width="8.7416" stroke-linecap="round"/>
</g>
</g>
<defs>
<filter id="filter0_g_72_641" x="37.5261" y="9.99087" width="67.8579" height="280.388" filterUnits="userSpaceOnUse" color-interpolation-filters="sRGB">
<feFlood flood-opacity="0" result="BackgroundImageFix"/>
<feBlend mode="normal" in="SourceGraphic" in2="BackgroundImageFix" result="shape"/>
<feTurbulence type="fractalNoise" baseFrequency="0.37973597645759583 0.37973597645759583" numOctaves="3" seed="4240" />
<feDisplacementMap in="shape" scale="2.8410215377807617" xChannelSelector="R" yChannelSelector="G" result="displacedImage" width="100%" height="100%" />
<feMerge result="effect1_texture_72_641">
<feMergeNode in="displacedImage"/>
</feMerge>
</filter>
<filter id="filter1_g_72_641" x="0.126666" y="149.816" width="506.917" height="699.589" filterUnits="userSpaceOnUse" color-interpolation-filters="sRGB">
<feFlood flood-opacity="0" result="BackgroundImageFix"/>
<feBlend mode="normal" in="SourceGraphic" in2="BackgroundImageFix" result="shape"/>
<feTurbulence type="fractalNoise" baseFrequency="0.41493773460388184 0.41493773460388184" numOctaves="3" seed="4240" />
<feDisplacementMap in="shape" scale="2.5999999046325684" xChannelSelector="R" yChannelSelector="G" result="displacedImage" width="100%" height="100%" />
<feMerge result="effect1_texture_72_641">
<feMergeNode in="displacedImage"/>
</feMerge>
</filter>
<filter id="filter2_g_72_641" x="162.521" y="148.779" width="345.559" height="229.803" filterUnits="userSpaceOnUse" color-interpolation-filters="sRGB">
<feFlood flood-opacity="0" result="BackgroundImageFix"/>
<feBlend mode="normal" in="SourceGraphic" in2="BackgroundImageFix" result="shape"/>
<feTurbulence type="fractalNoise" baseFrequency="0.23087981343269348 0.23087981343269348" numOctaves="3" seed="4240" />
<feDisplacementMap in="shape" scale="4.6727256774902344" xChannelSelector="R" yChannelSelector="G" result="displacedImage" width="100%" height="100%" />
<feMerge result="effect1_texture_72_641">
<feMergeNode in="displacedImage"/>
</feMerge>
</filter>
<filter id="filter3_g_72_641" x="12.9836" y="180.011" width="340.601" height="227.561" filterUnits="userSpaceOnUse" color-interpolation-filters="sRGB">
<feFlood flood-opacity="0" result="BackgroundImageFix"/>
<feBlend mode="normal" in="SourceGraphic" in2="BackgroundImageFix" result="shape"/>
<feTurbulence type="fractalNoise" baseFrequency="0.41493773460388184 0.41493773460388184" numOctaves="3" seed="4240" />
<feDisplacementMap in="shape" scale="2.5999999046325684" xChannelSelector="R" yChannelSelector="G" result="displacedImage" width="100%" height="100%" />
<feMerge result="effect1_texture_72_641">
<feMergeNode in="displacedImage"/>
</feMerge>
</filter>
<filter id="filter4_g_72_641" x="245.31" y="191.539" width="42.4152" height="47.7139" filterUnits="userSpaceOnUse" color-interpolation-filters="sRGB">
<feFlood flood-opacity="0" result="BackgroundImageFix"/>
<feBlend mode="normal" in="SourceGraphic" in2="BackgroundImageFix" result="shape"/>
<feTurbulence type="fractalNoise" baseFrequency="0.23087981343269348 0.23087981343269348" numOctaves="3" seed="4240" />
<feDisplacementMap in="shape" scale="4.6727256774902344" xChannelSelector="R" yChannelSelector="G" result="displacedImage" width="100%" height="100%" />
<feMerge result="effect1_texture_72_641">
<feMergeNode in="displacedImage"/>
</feMerge>
</filter>
<filter id="filter5_g_72_641" x="300.124" y="236.963" width="38.8211" height="43.5846" filterUnits="userSpaceOnUse" color-interpolation-filters="sRGB">
<feFlood flood-opacity="0" result="BackgroundImageFix"/>
<feBlend mode="normal" in="SourceGraphic" in2="BackgroundImageFix" result="shape"/>
<feTurbulence type="fractalNoise" baseFrequency="0.23087981343269348 0.23087981343269348" numOctaves="3" seed="4240" />
<feDisplacementMap in="shape" scale="4.6727256774902344" xChannelSelector="R" yChannelSelector="G" result="displacedImage" width="100%" height="100%" />
<feMerge result="effect1_texture_72_641">
<feMergeNode in="displacedImage"/>
</feMerge>
</filter>
<filter id="filter6_g_72_641" x="310.908" y="194.016" width="38.8215" height="44.411" filterUnits="userSpaceOnUse" color-interpolation-filters="sRGB">
<feFlood flood-opacity="0" result="BackgroundImageFix"/>
<feBlend mode="normal" in="SourceGraphic" in2="BackgroundImageFix" result="shape"/>
<feTurbulence type="fractalNoise" baseFrequency="0.23087981343269348 0.23087981343269348" numOctaves="3" seed="4240" />
<feDisplacementMap in="shape" scale="4.6727256774902344" xChannelSelector="R" yChannelSelector="G" result="displacedImage" width="100%" height="100%" />
<feMerge result="effect1_texture_72_641">
<feMergeNode in="displacedImage"/>
</feMerge>
</filter>
<filter id="filter7_g_72_641" x="45.814" y="342.432" width="258.474" height="474.932" filterUnits="userSpaceOnUse" color-interpolation-filters="sRGB">
<feFlood flood-opacity="0" result="BackgroundImageFix"/>
<feBlend mode="normal" in="SourceGraphic" in2="BackgroundImageFix" result="shape"/>
<feTurbulence type="fractalNoise" baseFrequency="0.38100969791412354 0.38100969791412354" numOctaves="3" seed="4240" />
<feDisplacementMap in="shape" scale="2.831524133682251" xChannelSelector="R" yChannelSelector="G" result="displacedImage" width="100%" height="100%" />
<feMerge result="effect1_texture_72_641">
<feMergeNode in="displacedImage"/>
</feMerge>
</filter>
<filter id="filter8_g_72_641" x="73.0484" y="485.642" width="206.483" height="63.8182" filterUnits="userSpaceOnUse" color-interpolation-filters="sRGB">
<feFlood flood-opacity="0" result="BackgroundImageFix"/>
<feBlend mode="normal" in="SourceGraphic" in2="BackgroundImageFix" result="shape"/>
<feTurbulence type="fractalNoise" baseFrequency="0.38100969791412354 0.38100969791412354" numOctaves="3" seed="4240" />
<feDisplacementMap in="shape" scale="2.831524133682251" xChannelSelector="R" yChannelSelector="G" result="displacedImage" width="100%" height="100%" />
<feMerge result="effect1_texture_72_641">
<feMergeNode in="displacedImage"/>
</feMerge>
</filter>
<filter id="filter9_g_72_641" x="42.1916" y="4.45022" width="274.777" height="131.573" filterUnits="userSpaceOnUse" color-interpolation-filters="sRGB">
<feFlood flood-opacity="0" result="BackgroundImageFix"/>
<feBlend mode="normal" in="SourceGraphic" in2="BackgroundImageFix" result="shape"/>
<feTurbulence type="fractalNoise" baseFrequency="0.37973597645759583 0.37973597645759583" numOctaves="3" seed="4240" />
<feDisplacementMap in="shape" scale="2.8410215377807617" xChannelSelector="R" yChannelSelector="G" result="displacedImage" width="100%" height="100%" />
<feMerge result="effect1_texture_72_641">
<feMergeNode in="displacedImage"/>
</feMerge>
</filter>
</defs>
</svg>
