<svg width="926" height="883" viewBox="0 0 926 883" fill="none" xmlns="http://www.w3.org/2000/svg">
<g filter="url(#filter0_g_194_367)">
<rect x="4.96533" y="5" width="915.763" height="823" rx="27" fill="#F6F0E5" stroke="#8A9F3B" stroke-width="6"/>
<path d="M515.198 614.93C549.128 613.363 576.156 585.359 576.156 551.042L576.156 548.958C576.156 514.641 549.128 486.637 515.198 485.07L515.198 614.93Z" stroke="#8A9F3B" stroke-width="6"/>
<path d="M839.966 486C837.007 486 834.695 483.444 834.991 480.5L835.796 472.5C835.829 472.168 835.829 471.832 835.796 471.5L834.991 463.5C834.695 460.556 837.007 458 839.966 458L885.638 458C888.68 458 891.018 460.695 890.588 463.707L889.505 471.293C889.438 471.762 889.438 472.238 889.505 472.707L890.588 480.293C891.018 483.305 888.68 486 885.638 486L839.966 486Z" fill="#F6F0E5"/>
<path d="M661.103 426H921.668" stroke="#8A9F3B" stroke-width="6"/>
<path d="M2.47998 142.75H173.37C175.027 142.75 176.37 141.407 176.37 139.75V5.75" stroke="#8A9F3B" stroke-width="6"/>
<path d="M340 827V423" stroke="#8A9F3B" stroke-width="6"/>
<path d="M515 827V423" stroke="#8A9F3B" stroke-width="6"/>
<path d="M516 425L516 371C516 369.343 514.657 368 513 368H343C341.343 368 340 369.343 340 371L340 425" stroke="#8A9F3B" stroke-width="6"/>
<path d="M514.196 484L476 484C474.343 484 473 485.343 473 487L473 613C473 614.657 474.343 616 476 616L514.196 616" stroke="#8A9F3B" stroke-width="6"/>
<path d="M176.37 378.75V135.75" stroke="#8A9F3B" stroke-width="6"/>
<path d="M4.0249 425H665.222" stroke="#8A9F3B" stroke-width="6"/>
<path d="M666.252 7.5L666.252 425" stroke="#8A9F3B" stroke-width="6"/>
<path d="M336.961 680L515.848 680" stroke="#8A9F3B" stroke-width="6"/>
<path d="M336.246 736H516.132" stroke="#8A9F3B" stroke-width="6"/>
<path d="M381.932 680V736" stroke="#8A9F3B" stroke-width="6"/>
<path d="M426.62 680V736" stroke="#8A9F3B" stroke-width="6"/>
<path d="M471.591 680V736" stroke="#8A9F3B" stroke-width="6"/>
<path d="M531.335 826.5L599.309 879" stroke="#8A9F3B" stroke-width="6"/>
<path d="M641.574 618.344H644.596V632.791H651.324V635H641.574V618.344ZM655.64 618.344H658.712V635H655.64V618.344ZM667.268 635.254L661.58 618.725L664.805 617.912L668.817 630.15L672.574 617.887L675.266 618.75L669.553 635.254H667.268ZM678.159 618.344H681.232V635H678.159V618.344ZM688.238 624.564L688.213 635H685.547V618.268H688.035L694.738 628.779V618.369H697.379V634.619L694.916 635.381C693.223 632.266 690.997 628.661 688.238 624.564ZM707.89 635.152C705.655 635.152 703.886 634.247 702.583 632.436C701.432 630.844 700.856 628.898 700.856 626.596C700.84 624.497 701.381 622.592 702.481 620.883C703.802 618.852 705.579 617.836 707.813 617.836C708.609 617.836 709.515 617.988 710.53 618.293C711.698 618.665 712.612 619.122 713.272 619.664L712.206 621.645C710.818 620.697 709.549 620.214 708.397 620.197C707.094 620.197 706.053 620.993 705.274 622.584C704.631 623.887 704.31 625.267 704.31 626.723C704.31 628.348 704.665 629.736 705.376 630.887C706.087 632.038 706.959 632.613 707.991 632.613C709.041 632.613 709.862 632.469 710.454 632.182V627.104H707.026V624.844H713.526V633.299C712.392 633.993 711.495 634.458 710.835 634.695C709.989 635 709.007 635.152 707.89 635.152ZM729.546 628.17H728.962V635H725.966V618.344C726.44 618.344 727.328 618.327 728.632 618.293C729.58 618.276 730.358 618.268 730.968 618.268C732.542 618.268 733.744 618.699 734.573 619.562C735.42 620.409 735.834 621.585 735.817 623.092C735.8 624.294 735.453 625.335 734.776 626.215C734.167 626.993 733.397 627.527 732.466 627.814C733.837 629.727 735.817 631.987 738.407 634.594L734.573 635.279C733.304 633.976 731.628 631.606 729.546 628.17ZM728.962 620.197V626.342H730.028C731.941 626.342 732.897 625.25 732.897 623.066C732.897 622.339 732.754 621.721 732.466 621.213C732.043 620.468 731.349 620.113 730.384 620.146L728.962 620.197ZM739.752 626.621C739.752 624.201 740.471 622.195 741.91 620.604C743.349 618.995 745.177 618.191 747.394 618.191C749.595 618.191 751.389 618.995 752.777 620.604C754.165 622.195 754.859 624.201 754.859 626.621C754.859 629.38 754.114 631.555 752.625 633.146C751.22 634.653 749.417 635.406 747.217 635.406C745.033 635.406 743.264 634.653 741.91 633.146C740.471 631.555 739.752 629.38 739.752 626.621ZM743.002 626.85C743.002 628.525 743.4 629.981 744.195 631.217C744.991 632.452 745.998 633.07 747.217 633.07C748.452 633.07 749.502 632.436 750.365 631.166C751.195 629.947 751.609 628.525 751.609 626.9C751.609 625.174 751.228 623.684 750.467 622.432C749.671 621.128 748.63 620.485 747.344 620.502C746.057 620.502 744.999 621.145 744.17 622.432C743.391 623.667 743.002 625.14 743.002 626.85ZM757.524 626.621C757.524 624.201 758.244 622.195 759.682 620.604C761.121 618.995 762.949 618.191 765.167 618.191C767.367 618.191 769.162 618.995 770.55 620.604C771.938 622.195 772.632 624.201 772.632 626.621C772.632 629.38 771.887 631.555 770.397 633.146C768.992 634.653 767.19 635.406 764.989 635.406C762.806 635.406 761.037 634.653 759.682 633.146C758.244 631.555 757.524 629.38 757.524 626.621ZM760.774 626.85C760.774 628.525 761.172 629.981 761.968 631.217C762.763 632.452 763.77 633.07 764.989 633.07C766.225 633.07 767.274 632.436 768.138 631.166C768.967 629.947 769.382 628.525 769.382 626.9C769.382 625.174 769.001 623.684 768.239 622.432C767.444 621.128 766.403 620.485 765.116 620.502C763.83 620.502 762.772 621.145 761.942 622.432C761.164 623.667 760.774 625.14 760.774 626.85ZM789.744 623.904L785.783 635.025H783.092L779.105 623.803V635H776.363V618.318H780.299L784.844 630.582L789.465 618.318H793.146V635H789.744V623.904Z" fill="#8A9F3B"/>
<path d="M90.1516 622.904L86.1907 634.025H83.4993L79.5129 622.803V634H76.7707V617.318H80.7063L85.2512 629.582L89.8723 617.318H93.5539V634H90.1516V622.904ZM106.401 630.141H101.018L99.8244 634.305L97.133 633.949L102.541 616.988H105.182L110.641 633.822L107.619 634.305L106.401 630.141ZM101.729 627.729H105.69L103.76 620.975L101.729 627.729ZM117.546 627.17H116.962V634H113.966V617.344C114.44 617.344 115.329 617.327 116.632 617.293C117.58 617.276 118.359 617.268 118.968 617.268C120.542 617.268 121.744 617.699 122.573 618.562C123.42 619.409 123.834 620.585 123.818 622.092C123.801 623.294 123.454 624.335 122.777 625.215C122.167 625.993 121.397 626.527 120.466 626.814C121.837 628.727 123.818 630.987 126.407 633.594L122.573 634.279C121.304 632.976 119.628 630.606 117.546 627.17ZM116.962 619.197V625.342H118.028C119.941 625.342 120.898 624.25 120.898 622.066C120.898 621.339 120.754 620.721 120.466 620.213C120.043 619.468 119.349 619.113 118.384 619.146L116.962 619.197ZM135.547 634H132.449V619.502H127.727V617.395H140.016V619.502H135.547V634ZM152.304 626.154H146.591V634H143.519V617.369H146.591V623.844H152.304V617.369H155.351V634H152.304V626.154ZM167.893 630.141H162.51L161.316 634.305L158.625 633.949L164.033 616.988H166.674L172.133 633.822L169.111 634.305L167.893 630.141ZM163.221 627.729H167.182L165.252 620.975L163.221 627.729ZM175.56 621.178L173.833 620.848C174.155 620.137 174.383 619.333 174.519 618.436C174.535 618.266 174.578 617.521 174.646 616.201H177.362C177.362 616.827 177.159 617.682 176.753 618.766C176.381 619.781 175.983 620.585 175.56 621.178ZM179.062 631.867L180.459 629.861C181.492 631.08 182.676 631.689 184.014 631.689C185.842 631.689 186.747 630.801 186.73 629.023C186.73 628.126 186.096 627.415 184.826 626.891C182.761 626.027 181.61 625.511 181.373 625.342C180.12 624.479 179.503 623.15 179.52 621.355C179.536 619.934 180.103 618.774 181.221 617.877C182.169 617.115 183.201 616.734 184.318 616.734C186.113 616.734 187.746 617.352 189.219 618.588L188.178 620.771C186.993 619.654 185.876 619.096 184.826 619.096C184.115 619.096 183.59 619.24 183.252 619.527C182.829 619.866 182.626 620.484 182.643 621.381C182.643 622.176 183.252 622.82 184.471 623.311C186.367 624.072 187.501 624.597 187.873 624.885C189.109 625.799 189.718 627.161 189.701 628.973C189.701 630.75 189.126 632.113 187.975 633.061C186.976 633.856 185.723 634.254 184.217 634.254C181.915 634.254 180.197 633.458 179.062 631.867ZM204.603 627.17H204.019V634H201.023V617.344C201.497 617.344 202.386 617.327 203.689 617.293C204.637 617.276 205.416 617.268 206.025 617.268C207.599 617.268 208.801 617.699 209.631 618.562C210.477 619.409 210.892 620.585 210.875 622.092C210.858 623.294 210.511 624.335 209.834 625.215C209.224 625.993 208.454 626.527 207.523 626.814C208.894 628.727 210.875 630.987 213.465 633.594L209.631 634.279C208.361 632.976 206.685 630.606 204.603 627.17ZM204.019 619.197V625.342H205.086C206.999 625.342 207.955 624.25 207.955 622.066C207.955 621.339 207.811 620.721 207.523 620.213C207.1 619.468 206.406 619.113 205.441 619.146L204.019 619.197ZM214.809 625.621C214.809 623.201 215.529 621.195 216.968 619.604C218.406 617.995 220.235 617.191 222.452 617.191C224.653 617.191 226.447 617.995 227.835 619.604C229.223 621.195 229.917 623.201 229.917 625.621C229.917 628.38 229.172 630.555 227.682 632.146C226.278 633.653 224.475 634.406 222.274 634.406C220.091 634.406 218.322 633.653 216.968 632.146C215.529 630.555 214.809 628.38 214.809 625.621ZM218.059 625.85C218.059 627.525 218.457 628.981 219.253 630.217C220.048 631.452 221.056 632.07 222.274 632.07C223.51 632.07 224.559 631.436 225.423 630.166C226.252 628.947 226.667 627.525 226.667 625.9C226.667 624.174 226.286 622.684 225.524 621.432C224.729 620.128 223.688 619.485 222.401 619.502C221.115 619.502 220.057 620.145 219.227 621.432C218.449 622.667 218.059 624.14 218.059 625.85ZM232.582 625.621C232.582 623.201 233.301 621.195 234.74 619.604C236.179 617.995 238.007 617.191 240.224 617.191C242.425 617.191 244.219 617.995 245.607 619.604C246.995 621.195 247.689 623.201 247.689 625.621C247.689 628.38 246.944 630.555 245.455 632.146C244.05 633.653 242.247 634.406 240.047 634.406C237.863 634.406 236.094 633.653 234.74 632.146C233.301 630.555 232.582 628.38 232.582 625.621ZM235.832 625.85C235.832 627.525 236.23 628.981 237.025 630.217C237.821 631.452 238.828 632.07 240.047 632.07C241.282 632.07 242.332 631.436 243.195 630.166C244.025 628.947 244.439 627.525 244.439 625.9C244.439 624.174 244.058 622.684 243.297 621.432C242.501 620.128 241.46 619.485 240.174 619.502C238.887 619.502 237.829 620.145 237 621.432C236.221 622.667 235.832 624.14 235.832 625.85ZM264.802 622.904L260.841 634.025H258.149L254.163 622.803V634H251.421V617.318H255.356L259.901 629.582L264.522 617.318H268.204V634H264.802V622.904Z" fill="#8A9F3B"/>
<path d="M378.128 652.443C378.128 650.192 378.72 648.254 379.905 646.629C381.276 644.767 383.13 643.836 385.465 643.836C386.938 643.836 388.639 644.437 390.569 645.639L389.477 647.67C388.377 647.027 387.818 646.688 387.801 646.654C387.175 646.367 386.532 646.214 385.872 646.197C384.484 646.197 383.392 646.984 382.596 648.559C381.953 649.811 381.631 651.199 381.631 652.723C381.631 654.365 382.055 655.753 382.901 656.887C383.697 657.953 384.661 658.495 385.796 658.512C386.405 658.512 386.98 658.402 387.522 658.182C387.945 658.029 388.614 657.691 389.528 657.166L390.747 659.197C389.596 659.942 388.699 660.45 388.055 660.721C387.226 661.042 386.312 661.203 385.313 661.203C382.96 661.203 381.132 660.289 379.829 658.461C378.695 656.836 378.128 654.83 378.128 652.443ZM403.263 653.154H397.55V661H394.478V644.369H397.55V650.844H403.263V644.369H406.31V661H403.263V653.154ZM410.626 644.344H413.698V661H410.626V644.344ZM431.648 649.904L427.687 661.025H424.996L421.009 649.803V661H418.267V644.318H422.203L426.748 656.582L431.369 644.318H435.05V661H431.648V649.904ZM442.362 650.564L442.336 661H439.67V644.268H442.159L448.862 654.779V644.369H451.502V660.619L449.04 661.381C447.347 658.266 445.121 654.661 442.362 650.564ZM458.814 650.844H464.73V653.154L458.814 653.129V658.689H465.06V661H455.818V644.369H465.136V646.578H458.814V650.844ZM475.266 661H472.219V653.941L467.496 644.852L470.696 643.988L474.047 651.352L477.602 643.988L479.989 644.852L475.266 653.941V661Z" fill="#8A9F3B"/>
<path d="M390.772 780.867L392.168 778.861C393.201 780.08 394.386 780.689 395.723 780.689C397.551 780.689 398.456 779.801 398.44 778.023C398.44 777.126 397.805 776.415 396.535 775.891C394.47 775.027 393.319 774.511 393.082 774.342C391.83 773.479 391.212 772.15 391.229 770.355C391.246 768.934 391.813 767.774 392.93 766.877C393.878 766.115 394.91 765.734 396.027 765.734C397.822 765.734 399.455 766.352 400.928 767.588L399.887 769.771C398.702 768.654 397.585 768.096 396.535 768.096C395.824 768.096 395.3 768.24 394.961 768.527C394.538 768.866 394.335 769.484 394.352 770.381C394.352 771.176 394.961 771.82 396.18 772.311C398.076 773.072 399.21 773.597 399.582 773.885C400.818 774.799 401.427 776.161 401.41 777.973C401.41 779.75 400.835 781.113 399.684 782.061C398.685 782.856 397.432 783.254 395.926 783.254C393.624 783.254 391.906 782.458 390.772 780.867ZM411.591 783H408.493V768.502H403.771V766.395H416.06V768.502H411.591V783ZM427.789 779.141H422.406L421.213 783.305L418.522 782.949L423.93 765.988H426.57L432.029 782.822L429.008 783.305L427.789 779.141ZM423.117 776.729H427.078L425.148 769.975L423.117 776.729ZM435.354 766.344H438.427V783H435.354V766.344ZM446.322 776.17H445.738V783H442.742V766.344C443.216 766.344 444.105 766.327 445.408 766.293C446.356 766.276 447.135 766.268 447.744 766.268C449.318 766.268 450.52 766.699 451.35 767.562C452.196 768.409 452.611 769.585 452.594 771.092C452.577 772.294 452.23 773.335 451.553 774.215C450.943 774.993 450.173 775.527 449.242 775.814C450.613 777.727 452.594 779.987 455.184 782.594L451.35 783.279C450.08 781.976 448.404 779.606 446.322 776.17ZM445.738 768.197V774.342H446.805C448.717 774.342 449.674 773.25 449.674 771.066C449.674 770.339 449.53 769.721 449.242 769.213C448.819 768.468 448.125 768.113 447.16 768.146L445.738 768.197ZM456.325 780.867L457.722 778.861C458.754 780.08 459.939 780.689 461.276 780.689C463.104 780.689 464.01 779.801 463.993 778.023C463.993 777.126 463.358 776.415 462.089 775.891C460.024 775.027 458.873 774.511 458.636 774.342C457.383 773.479 456.765 772.15 456.782 770.355C456.799 768.934 457.366 767.774 458.483 766.877C459.431 766.115 460.464 765.734 461.581 765.734C463.375 765.734 465.009 766.352 466.481 767.588L465.44 769.771C464.255 768.654 463.138 768.096 462.089 768.096C461.378 768.096 460.853 768.24 460.515 768.527C460.091 768.866 459.888 769.484 459.905 770.381C459.905 771.176 460.515 771.82 461.733 772.311C463.629 773.072 464.763 773.597 465.136 773.885C466.371 774.799 466.981 776.161 466.964 777.973C466.964 779.75 466.388 781.113 465.237 782.061C464.239 782.856 462.986 783.254 461.479 783.254C459.177 783.254 457.459 782.458 456.325 780.867Z" fill="#8A9F3B"/>
<path d="M710.957 212.904L706.996 224.025H704.304L700.318 212.803V224H697.576V207.318H701.511L706.056 219.582L710.677 207.318H714.359V224H710.957V212.904ZM727.206 220.141H721.823L720.63 224.305L717.938 223.949L723.346 206.988H725.987L731.446 223.822L728.425 224.305L727.206 220.141ZM722.534 217.729H726.495L724.565 210.975L722.534 217.729ZM744.622 219.176C744.622 219.887 744.825 220.513 745.231 221.055C745.705 221.715 746.331 222.045 747.11 222.045C747.821 222.045 748.549 221.656 749.294 220.877C747.432 219.117 746.204 217.627 745.612 216.408C744.952 216.916 744.622 217.839 744.622 219.176ZM751.071 222.451C750.749 222.942 750.233 223.357 749.522 223.695C748.76 224.068 747.999 224.245 747.237 224.229C745.544 224.229 744.207 223.738 743.225 222.756C742.345 221.876 741.905 220.758 741.905 219.404C741.905 217.356 742.768 215.74 744.495 214.555C743.919 213.607 743.631 212.642 743.631 211.66C743.631 210.424 744.055 209.4 744.901 208.588C745.764 207.775 746.788 207.369 747.973 207.369C748.701 207.369 749.311 207.479 749.801 207.699C750.394 207.97 751.003 208.478 751.63 209.223L750.157 210.848C749.497 210.052 748.625 209.654 747.542 209.654C746.831 209.654 746.475 210.196 746.475 211.279C746.475 211.77 746.636 212.422 746.958 213.234C747.669 212.964 748.617 212.811 749.801 212.777L750.208 214.859C749.327 214.859 748.642 214.927 748.151 215.062C749.116 216.451 749.996 217.585 750.792 218.465C750.859 218.211 750.893 217.957 750.893 217.703C750.893 217.128 750.817 216.501 750.665 215.824L752.95 215.418L753.051 216.129C753.136 216.654 753.178 217.085 753.178 217.424C753.178 218.304 753.026 219.243 752.721 220.242C753.094 220.564 753.898 221.063 755.133 221.74L753.458 224C752.882 223.797 752.087 223.281 751.071 222.451ZM769.477 217.271V224H766.481V207.344L771.356 207.268C772.778 207.251 773.98 207.725 774.961 208.689C775.96 209.637 776.46 210.831 776.46 212.27C776.46 213.607 775.876 214.783 774.708 215.799C773.557 216.814 772.262 217.322 770.823 217.322C770.62 217.322 770.171 217.305 769.477 217.271ZM769.477 209.197V215.494H770.315C771.178 215.494 771.915 215.181 772.524 214.555C773.15 213.911 773.463 213.175 773.463 212.346C773.463 210.365 772.516 209.299 770.62 209.146C770.501 209.13 770.307 209.138 770.036 209.172C769.782 209.189 769.596 209.197 769.477 209.197ZM788.087 220.141H782.705L781.511 224.305L778.82 223.949L784.228 206.988H786.869L792.328 223.822L789.306 224.305L788.087 220.141ZM783.416 217.729H787.376L785.447 210.975L783.416 217.729ZM795.754 211.178L794.028 210.848C794.349 210.137 794.578 209.333 794.713 208.436C794.73 208.266 794.773 207.521 794.84 206.201H797.557C797.557 206.827 797.354 207.682 796.948 208.766C796.575 209.781 796.178 210.585 795.754 211.178ZM799.257 221.867L800.654 219.861C801.686 221.08 802.871 221.689 804.208 221.689C806.037 221.689 806.942 220.801 806.925 219.023C806.925 218.126 806.29 217.415 805.021 216.891C802.956 216.027 801.805 215.511 801.568 215.342C800.315 214.479 799.697 213.15 799.714 211.355C799.731 209.934 800.298 208.774 801.415 207.877C802.363 207.115 803.396 206.734 804.513 206.734C806.307 206.734 807.941 207.352 809.414 208.588L808.372 210.771C807.188 209.654 806.07 209.096 805.021 209.096C804.31 209.096 803.785 209.24 803.447 209.527C803.024 209.866 802.82 210.484 802.837 211.381C802.837 212.176 803.447 212.82 804.665 213.311C806.561 214.072 807.695 214.597 808.068 214.885C809.303 215.799 809.913 217.161 809.896 218.973C809.896 220.75 809.32 222.113 808.169 223.061C807.171 223.856 805.918 224.254 804.412 224.254C802.109 224.254 800.391 223.458 799.257 221.867ZM824.798 217.17H824.214V224H821.218V207.344C821.692 207.344 822.581 207.327 823.884 207.293C824.832 207.276 825.611 207.268 826.22 207.268C827.794 207.268 828.996 207.699 829.826 208.562C830.672 209.409 831.087 210.585 831.07 212.092C831.053 213.294 830.706 214.335 830.029 215.215C829.419 215.993 828.649 216.527 827.718 216.814C829.089 218.727 831.07 220.987 833.66 223.594L829.826 224.279C828.556 222.976 826.88 220.606 824.798 217.17ZM824.214 209.197V215.342H825.281C827.193 215.342 828.15 214.25 828.15 212.066C828.15 211.339 828.006 210.721 827.718 210.213C827.295 209.468 826.601 209.113 825.636 209.146L824.214 209.197ZM835.004 215.621C835.004 213.201 835.724 211.195 837.162 209.604C838.601 207.995 840.429 207.191 842.647 207.191C844.847 207.191 846.642 207.995 848.03 209.604C849.418 211.195 850.112 213.201 850.112 215.621C850.112 218.38 849.367 220.555 847.877 222.146C846.472 223.653 844.67 224.406 842.469 224.406C840.285 224.406 838.517 223.653 837.162 222.146C835.724 220.555 835.004 218.38 835.004 215.621ZM838.254 215.85C838.254 217.525 838.652 218.981 839.448 220.217C840.243 221.452 841.25 222.07 842.469 222.07C843.705 222.07 844.754 221.436 845.617 220.166C846.447 218.947 846.862 217.525 846.862 215.9C846.862 214.174 846.481 212.684 845.719 211.432C844.923 210.128 843.882 209.485 842.596 209.502C841.31 209.502 840.252 210.145 839.422 211.432C838.644 212.667 838.254 214.14 838.254 215.85ZM852.777 215.621C852.777 213.201 853.496 211.195 854.935 209.604C856.374 207.995 858.202 207.191 860.419 207.191C862.62 207.191 864.414 207.995 865.802 209.604C867.19 211.195 867.884 213.201 867.884 215.621C867.884 218.38 867.139 220.555 865.65 222.146C864.245 223.653 862.442 224.406 860.241 224.406C858.058 224.406 856.289 223.653 854.935 222.146C853.496 220.555 852.777 218.38 852.777 215.621ZM856.027 215.85C856.027 217.525 856.424 218.981 857.22 220.217C858.016 221.452 859.023 222.07 860.241 222.07C861.477 222.07 862.527 221.436 863.39 220.166C864.219 218.947 864.634 217.525 864.634 215.9C864.634 214.174 864.253 212.684 863.491 211.432C862.696 210.128 861.655 209.485 860.368 209.502C859.082 209.502 858.024 210.145 857.195 211.432C856.416 212.667 856.027 214.14 856.027 215.85ZM884.996 212.904L881.035 224.025H878.344L874.358 212.803V224H871.615V207.318H875.551L880.096 219.582L884.717 207.318H888.399V224H884.996V212.904Z" fill="#8A9F3B"/>
<path d="M379.966 216.373L379.077 217.643V223H376.005V206.344H379.077V213.885L384.308 205.506L387.05 206.877C385.662 208.79 383.859 211.303 381.642 214.418C382.268 215.451 383.326 216.847 384.816 218.607C386.034 220.012 387.245 221.409 388.446 222.797L384.816 223.609C383.106 221.273 381.489 218.861 379.966 216.373ZM391.137 206.344H394.209V223H391.137V206.344ZM405.507 223H402.409V208.502H397.687V206.395H409.976V208.502H405.507V223ZM412.641 214.443C412.641 212.192 413.233 210.254 414.418 208.629C415.789 206.767 417.643 205.836 419.979 205.836C421.451 205.836 423.152 206.437 425.082 207.639L423.99 209.67C422.89 209.027 422.331 208.688 422.314 208.654C421.688 208.367 421.045 208.214 420.385 208.197C418.997 208.197 417.905 208.984 417.109 210.559C416.466 211.811 416.145 213.199 416.145 214.723C416.145 216.365 416.568 217.753 417.414 218.887C418.21 219.953 419.174 220.495 420.309 220.512C420.918 220.512 421.493 220.402 422.035 220.182C422.458 220.029 423.127 219.691 424.041 219.166L425.26 221.197C424.109 221.942 423.212 222.45 422.568 222.721C421.739 223.042 420.825 223.203 419.826 223.203C417.473 223.203 415.645 222.289 414.342 220.461C413.208 218.836 412.641 216.83 412.641 214.443ZM437.776 215.154H432.063V223H428.991V206.369H432.063V212.844H437.776V206.369H440.823V223H437.776V215.154ZM448.135 212.844H454.051V215.154L448.135 215.129V220.689H454.381V223H445.139V206.369H454.457V208.578H448.135V212.844ZM460.88 212.564L460.854 223H458.188V206.268H460.677L467.38 216.779V206.369H470.02V222.619L467.557 223.381C465.865 220.266 463.639 216.661 460.88 212.564Z" fill="#8A9F3B"/>
<path d="M42.5372 255.949V239.344C42.6726 239.344 43.4851 239.327 44.9747 239.293C46.075 239.259 46.9383 239.242 47.5646 239.242C48.9526 239.242 50.0444 239.615 50.84 240.359C51.6525 241.087 52.0587 242.12 52.0587 243.457C52.0587 244.134 51.8387 244.786 51.3986 245.412C50.9754 246.021 50.4168 246.512 49.7228 246.885C50.6199 246.952 51.407 247.393 52.0841 248.205C52.7781 249.018 53.1251 249.949 53.1251 250.998C53.1251 252.995 52.4142 254.392 50.9923 255.188C49.9598 255.763 48.4109 256.051 46.3458 256.051C45.8719 256.051 45.1948 256.034 44.3146 256C43.4513 255.966 42.8588 255.949 42.5372 255.949ZM45.5841 241.197V246.123H46.7267C47.5053 246.123 48.1316 245.878 48.6056 245.387C49.0288 244.93 49.2404 244.371 49.2404 243.711C49.2234 242.018 48.504 241.163 47.0821 241.146C46.7098 241.146 46.2104 241.163 45.5841 241.197ZM45.5841 248.104V253.893H47.3361C48.267 253.893 48.978 253.613 49.4689 253.055C49.9428 252.547 50.1798 251.853 50.1798 250.973C50.1798 250.245 49.9344 249.602 49.4435 249.043C48.8849 248.417 48.1655 248.104 47.2853 248.104H45.5841ZM55.7901 247.621C55.7901 245.201 56.5095 243.195 57.9483 241.604C59.3871 239.995 61.2152 239.191 63.4327 239.191C65.6332 239.191 67.4275 239.995 68.8155 241.604C70.2035 243.195 70.8975 245.201 70.8975 247.621C70.8975 250.38 70.1527 252.555 68.6632 254.146C67.2582 255.653 65.4555 256.406 63.255 256.406C61.0714 256.406 59.3025 255.653 57.9483 254.146C56.5095 252.555 55.7901 250.38 55.7901 247.621ZM59.0401 247.85C59.0401 249.525 59.4379 250.981 60.2335 252.217C61.0291 253.452 62.0362 254.07 63.255 254.07C64.4906 254.07 65.5401 253.436 66.4034 252.166C67.2328 250.947 67.6475 249.525 67.6475 247.9C67.6475 246.174 67.2667 244.684 66.505 243.432C65.7094 242.128 64.6684 241.485 63.3819 241.502C62.0955 241.502 61.0375 242.145 60.2081 243.432C59.4294 244.667 59.0401 246.14 59.0401 247.85ZM77.9551 249.17H77.3711V256H74.375V239.344C74.849 239.344 75.7377 239.327 77.0411 239.293C77.989 239.276 78.7676 239.268 79.377 239.268C80.9512 239.268 82.153 239.699 82.9825 240.562C83.8288 241.409 84.2435 242.585 84.2266 244.092C84.2097 245.294 83.8627 246.335 83.1856 247.215C82.5762 247.993 81.806 248.527 80.875 248.814C82.2461 250.727 84.2266 252.987 86.8164 255.594L82.9825 256.279C81.7129 254.976 80.0371 252.606 77.9551 249.17ZM77.3711 241.197V247.342H78.4375C80.3503 247.342 81.3067 246.25 81.3067 244.066C81.3067 243.339 81.1628 242.721 80.875 242.213C80.4519 241.468 79.7579 241.113 78.793 241.146L77.3711 241.197ZM91.665 245.564L91.6396 256H88.9736V239.268H91.4619L98.165 249.779V239.369H100.806V255.619L98.3428 256.381C96.6501 253.266 94.4242 249.661 91.665 245.564ZM105.121 239.344H108.193V256H105.121V239.344ZM115.2 245.564L115.175 256H112.509V239.268H114.997L121.7 249.779V239.369H124.341V255.619L121.878 256.381C120.185 253.266 117.959 249.661 115.2 245.564ZM134.851 256.152C132.617 256.152 130.848 255.247 129.545 253.436C128.394 251.844 127.818 249.898 127.818 247.596C127.801 245.497 128.343 243.592 129.443 241.883C130.764 239.852 132.541 238.836 134.775 238.836C135.571 238.836 136.476 238.988 137.492 239.293C138.66 239.665 139.574 240.122 140.234 240.664L139.168 242.645C137.78 241.697 136.51 241.214 135.359 241.197C134.056 241.197 133.015 241.993 132.236 243.584C131.593 244.887 131.271 246.267 131.271 247.723C131.271 249.348 131.627 250.736 132.338 251.887C133.049 253.038 133.92 253.613 134.953 253.613C136.002 253.613 136.823 253.469 137.416 253.182V248.104H133.988V245.844H140.488V254.299C139.354 254.993 138.457 255.458 137.797 255.695C136.95 256 135.969 256.152 134.851 256.152ZM61.3502 276.17H60.7662V283H57.7701V266.344C58.244 266.344 59.1327 266.327 60.4361 266.293C61.384 266.276 62.1627 266.268 62.772 266.268C64.3462 266.268 65.5481 266.699 66.3775 267.562C67.2239 268.409 67.6386 269.585 67.6216 271.092C67.6047 272.294 67.2577 273.335 66.5806 274.215C65.9712 274.993 65.2011 275.527 64.2701 275.814C65.6412 277.727 67.6216 279.987 70.2115 282.594L66.3775 283.279C65.108 281.976 63.4322 279.606 61.3502 276.17ZM60.7662 268.197V274.342H61.8326C63.7453 274.342 64.7017 273.25 64.7017 271.066C64.7017 270.339 64.5578 269.721 64.2701 269.213C63.8469 268.468 63.1529 268.113 62.188 268.146L60.7662 268.197ZM71.5562 274.621C71.5562 272.201 72.2756 270.195 73.7144 268.604C75.1532 266.995 76.9813 266.191 79.1987 266.191C81.3993 266.191 83.1935 266.995 84.5816 268.604C85.9696 270.195 86.6636 272.201 86.6636 274.621C86.6636 277.38 85.9188 279.555 84.4292 281.146C83.0243 282.653 81.2215 283.406 79.021 283.406C76.8374 283.406 75.0685 282.653 73.7144 281.146C72.2756 279.555 71.5562 277.38 71.5562 274.621ZM74.8062 274.85C74.8062 276.525 75.204 277.981 75.9995 279.217C76.7951 280.452 77.8023 281.07 79.021 281.07C80.2567 281.07 81.3062 280.436 82.1695 279.166C82.9989 277.947 83.4136 276.525 83.4136 274.9C83.4136 273.174 83.0327 271.684 82.271 270.432C81.4754 269.128 80.4344 268.485 79.148 268.502C77.8615 268.502 76.8036 269.145 75.9741 270.432C75.1955 271.667 74.8062 273.14 74.8062 274.85ZM89.3286 274.621C89.3286 272.201 90.048 270.195 91.4868 268.604C92.9256 266.995 94.7537 266.191 96.9712 266.191C99.1717 266.191 100.966 266.995 102.354 268.604C103.742 270.195 104.436 272.201 104.436 274.621C104.436 277.38 103.691 279.555 102.202 281.146C100.797 282.653 98.994 283.406 96.7934 283.406C94.6098 283.406 92.841 282.653 91.4868 281.146C90.048 279.555 89.3286 277.38 89.3286 274.621ZM92.5786 274.85C92.5786 276.525 92.9764 277.981 93.772 279.217C94.5675 280.452 95.5747 281.07 96.7934 281.07C98.0291 281.07 99.0786 280.436 99.9419 279.166C100.771 277.947 101.186 276.525 101.186 274.9C101.186 273.174 100.805 271.684 100.043 270.432C99.2479 269.128 98.2069 268.485 96.9204 268.502C95.6339 268.502 94.576 269.145 93.7466 270.432C92.9679 271.667 92.5786 273.14 92.5786 274.85ZM121.548 271.904L117.587 283.025H114.896L110.91 271.803V283H108.167V266.318H112.103L116.648 278.582L121.269 266.318H124.951V283H121.548V271.904Z" fill="#8A9F3B"/>
<path d="M50.6725 75.2715V82H47.6764V65.3438L52.5514 65.2676C53.9732 65.2507 55.1751 65.7246 56.1568 66.6895C57.1555 67.6374 57.6549 68.8307 57.6549 70.2695C57.6549 71.6068 57.0709 72.7832 55.9029 73.7988C54.7519 74.8145 53.457 75.3223 52.0182 75.3223C51.815 75.3223 51.3665 75.3053 50.6725 75.2715ZM50.6725 67.1973V73.4941H51.5104C52.3736 73.4941 53.11 73.181 53.7193 72.5547C54.3456 71.9115 54.6588 71.1751 54.6588 70.3457C54.6588 68.3652 53.7109 67.2988 51.815 67.1465C51.6966 67.1296 51.5019 67.138 51.2311 67.1719C50.9771 67.1888 50.791 67.1973 50.6725 67.1973ZM69.2828 78.1406H63.9L62.7066 82.3047L60.0152 81.9492L65.4234 64.9883H68.064L73.523 81.8223L70.5015 82.3047L69.2828 78.1406ZM64.6109 75.7285H68.5718L66.6422 68.9746L64.6109 75.7285ZM79.5396 71.5645L79.5142 82H76.8482V65.2676H79.3364L86.0396 75.7793V65.3691H88.6802V81.6191L86.2173 82.3809C84.5246 79.2663 82.2987 75.6608 79.5396 71.5645ZM99.978 82H96.8804V67.502H92.1577V65.3945H104.447V67.502H99.978V82ZM111.53 75.1699H110.946V82H107.95V65.3438C108.424 65.3438 109.312 65.3268 110.616 65.293C111.564 65.276 112.342 65.2676 112.952 65.2676C114.526 65.2676 115.728 65.6992 116.557 66.5625C117.403 67.4089 117.818 68.5853 117.801 70.0918C117.784 71.2936 117.437 72.3346 116.76 73.2148C116.151 73.9935 115.381 74.5267 114.45 74.8145C115.821 76.7272 117.801 78.987 120.391 81.5938L116.557 82.2793C115.288 80.9759 113.612 78.6061 111.53 75.1699ZM110.946 67.1973V73.3418H112.012C113.925 73.3418 114.881 72.25 114.881 70.0664C114.881 69.3385 114.737 68.7207 114.45 68.2129C114.026 67.4681 113.332 67.1126 112.368 67.1465L110.946 67.1973ZM128.947 82H125.9V74.9414L121.177 65.8516L124.376 64.9883L127.728 72.3516L131.283 64.9883L133.669 65.8516L128.947 74.9414V82Z" fill="#8A9F3B"/>
</g>
<defs>
<filter id="filter0_g_194_367" x="0.665332" y="0.7" width="924.363" height="881.974" filterUnits="userSpaceOnUse" color-interpolation-filters="sRGB">
<feFlood flood-opacity="0" result="BackgroundImageFix"/>
<feBlend mode="normal" in="SourceGraphic" in2="BackgroundImageFix" result="shape"/>
<feTurbulence type="fractalNoise" baseFrequency="0.41493773460388184 0.41493773460388184" numOctaves="3" seed="4240" />
<feDisplacementMap in="shape" scale="2.5999999046325684" xChannelSelector="R" yChannelSelector="G" result="displacedImage" width="100%" height="100%" />
<feMerge result="effect1_texture_194_367">
<feMergeNode in="displacedImage"/>
</feMerge>
</filter>
</defs>
</svg>
