<svg width="1018" height="883" viewBox="0 0 1018 883" fill="none" xmlns="http://www.w3.org/2000/svg">
<g filter="url(#filter0_g_194_666)">
<rect x="5" y="4.51709" width="1008" height="823" rx="27" fill="#F6F0E5" stroke="#8A9F3B" stroke-width="6"/>
<path d="M607.232 614.447C641.162 612.88 668.19 584.876 668.19 550.559L668.19 548.475C668.19 514.158 641.162 486.154 607.232 484.587L607.232 614.447Z" stroke="#8A9F3B" stroke-width="6"/>
<path d="M430.958 614.447C397.028 612.88 370 584.876 370 550.559L370 548.475C370 514.158 397.028 486.154 430.958 484.587L430.958 614.447Z" stroke="#8A9F3B" stroke-width="6"/>
<path d="M932.001 485.517C929.041 485.517 926.73 482.961 927.026 480.017L927.83 472.017C927.863 471.685 927.863 471.35 927.83 471.017L927.026 463.017C926.73 460.073 929.041 457.517 932.001 457.517L977.672 457.517C980.715 457.517 983.052 460.212 982.622 463.224L981.539 470.81C981.472 471.279 981.472 471.755 981.539 472.224L982.622 479.81C983.052 482.822 980.715 485.517 977.672 485.517L932.001 485.517Z" fill="#F6F0E5"/>
<path d="M753.138 425.517H1013.7" stroke="#8A9F3B" stroke-width="6"/>
<path d="M6 142.267H176.89C178.547 142.267 179.89 140.924 179.89 139.267V5.26709" stroke="#8A9F3B" stroke-width="6"/>
<path d="M432.035 826.517V422.517" stroke="#8A9F3B" stroke-width="6"/>
<path d="M607.035 826.517V422.517" stroke="#8A9F3B" stroke-width="6"/>
<path d="M606.231 483.517L568.035 483.517C566.378 483.517 565.035 484.86 565.035 486.517L565.035 612.517C565.035 614.174 566.378 615.517 568.035 615.517L606.231 615.517" stroke="#8A9F3B" stroke-width="6"/>
<path d="M431.959 483.517L470.155 483.517C471.812 483.517 473.155 484.86 473.155 486.517L473.155 612.517C473.155 614.174 471.812 615.517 470.155 615.517L431.959 615.517" stroke="#8A9F3B" stroke-width="6"/>
<path d="M180 378.267V135.267" stroke="#8A9F3B" stroke-width="6"/>
<path d="M4 424.517L757 424.517" stroke="#8A9F3B" stroke-width="6"/>
<path d="M758.287 7.01709L758.287 424.517" stroke="#8A9F3B" stroke-width="6"/>
<path d="M428.996 679.517L607.882 679.517" stroke="#8A9F3B" stroke-width="6"/>
<path d="M428.28 735.517H608.166" stroke="#8A9F3B" stroke-width="6"/>
<path d="M473.967 679.517V735.517" stroke="#8A9F3B" stroke-width="6"/>
<path d="M518.654 679.517V735.517" stroke="#8A9F3B" stroke-width="6"/>
<path d="M563.626 679.517V735.517" stroke="#8A9F3B" stroke-width="6"/>
<path d="M623.37 826.017L691.344 878.517" stroke="#8A9F3B" stroke-width="6"/>
<path d="M769.598 627.789V634.517H766.602V617.861L771.477 617.785C772.899 617.768 774.1 618.242 775.082 619.207C776.081 620.154 776.58 621.348 776.58 622.787C776.58 624.124 775.996 625.3 774.828 626.316C773.677 627.332 772.382 627.839 770.943 627.839C770.74 627.839 770.292 627.822 769.598 627.789ZM769.598 619.714V626.011H770.436C771.299 626.011 772.035 625.698 772.645 625.072C773.271 624.429 773.584 623.692 773.584 622.863C773.584 620.882 772.636 619.816 770.74 619.664C770.622 619.647 770.427 619.655 770.156 619.689C769.902 619.706 769.716 619.714 769.598 619.714ZM788.208 630.658H782.825L781.632 634.822L778.94 634.466L784.349 617.505H786.989L792.448 634.339L789.427 634.822L788.208 630.658ZM783.536 628.246H787.497L785.567 621.492L783.536 628.246ZM799.354 627.687H798.77V634.517H795.773V617.861C796.247 617.861 797.136 617.844 798.439 617.81C799.387 617.793 800.166 617.785 800.775 617.785C802.35 617.785 803.551 618.216 804.381 619.08C805.227 619.926 805.642 621.102 805.625 622.609C805.608 623.811 805.261 624.852 804.584 625.732C803.975 626.511 803.204 627.044 802.273 627.332C803.645 629.244 805.625 631.504 808.215 634.111L804.381 634.796C803.111 633.493 801.436 631.123 799.354 627.687ZM798.77 619.714V625.859H799.836C801.749 625.859 802.705 624.767 802.705 622.583C802.705 621.856 802.561 621.238 802.273 620.73C801.85 619.985 801.156 619.63 800.191 619.664L798.77 619.714ZM810.372 617.861H813.394V632.308H820.122V634.517H810.372V617.861ZM823.625 626.138C823.625 623.718 824.344 621.712 825.783 620.121C827.222 618.513 829.05 617.708 831.268 617.708C833.468 617.708 835.262 618.513 836.65 620.121C838.038 621.712 838.732 623.718 838.732 626.138C838.732 628.897 837.988 631.072 836.498 632.664C835.093 634.17 833.29 634.923 831.09 634.923C828.906 634.923 827.137 634.17 825.783 632.664C824.344 631.072 823.625 628.897 823.625 626.138ZM826.875 626.367C826.875 628.042 827.273 629.498 828.068 630.734C828.864 631.97 829.871 632.587 831.09 632.587C832.325 632.587 833.375 631.953 834.238 630.683C835.068 629.464 835.482 628.042 835.482 626.417C835.482 624.691 835.102 623.201 834.34 621.949C833.544 620.645 832.503 620.002 831.217 620.019C829.93 620.019 828.872 620.662 828.043 621.949C827.264 623.184 826.875 624.657 826.875 626.367ZM845.79 627.687H845.206V634.517H842.21V617.861C842.684 617.861 843.572 617.844 844.876 617.81C845.824 617.793 846.602 617.785 847.212 617.785C848.786 617.785 849.988 618.216 850.817 619.08C851.664 619.926 852.078 621.102 852.061 622.609C852.044 623.811 851.697 624.852 851.02 625.732C850.411 626.511 849.641 627.044 848.71 627.332C850.081 629.244 852.061 631.504 854.651 634.111L850.817 634.796C849.548 633.493 847.872 631.123 845.79 627.687ZM845.206 619.714V625.859H846.272C848.185 625.859 849.141 624.767 849.141 622.583C849.141 621.856 848.998 621.238 848.71 620.73C848.287 619.985 847.593 619.63 846.628 619.664L845.206 619.714Z" fill="#8A9F3B"/>
<path d="M144.074 617.861H147.096V632.308H153.824V634.517H144.074V617.861ZM158.14 617.861H161.212V634.517H158.14V617.861ZM169.768 634.771L164.08 618.242L167.305 617.429L171.317 629.667L175.074 617.404L177.766 618.267L172.053 634.771H169.768ZM180.659 617.861H183.732V634.517H180.659V617.861ZM190.738 624.082L190.713 634.517H188.047V617.785H190.535L197.238 628.296V617.886H199.879V634.136L197.416 634.898C195.723 631.783 193.497 628.178 190.738 624.082ZM210.39 634.669C208.155 634.669 206.386 633.764 205.083 631.953C203.932 630.361 203.356 628.415 203.356 626.113C203.34 624.014 203.881 622.11 204.981 620.4C206.302 618.369 208.079 617.353 210.313 617.353C211.109 617.353 212.015 617.505 213.03 617.81C214.198 618.182 215.112 618.639 215.772 619.181L214.706 621.162C213.318 620.214 212.049 619.731 210.897 619.714C209.594 619.714 208.553 620.51 207.774 622.101C207.131 623.404 206.81 624.784 206.81 626.24C206.81 627.865 207.165 629.253 207.876 630.404C208.587 631.555 209.459 632.13 210.491 632.13C211.541 632.13 212.362 631.986 212.954 631.699V626.621H209.526V624.361H216.026V632.816C214.892 633.51 213.995 633.975 213.335 634.212C212.489 634.517 211.507 634.669 210.39 634.669ZM232.046 627.687H231.462V634.517H228.466V617.861C228.94 617.861 229.828 617.844 231.132 617.81C232.08 617.793 232.858 617.785 233.468 617.785C235.042 617.785 236.244 618.216 237.073 619.08C237.92 619.926 238.334 621.102 238.317 622.609C238.3 623.811 237.953 624.852 237.276 625.732C236.667 626.511 235.897 627.044 234.966 627.332C236.337 629.244 238.317 631.504 240.907 634.111L237.073 634.796C235.804 633.493 234.128 631.123 232.046 627.687ZM231.462 619.714V625.859H232.528C234.441 625.859 235.397 624.767 235.397 622.583C235.397 621.856 235.254 621.238 234.966 620.73C234.543 619.985 233.849 619.63 232.884 619.664L231.462 619.714ZM242.252 626.138C242.252 623.718 242.971 621.712 244.41 620.121C245.849 618.513 247.677 617.708 249.894 617.708C252.095 617.708 253.889 618.513 255.277 620.121C256.665 621.712 257.359 623.718 257.359 626.138C257.359 628.897 256.614 631.072 255.125 632.664C253.72 634.17 251.917 634.923 249.717 634.923C247.533 634.923 245.764 634.17 244.41 632.664C242.971 631.072 242.252 628.897 242.252 626.138ZM245.502 626.367C245.502 628.042 245.9 629.498 246.695 630.734C247.491 631.97 248.498 632.587 249.717 632.587C250.952 632.587 252.002 631.953 252.865 630.683C253.695 629.464 254.109 628.042 254.109 626.417C254.109 624.691 253.728 623.201 252.967 621.949C252.171 620.645 251.13 620.002 249.844 620.019C248.557 620.019 247.499 620.662 246.67 621.949C245.891 623.184 245.502 624.657 245.502 626.367ZM260.024 626.138C260.024 623.718 260.744 621.712 262.182 620.121C263.621 618.513 265.449 617.708 267.667 617.708C269.867 617.708 271.662 618.513 273.05 620.121C274.438 621.712 275.132 623.718 275.132 626.138C275.132 628.897 274.387 631.072 272.897 632.664C271.492 634.17 269.69 634.923 267.489 634.923C265.306 634.923 263.537 634.17 262.182 632.664C260.744 631.072 260.024 628.897 260.024 626.138ZM263.274 626.367C263.274 628.042 263.672 629.498 264.468 630.734C265.263 631.97 266.27 632.587 267.489 632.587C268.725 632.587 269.774 631.953 270.638 630.683C271.467 629.464 271.882 628.042 271.882 626.417C271.882 624.691 271.501 623.201 270.739 621.949C269.944 620.645 268.903 620.002 267.616 620.019C266.33 620.019 265.272 620.662 264.442 621.949C263.664 623.184 263.274 624.657 263.274 626.367ZM292.244 623.421L288.283 634.542H285.592L281.605 623.32V634.517H278.863V617.835H282.799L287.344 630.099L291.965 617.835H295.646V634.517H292.244V623.421Z" fill="#8A9F3B"/>
<path d="M470.162 651.96C470.162 649.709 470.755 647.771 471.94 646.146C473.311 644.284 475.164 643.353 477.5 643.353C478.973 643.353 480.674 643.954 482.604 645.156L481.512 647.187C480.412 646.544 479.853 646.205 479.836 646.171C479.21 645.884 478.567 645.731 477.906 645.714C476.518 645.714 475.427 646.501 474.631 648.076C473.988 649.328 473.666 650.716 473.666 652.24C473.666 653.882 474.089 655.27 474.936 656.404C475.731 657.47 476.696 658.012 477.83 658.029C478.44 658.029 479.015 657.919 479.557 657.699C479.98 657.546 480.649 657.208 481.563 656.683L482.781 658.714C481.63 659.459 480.733 659.967 480.09 660.238C479.261 660.559 478.346 660.72 477.348 660.72C474.995 660.72 473.167 659.806 471.863 657.978C470.729 656.353 470.162 654.347 470.162 651.96ZM495.298 652.671H489.585V660.517H486.513V643.886H489.585V650.361H495.298V643.886H498.345V660.517H495.298V652.671ZM502.66 643.861H505.732V660.517H502.66V643.861ZM523.683 649.421L519.722 660.542H517.03L513.044 649.32V660.517H510.302V643.835H514.237L518.782 656.099L523.403 643.835H527.085V660.517H523.683V649.421ZM534.396 650.082L534.371 660.517H531.705V643.785H534.193L540.896 654.296V643.886H543.537V660.136L541.074 660.898C539.381 657.783 537.156 654.178 534.396 650.082ZM550.849 650.361H556.765V652.671L550.849 652.646V658.207H557.095V660.517H547.852V643.886H557.171V646.095H550.849V650.361ZM567.301 660.517H564.254V653.458L559.531 644.369L562.73 643.505L566.082 650.869L569.637 643.505L572.023 644.369L567.301 653.458V660.517Z" fill="#8A9F3B"/>
<path d="M482.806 780.384L484.203 778.378C485.235 779.597 486.42 780.207 487.757 780.207C489.586 780.207 490.491 779.318 490.474 777.541C490.474 776.643 489.839 775.932 488.57 775.408C486.505 774.544 485.354 774.028 485.117 773.859C483.864 772.996 483.246 771.667 483.263 769.873C483.28 768.451 483.847 767.291 484.964 766.394C485.912 765.632 486.945 765.251 488.062 765.251C489.856 765.251 491.49 765.869 492.963 767.105L491.921 769.289C490.737 768.171 489.619 767.613 488.57 767.613C487.859 767.613 487.334 767.757 486.996 768.044C486.573 768.383 486.369 769.001 486.386 769.898C486.386 770.694 486.996 771.337 488.214 771.828C490.11 772.589 491.244 773.114 491.617 773.402C492.852 774.316 493.462 775.679 493.445 777.49C493.445 779.267 492.869 780.63 491.718 781.578C490.72 782.373 489.467 782.771 487.961 782.771C485.658 782.771 483.94 781.975 482.806 780.384ZM503.626 782.517H500.528V768.019H495.805V765.912H508.094V768.019H503.626V782.517ZM519.824 778.658H514.441L513.248 782.822L510.556 782.466L515.964 765.505H518.605L524.064 782.339L521.043 782.822L519.824 778.658ZM515.152 776.246H519.113L517.183 769.492L515.152 776.246ZM527.389 765.861H530.461V782.517H527.389V765.861ZM538.357 775.687H537.773V782.517H534.777V765.861C535.251 765.861 536.139 765.844 537.443 765.81C538.391 765.793 539.169 765.785 539.779 765.785C541.353 765.785 542.555 766.216 543.384 767.08C544.231 767.926 544.645 769.102 544.628 770.609C544.611 771.811 544.264 772.852 543.587 773.732C542.978 774.511 542.208 775.044 541.277 775.332C542.648 777.244 544.628 779.504 547.218 782.111L543.384 782.796C542.115 781.493 540.439 779.123 538.357 775.687ZM537.773 767.714V773.859H538.839C540.752 773.859 541.708 772.767 541.708 770.583C541.708 769.856 541.565 769.238 541.277 768.73C540.854 767.985 540.16 767.63 539.195 767.664L537.773 767.714ZM548.36 780.384L549.756 778.378C550.789 779.597 551.974 780.207 553.311 780.207C555.139 780.207 556.045 779.318 556.028 777.541C556.028 776.643 555.393 775.932 554.123 775.408C552.058 774.544 550.907 774.028 550.67 773.859C549.418 772.996 548.8 771.667 548.817 769.873C548.834 768.451 549.401 767.291 550.518 766.394C551.466 765.632 552.498 765.251 553.616 765.251C555.41 765.251 557.043 765.869 558.516 767.105L557.475 769.289C556.29 768.171 555.173 767.613 554.123 767.613C553.412 767.613 552.888 767.757 552.549 768.044C552.126 768.383 551.923 769.001 551.94 769.898C551.94 770.694 552.549 771.337 553.768 771.828C555.664 772.589 556.798 773.114 557.17 773.402C558.406 774.316 559.015 775.679 558.998 777.49C558.998 779.267 558.423 780.63 557.272 781.578C556.273 782.373 555.021 782.771 553.514 782.771C551.212 782.771 549.494 781.975 548.36 780.384Z" fill="#8A9F3B"/>
<path d="M839.399 205.658H834.016L832.823 209.822L830.131 209.466L835.54 192.505H838.18L843.639 209.339L840.618 209.822L839.399 205.658ZM834.727 203.246H838.688L836.758 196.492L834.727 203.246ZM853.16 209.669C850.925 209.669 849.157 208.764 847.853 206.953C846.702 205.361 846.127 203.415 846.127 201.113C846.11 199.014 846.651 197.11 847.752 195.4C849.072 193.369 850.849 192.353 853.084 192.353C853.879 192.353 854.785 192.505 855.8 192.81C856.968 193.182 857.882 193.639 858.543 194.181L857.476 196.162C856.088 195.214 854.819 194.731 853.668 194.714C852.364 194.714 851.323 195.51 850.545 197.101C849.901 198.404 849.58 199.784 849.58 201.24C849.58 202.865 849.935 204.253 850.646 205.404C851.357 206.555 852.229 207.13 853.261 207.13C854.311 207.13 855.132 206.986 855.724 206.699V201.621H852.296V199.361H858.796V207.816C857.662 208.51 856.765 208.975 856.105 209.212C855.259 209.517 854.277 209.669 853.16 209.669ZM871.338 205.658H865.956L864.762 209.822L862.071 209.466L867.479 192.505H870.12L875.579 209.339L872.557 209.822L871.338 205.658ZM866.667 203.246H870.628L868.698 196.492L866.667 203.246ZM885.886 209.517H882.789V195.019H878.066V192.912H890.355V195.019H885.886V209.517ZM902.643 201.671H896.93V209.517H893.858V192.886H896.93V199.361H902.643V192.886H905.69V209.517H902.643V201.671ZM918.232 205.658H912.849L911.656 209.822L908.964 209.466L914.372 192.505H917.013L922.472 209.339L919.451 209.822L918.232 205.658ZM913.56 203.246H917.521L915.591 196.492L913.56 203.246ZM925.899 196.695L924.172 196.365C924.494 195.654 924.722 194.85 924.858 193.953C924.875 193.783 924.917 193.039 924.985 191.718H927.702C927.702 192.345 927.498 193.199 927.092 194.283C926.72 195.298 926.322 196.102 925.899 196.695ZM929.402 207.384L930.798 205.378C931.831 206.597 933.016 207.207 934.353 207.207C936.181 207.207 937.087 206.318 937.07 204.541C937.07 203.643 936.435 202.932 935.165 202.408C933.1 201.544 931.949 201.028 931.712 200.859C930.46 199.996 929.842 198.667 929.859 196.873C929.876 195.451 930.443 194.291 931.56 193.394C932.508 192.632 933.54 192.251 934.658 192.251C936.452 192.251 938.085 192.869 939.558 194.105L938.517 196.289C937.332 195.171 936.215 194.613 935.165 194.613C934.454 194.613 933.93 194.757 933.591 195.044C933.168 195.383 932.965 196.001 932.982 196.898C932.982 197.694 933.591 198.337 934.81 198.828C936.706 199.589 937.84 200.114 938.212 200.402C939.448 201.316 940.057 202.679 940.04 204.49C940.04 206.267 939.465 207.63 938.314 208.578C937.315 209.373 936.063 209.771 934.556 209.771C932.254 209.771 930.536 208.975 929.402 207.384ZM854.885 229.687H854.301V236.517H851.305V219.861C851.779 219.861 852.668 219.844 853.971 219.81C854.919 219.793 855.698 219.785 856.307 219.785C857.881 219.785 859.083 220.216 859.913 221.08C860.759 221.926 861.174 223.102 861.157 224.609C861.14 225.811 860.793 226.852 860.116 227.732C859.506 228.511 858.736 229.044 857.805 229.332C859.176 231.244 861.157 233.504 863.747 236.111L859.913 236.796C858.643 235.493 856.967 233.123 854.885 229.687ZM854.301 221.714V227.859H855.368C857.28 227.859 858.237 226.767 858.237 224.583C858.237 223.856 858.093 223.238 857.805 222.73C857.382 221.985 856.688 221.63 855.723 221.664L854.301 221.714ZM865.091 228.138C865.091 225.718 865.811 223.712 867.25 222.121C868.688 220.513 870.516 219.708 872.734 219.708C874.934 219.708 876.729 220.513 878.117 222.121C879.505 223.712 880.199 225.718 880.199 228.138C880.199 230.897 879.454 233.072 877.964 234.664C876.559 236.17 874.757 236.923 872.556 236.923C870.373 236.923 868.604 236.17 867.25 234.664C865.811 233.072 865.091 230.897 865.091 228.138ZM868.341 228.367C868.341 230.042 868.739 231.498 869.535 232.734C870.33 233.97 871.337 234.587 872.556 234.587C873.792 234.587 874.841 233.953 875.705 232.683C876.534 231.464 876.949 230.042 876.949 228.417C876.949 226.691 876.568 225.201 875.806 223.949C875.011 222.645 873.97 222.002 872.683 222.019C871.397 222.019 870.339 222.662 869.509 223.949C868.731 225.184 868.341 226.657 868.341 228.367ZM882.864 228.138C882.864 225.718 883.583 223.712 885.022 222.121C886.461 220.513 888.289 219.708 890.506 219.708C892.707 219.708 894.501 220.513 895.889 222.121C897.277 223.712 897.971 225.718 897.971 228.138C897.971 230.897 897.226 233.072 895.737 234.664C894.332 236.17 892.529 236.923 890.329 236.923C888.145 236.923 886.376 236.17 885.022 234.664C883.583 233.072 882.864 230.897 882.864 228.138ZM886.114 228.367C886.114 230.042 886.512 231.498 887.307 232.734C888.103 233.97 889.11 234.587 890.329 234.587C891.564 234.587 892.614 233.953 893.477 232.683C894.306 231.464 894.721 230.042 894.721 228.417C894.721 226.691 894.34 225.201 893.579 223.949C892.783 222.645 891.742 222.002 890.456 222.019C889.169 222.019 888.111 222.662 887.282 223.949C886.503 225.184 886.114 226.657 886.114 228.367ZM915.083 225.421L911.122 236.542H908.431L904.445 225.32V236.517H901.703V219.835H905.638L910.183 232.099L914.804 219.835H918.486V236.517H915.083V225.421Z" fill="#8A9F3B"/>
<path d="M426.466 215.89L425.577 217.16V222.517H422.505V205.861H425.577V213.402L430.808 205.023L433.55 206.394C432.162 208.307 430.359 210.82 428.142 213.935C428.768 214.968 429.826 216.364 431.316 218.125C432.534 219.529 433.745 220.926 434.946 222.314L431.316 223.126C429.606 220.791 427.989 218.378 426.466 215.89ZM437.637 205.861H440.709V222.517H437.637V205.861ZM452.007 222.517H448.909V208.019H444.187V205.912H456.476V208.019H452.007V222.517ZM459.141 213.96C459.141 211.709 459.733 209.771 460.918 208.146C462.289 206.284 464.143 205.353 466.479 205.353C467.951 205.353 469.652 205.954 471.582 207.156L470.49 209.187C469.39 208.544 468.831 208.205 468.814 208.171C468.188 207.884 467.545 207.731 466.885 207.714C465.497 207.714 464.405 208.501 463.609 210.076C462.966 211.328 462.645 212.716 462.645 214.24C462.645 215.882 463.068 217.27 463.914 218.404C464.71 219.47 465.674 220.012 466.809 220.029C467.418 220.029 467.993 219.919 468.535 219.699C468.958 219.546 469.627 219.208 470.541 218.683L471.76 220.714C470.609 221.459 469.712 221.967 469.068 222.238C468.239 222.559 467.325 222.72 466.326 222.72C463.973 222.72 462.145 221.806 460.842 219.978C459.708 218.353 459.141 216.347 459.141 213.96ZM484.276 214.671H478.563V222.517H475.491V205.886H478.563V212.361H484.276V205.886H487.323V222.517H484.276V214.671ZM494.635 212.361H500.551V214.671L494.635 214.646V220.207H500.881V222.517H491.639V205.886H500.957V208.095H494.635V212.361ZM507.38 212.082L507.354 222.517H504.688V205.785H507.177L513.88 216.296V205.886H516.52V222.136L514.057 222.898C512.365 219.783 510.139 216.178 507.38 212.082Z" fill="#8A9F3B"/>
<path d="M46.0572 255.466V238.861C46.1927 238.861 47.0052 238.844 48.4947 238.81C49.595 238.776 50.4583 238.759 51.0846 238.759C52.4726 238.759 53.5644 239.132 54.36 239.876C55.1725 240.604 55.5787 241.637 55.5787 242.974C55.5787 243.651 55.3587 244.303 54.9186 244.929C54.4954 245.539 53.9368 246.029 53.2428 246.402C54.1399 246.47 54.927 246.91 55.6041 247.722C56.2981 248.535 56.6451 249.466 56.6451 250.515C56.6451 252.513 55.9342 253.909 54.5123 254.705C53.4798 255.28 51.9309 255.568 49.8658 255.568C49.3919 255.568 48.7148 255.551 47.8346 255.517C46.9713 255.483 46.3789 255.466 46.0572 255.466ZM49.1041 240.714V245.64H50.2467C51.0253 245.64 51.6516 245.395 52.1256 244.904C52.5488 244.447 52.7604 243.888 52.7604 243.228C52.7434 241.535 52.024 240.681 50.6022 240.664C50.2298 240.664 49.7304 240.681 49.1041 240.714ZM49.1041 247.621V253.41H50.8561C51.7871 253.41 52.498 253.13 52.9889 252.572C53.4628 252.064 53.6998 251.37 53.6998 250.49C53.6998 249.762 53.4544 249.119 52.9635 248.56C52.4049 247.934 51.6855 247.621 50.8053 247.621H49.1041ZM59.3101 247.138C59.3101 244.718 60.0295 242.712 61.4683 241.121C62.9071 239.513 64.7353 238.708 66.9527 238.708C69.1532 238.708 70.9475 239.513 72.3355 241.121C73.7236 242.712 74.4176 244.718 74.4176 247.138C74.4176 249.897 73.6728 252.072 72.1832 253.664C70.7782 255.17 68.9755 255.923 66.775 255.923C64.5914 255.923 62.8225 255.17 61.4683 253.664C60.0295 252.072 59.3101 249.897 59.3101 247.138ZM62.5601 247.367C62.5601 249.042 62.9579 250.498 63.7535 251.734C64.5491 252.97 65.5562 253.587 66.775 253.587C68.0107 253.587 69.0601 252.953 69.9234 251.683C70.7528 250.464 71.1676 249.042 71.1676 247.417C71.1676 245.691 70.7867 244.201 70.025 242.949C69.2294 241.645 68.1884 241.002 66.9019 241.019C65.6155 241.019 64.5575 241.662 63.7281 242.949C62.9495 244.184 62.5601 245.657 62.5601 247.367ZM81.4751 248.687H80.8912V255.517H77.8951V238.861C78.369 238.861 79.2577 238.844 80.5611 238.81C81.509 238.793 82.2876 238.785 82.897 238.785C84.4712 238.785 85.6731 239.216 86.5025 240.08C87.3488 240.926 87.7635 242.102 87.7466 243.609C87.7297 244.811 87.3827 245.852 86.7056 246.732C86.0962 247.511 85.326 248.044 84.3951 248.332C85.7662 250.244 87.7466 252.504 90.3365 255.111L86.5025 255.796C85.2329 254.493 83.5572 252.123 81.4751 248.687ZM80.8912 240.714V246.859H81.9576C83.8703 246.859 84.8267 245.767 84.8267 243.583C84.8267 242.856 84.6828 242.238 84.3951 241.73C83.9719 240.985 83.2779 240.63 82.313 240.664L80.8912 240.714ZM95.1851 245.082L95.1597 255.517H92.4937V238.785H94.9819L101.685 249.296V238.886H104.326V255.136L101.863 255.898C100.17 252.783 97.9442 249.178 95.1851 245.082ZM108.641 238.861H111.713V255.517H108.641V238.861ZM118.72 245.082L118.695 255.517H116.029V238.785H118.517L125.22 249.296V238.886H127.861V255.136L125.398 255.898C123.705 252.783 121.479 249.178 118.72 245.082ZM138.371 255.669C136.137 255.669 134.368 254.764 133.065 252.953C131.914 251.361 131.338 249.415 131.338 247.113C131.321 245.014 131.863 243.11 132.963 241.4C134.284 239.369 136.061 238.353 138.295 238.353C139.091 238.353 139.996 238.505 141.012 238.81C142.18 239.182 143.094 239.639 143.754 240.181L142.688 242.162C141.3 241.214 140.03 240.731 138.879 240.714C137.576 240.714 136.535 241.51 135.756 243.101C135.113 244.404 134.791 245.784 134.791 247.24C134.791 248.865 135.147 250.253 135.858 251.404C136.569 252.555 137.44 253.13 138.473 253.13C139.523 253.13 140.343 252.986 140.936 252.699V247.621H137.508V245.361H144.008V253.816C142.874 254.51 141.977 254.975 141.317 255.212C140.47 255.517 139.489 255.669 138.371 255.669ZM64.8702 275.687H64.2862V282.517H61.2901V265.861C61.7641 265.861 62.6527 265.844 63.9561 265.81C64.904 265.793 65.6827 265.785 66.292 265.785C67.8663 265.785 69.0681 266.216 69.8975 267.08C70.7439 267.926 71.1586 269.102 71.1417 270.609C71.1247 271.811 70.7777 272.852 70.1006 273.732C69.4913 274.511 68.7211 275.044 67.7901 275.332C69.1612 277.244 71.1417 279.504 73.7315 282.111L69.8975 282.796C68.628 281.493 66.9522 279.123 64.8702 275.687ZM64.2862 267.714V273.859H65.3526C67.2654 273.859 68.2217 272.767 68.2217 270.583C68.2217 269.856 68.0779 269.238 67.7901 268.73C67.3669 267.985 66.6729 267.63 65.7081 267.664L64.2862 267.714ZM75.0762 274.138C75.0762 271.718 75.7956 269.712 77.2344 268.121C78.6732 266.513 80.5013 265.708 82.7188 265.708C84.9193 265.708 86.7136 266.513 88.1016 268.121C89.4896 269.712 90.1836 271.718 90.1836 274.138C90.1836 276.897 89.4388 279.072 87.9492 280.664C86.5443 282.17 84.7416 282.923 82.541 282.923C80.3574 282.923 78.5886 282.17 77.2344 280.664C75.7956 279.072 75.0762 276.897 75.0762 274.138ZM78.3262 274.367C78.3262 276.042 78.724 277.498 79.5196 278.734C80.3151 279.97 81.3223 280.587 82.541 280.587C83.7767 280.587 84.8262 279.953 85.6895 278.683C86.5189 277.464 86.9336 276.042 86.9336 274.417C86.9336 272.691 86.5528 271.201 85.791 269.949C84.9955 268.645 83.9544 268.002 82.668 268.019C81.3815 268.019 80.3236 268.662 79.4942 269.949C78.7155 271.184 78.3262 272.657 78.3262 274.367ZM92.8486 274.138C92.8486 271.718 93.568 269.712 95.0068 268.121C96.4456 266.513 98.2737 265.708 100.491 265.708C102.692 265.708 104.486 266.513 105.874 268.121C107.262 269.712 107.956 271.718 107.956 274.138C107.956 276.897 107.211 279.072 105.722 280.664C104.317 282.17 102.514 282.923 100.313 282.923C98.1299 282.923 96.361 282.17 95.0068 280.664C93.568 279.072 92.8486 276.897 92.8486 274.138ZM96.0986 274.367C96.0986 276.042 96.4964 277.498 97.292 278.734C98.0875 279.97 99.0947 280.587 100.313 280.587C101.549 280.587 102.599 279.953 103.462 278.683C104.291 277.464 104.706 276.042 104.706 274.417C104.706 272.691 104.325 271.201 103.563 269.949C102.768 268.645 101.727 268.002 100.44 268.019C99.154 268.019 98.096 268.662 97.2666 269.949C96.4879 271.184 96.0986 272.657 96.0986 274.367ZM125.068 271.421L121.107 282.542H118.416L114.43 271.32V282.517H111.687V265.835H115.623L120.168 278.099L124.789 265.835H128.471V282.517H125.068V271.421Z" fill="#8A9F3B"/>
<path d="M54.1925 74.7886V81.5171H51.1964V64.8608L56.0714 64.7847C57.4933 64.7677 58.6951 65.2417 59.6769 66.2065C60.6756 67.1545 61.1749 68.3478 61.1749 69.7866C61.1749 71.1239 60.5909 72.3003 59.423 73.3159C58.2719 74.3315 56.977 74.8394 55.5382 74.8394C55.3351 74.8394 54.8865 74.8224 54.1925 74.7886ZM54.1925 66.7144V73.0112H55.0304C55.8937 73.0112 56.63 72.6981 57.2394 72.0718C57.8657 71.4285 58.1788 70.6922 58.1788 69.8628C58.1788 67.8823 57.2309 66.8159 55.3351 66.6636C55.2166 66.6466 55.0219 66.6551 54.7511 66.689C54.4972 66.7059 54.311 66.7144 54.1925 66.7144ZM72.8028 77.6577H67.42L66.2266 81.8218L63.5352 81.4663L68.9434 64.5054H71.584L77.043 81.3394L74.0215 81.8218L72.8028 77.6577ZM68.1309 75.2456H72.0919L70.1622 68.4917L68.1309 75.2456ZM83.0596 71.0815L83.0342 81.5171H80.3682V64.7847H82.8565L89.5596 75.2964V64.8862H92.2002V81.1362L89.7373 81.8979C88.0446 78.7834 85.8187 75.1779 83.0596 71.0815ZM103.498 81.5171H100.4V67.019H95.6777V64.9116H107.967V67.019H103.498V81.5171ZM115.05 74.687H114.466V81.5171H111.47V64.8608C111.944 64.8608 112.832 64.8439 114.136 64.8101C115.084 64.7931 115.862 64.7847 116.472 64.7847C118.046 64.7847 119.248 65.2163 120.077 66.0796C120.923 66.9259 121.338 68.1024 121.321 69.6089C121.304 70.8107 120.957 71.8517 120.28 72.7319C119.671 73.5106 118.901 74.0438 117.97 74.3315C119.341 76.2443 121.321 78.5041 123.911 81.1108L120.077 81.7964C118.808 80.493 117.132 78.1232 115.05 74.687ZM114.466 66.7144V72.8589H115.532C117.445 72.8589 118.401 71.7671 118.401 69.5835C118.401 68.8556 118.257 68.2378 117.97 67.73C117.546 66.9852 116.852 66.6297 115.888 66.6636L114.466 66.7144ZM132.467 81.5171H129.42V74.4585L124.697 65.3687L127.896 64.5054L131.248 71.8687L134.803 64.5054L137.189 65.3687L132.467 74.4585V81.5171Z" fill="#8A9F3B"/>
</g>
<defs>
<filter id="filter0_g_194_666" x="0.7" y="0.21709" width="1016.6" height="881.974" filterUnits="userSpaceOnUse" color-interpolation-filters="sRGB">
<feFlood flood-opacity="0" result="BackgroundImageFix"/>
<feBlend mode="normal" in="SourceGraphic" in2="BackgroundImageFix" result="shape"/>
<feTurbulence type="fractalNoise" baseFrequency="0.41493773460388184 0.41493773460388184" numOctaves="3" seed="4240" />
<feDisplacementMap in="shape" scale="2.5999999046325684" xChannelSelector="R" yChannelSelector="G" result="displacedImage" width="100%" height="100%" />
<feMerge result="effect1_texture_194_666">
<feMergeNode in="displacedImage"/>
</feMerge>
</filter>
</defs>
</svg>
