<svg width="509" height="850" viewBox="0 0 509 850" fill="none" xmlns="http://www.w3.org/2000/svg">
<g filter="url(#filter0_g_72_793)">
<path d="M95.2207 280.216L59.1616 43.0996" stroke="#1A1A1A" stroke-width="17.4832" stroke-linecap="round"/>
<circle cx="56.4298" cy="28.8946" r="17.4832" fill="#1A1A1A"/>
</g>
<g filter="url(#filter1_g_72_793)">
<path d="M22.9466 340.94C22.9466 331.503 27.1117 322.548 34.3285 316.468L169.395 202.673C178.886 194.677 192.143 192.89 203.413 198.086L462.346 317.48C473.684 322.709 480.947 334.054 480.947 346.54V815.186C480.947 832.859 466.62 847.186 448.947 847.186H54.9466C37.2735 847.186 22.9466 832.859 22.9466 815.186V340.94Z" fill="#BDA73A"/>
<g filter="url(#filter2_g_72_793)">
<path d="M326.923 164.432L176.947 157.936L317.947 369.956H493.43C498.458 369.956 501.256 364.144 498.12 360.214L352.137 177.25C345.981 169.534 336.786 164.86 326.923 164.432Z" fill="#BDA73A"/>
<path d="M326.923 164.432L176.947 157.936L317.947 369.956H493.43C498.458 369.956 501.256 364.144 498.12 360.214L352.137 177.25C345.981 169.534 336.786 164.86 326.923 164.432Z" stroke="#BDA73A" stroke-width="12.5804" stroke-linecap="round"/>
</g>
<path d="M322.284 353.272L177.671 181.556C176.229 179.844 173.59 179.852 172.159 181.572L29.284 353.272" stroke="#BDA73A" stroke-width="55.7133" stroke-linecap="round"/>
<g filter="url(#filter3_g_72_793)">
<path d="M337.284 391.272L177.284 197.616C175.849 195.879 173.188 195.875 171.748 197.608L29.284 369.015" stroke="#1A1A1A" stroke-width="30" stroke-linecap="round"/>
</g>
<g style="mix-blend-mode:multiply" opacity="0.4" filter="url(#filter4_g_72_793)">
<path d="M258.43 204.659L274.605 226.133" stroke="#BDA73A" stroke-width="21.5664" stroke-linecap="round"/>
</g>
<g style="mix-blend-mode:multiply" opacity="0.4" filter="url(#filter5_g_72_793)">
<path d="M313.244 250.084L325.825 267.428" stroke="#BDA73A" stroke-width="21.5664" stroke-linecap="round"/>
</g>
<g style="mix-blend-mode:multiply" opacity="0.4" filter="url(#filter6_g_72_793)">
<path d="M324.028 207.137L336.609 225.307" stroke="#BDA73A" stroke-width="21.5664" stroke-linecap="round"/>
</g>
<path d="M327.947 377.105H484.947V816.105C484.947 833.778 470.62 848.105 452.947 848.105H327.947V377.105Z" fill="#1A1A1A"/>
<g filter="url(#filter7_g_72_793)">
<path d="M83.7336 426.49L100.352 395.144C107.654 381.37 115.619 366.964 129.422 359.717C148.381 349.765 168.45 352.965 178.095 356.943L144.534 446.33L84.3791 428.043C83.7237 427.843 83.4128 427.096 83.7336 426.49Z" fill="#F6F0E5" stroke="#F6F0E5" stroke-width="18.5138" stroke-linecap="round"/>
<path d="M268.444 426.49L251.826 395.144C244.524 381.37 236.559 366.964 222.756 359.717C203.796 349.765 183.727 352.965 174.082 356.943L207.644 446.33L267.799 428.043C268.454 427.843 268.765 427.096 268.444 426.49Z" fill="#F6F0E5" stroke="#F6F0E5" stroke-width="18.5138" stroke-linecap="round"/>
<circle cx="156.536" cy="409.848" r="31.1979" transform="rotate(30 156.536 409.848)" fill="#BD9ADA"/>
<path d="M165.962 643.879H117.587L107.154 770.208H165.962V643.879Z" fill="#E8B2AB"/>
<path d="M185.565 643.879H233.94L244.374 770.208H185.565V643.879Z" fill="#E8B2AB"/>
<path d="M166.763 738.475C166.763 736.671 165.301 735.208 163.496 735.208H108.447C106.738 735.208 105.318 736.525 105.189 738.228L102.763 770.208H166.763V738.475Z" fill="#F6F0E5"/>
<path d="M184.763 738.475C184.763 736.671 186.226 735.208 188.031 735.208H242.165C243.838 735.208 245.24 736.472 245.414 738.136L248.763 770.208H184.763V738.475Z" fill="#F6F0E5"/>
<path d="M104.807 415.105H249.086L252.953 424.48C261.528 445.269 246.245 468.105 223.757 468.105H130.136C107.648 468.105 92.3654 445.269 100.94 424.48L104.807 415.105Z" fill="#1A1A1A"/>
<path d="M124.308 500.126C124.308 500.126 105.169 524.462 82.5941 587.467" stroke="#1A1A1A" stroke-width="42.4729" stroke-linejoin="round"/>
<ellipse cx="26.6817" cy="27.2262" rx="26.6817" ry="27.2262" transform="matrix(0.0872418 -0.996187 -0.996187 -0.0872418 99.2482 647.339)" fill="#E8B2AB"/>
<path d="M107.77 594.807C108.436 593.216 107.407 591.429 105.698 591.204V591.204C91.9339 589.396 78.8411 584.171 67.6136 576.006L65.1462 574.211C63.5841 573.075 61.3708 573.695 60.6254 575.477L53.4834 592.549C52.3126 595.347 52.9382 598.575 55.0696 600.734L56.6775 602.362C66.5531 612.364 80.2131 617.699 94.2531 617.037V617.037C96.8809 616.913 99.2026 615.287 100.218 612.861L107.77 594.807Z" fill="#F6F0E5"/>
<path d="M225.793 500.126C225.793 500.126 244.932 524.462 267.508 587.467" stroke="#1A1A1A" stroke-width="42.4729" stroke-linejoin="round"/>
<ellipse cx="275.648" cy="618.384" rx="26.6817" ry="27.2262" transform="rotate(-95.0049 275.648 618.384)" fill="#E8B2AB"/>
<path d="M242.331 594.807C241.666 593.216 242.694 591.429 244.403 591.204V591.204C258.168 589.396 271.26 584.171 282.488 576.006L284.955 574.211C286.518 573.075 288.731 573.695 289.476 575.477L296.618 592.549C297.789 595.347 297.163 598.575 295.032 600.734L293.424 602.362C283.549 612.364 269.888 617.699 255.848 617.037V617.037C253.221 616.913 250.899 615.287 249.884 612.861L242.331 594.807Z" fill="#F6F0E5"/>
<ellipse cx="176.838" cy="414.881" rx="65.3429" ry="50.6407" fill="#E8B2AB"/>
<path d="M78.7306 674.608L125.977 509.207L222.287 502.105L273.662 675.048C275.496 681.221 272.121 687.739 266.021 689.805L214.946 707.105H148.446L86.9376 689.411C80.5877 687.584 76.9158 680.961 78.7306 674.608Z" fill="#1A1A1A" stroke="#1A1A1A" stroke-width="5.44524" stroke-linecap="round" stroke-linejoin="round"/>
<path d="M114.861 627.435L127.982 565.906H223.707L235.846 627.639C237.434 635.714 231.252 643.229 223.023 643.229H127.642C119.327 643.229 113.127 635.567 114.861 627.435Z" fill="#F6F0E5"/>
<path d="M159.411 451.117H195.349V476.71C195.349 486.634 187.304 494.679 177.38 494.679V494.679C167.456 494.679 159.411 486.634 159.411 476.71V451.117Z" fill="#E8B2AB"/>
<path d="M176.866 364.615C208.296 364.615 234.538 381.733 240.763 404.536C252.392 404.632 261.783 412.395 261.783 421.959C261.783 431.583 252.275 439.384 240.547 439.384C238.44 439.384 236.406 439.131 234.485 438.662C223.49 454.514 201.812 465.299 176.866 465.299C152.286 465.299 130.878 454.829 119.736 439.358C119.351 439.375 118.963 439.384 118.573 439.384C106.845 439.384 97.3367 431.583 97.3367 421.959C97.3369 413.979 103.875 407.251 112.797 405.187C118.697 382.06 145.138 364.615 176.866 364.615Z" fill="#E8B2AB"/>
<path d="M160.314 466.971C159.927 468.086 159.719 469.258 159.719 470.467C159.719 477.922 167.559 483.964 177.23 483.964C186.901 483.964 194.741 477.922 194.741 470.467C194.741 469.344 194.561 468.253 194.225 467.209L269.267 489.37C272.473 490.316 273.408 494.278 270.831 496.406C257.192 507.665 220.272 534.367 176.866 534.368C133.459 534.368 96.5383 507.665 82.9 496.406C80.3228 494.278 81.2581 490.316 84.4635 489.37L160.314 466.971Z" fill="#F6F0E5"/>
<path d="M241.099 405.304C217.946 437.605 222.946 385.105 203.946 372.605L188.284 356.372L198.876 359.398C220.451 365.563 236.756 383.29 241.099 405.304Z" fill="#1A1A1A"/>
<path d="M110.413 405.304C137.447 439.605 129.124 392.223 138.447 378.105L188.829 356.917L160.542 357.531C133.997 358.108 112.266 378.818 110.413 405.304Z" fill="#1A1A1A"/>
<g opacity="0.4" filter="url(#filter8_g_72_793)">
<ellipse cx="208.962" cy="430.427" rx="19.0583" ry="14.1576" fill="#D7859C"/>
</g>
<g opacity="0.4" filter="url(#filter9_g_72_793)">
<ellipse cx="144.709" cy="430.427" rx="19.0583" ry="14.1576" fill="#D7859C"/>
</g>
<circle cx="159.955" cy="419.237" r="3.26714" fill="#1A1A1A" stroke="#1A1A1A" stroke-width="1.08905"/>
<circle cx="191.54" cy="419.237" r="3.26714" fill="#1A1A1A" stroke="#1A1A1A" stroke-width="1.08905"/>
<path d="M192.665 408.742L186.637 410.744" stroke="#1A1A1A" stroke-width="6.53429" stroke-linecap="round"/>
<path d="M192.665 408.742L186.637 410.744" stroke="#5A0000" stroke-opacity="0.2" stroke-width="6.53429" stroke-linecap="round" style="mix-blend-mode:multiply"/>
<path d="M159.411 408.742L165.439 410.744" stroke="#1A1A1A" stroke-width="6.53429" stroke-linecap="round"/>
<path d="M159.411 408.742L165.439 410.744" stroke="#5A0000" stroke-opacity="0.2" stroke-width="6.53429" stroke-linecap="round" style="mix-blend-mode:multiply"/>
<path d="M183.37 423.891V423.891C178.574 426.287 172.918 426.29 168.123 423.891V423.891" stroke="#1A1A1A" stroke-width="5.44524" stroke-linecap="round" stroke-linejoin="round"/>
<path d="M227.614 556.105C231.514 556.105 234.939 558.697 235.999 562.45L237.228 566.806C238.798 572.366 234.621 577.886 228.844 577.886H115.739C109.962 577.886 105.784 572.366 107.354 566.806L108.584 562.45C109.644 558.697 113.069 556.105 116.969 556.105H227.614Z" fill="#F6F0E5"/>
<path d="M99.5307 764.219C81.7875 764.219 67.4037 778.603 67.4037 796.346V810.503C67.4037 813.21 69.5975 815.403 72.3041 815.403H166.506V764.219H99.5307Z" fill="#1A1A1A" stroke="#1A1A1A" stroke-width="1.08905"/>
<path d="M251.996 764.219C269.74 764.219 284.123 778.603 284.123 796.346V810.503C284.123 813.21 281.93 815.403 279.223 815.403H185.021V764.219H251.996Z" fill="#1A1A1A" stroke="#1A1A1A" stroke-width="1.08905"/>
<path d="M117.376 424.189L109.315 419.535" stroke="#EA968B" stroke-width="6.53429" stroke-linecap="round"/>
<path d="M241.089 424.189L249.15 419.535" stroke="#EA968B" stroke-width="6.53429" stroke-linecap="round"/>
<path d="M137.946 382.105C133.77 370.804 141.913 358.738 153.956 358.384L191.433 357.282C203.586 356.924 213.244 367.403 211.898 379.487L211.607 382.105L212.946 400.105H137.946L137.946 382.105V382.105Z" fill="#1A1A1A"/>
</g>
<g filter="url(#filter10_g_72_793)">
<ellipse cx="93.5225" cy="687.962" rx="19.0583" ry="12.8571" fill="#1A1A1A"/>
<ellipse cx="19.0583" cy="12.8571" rx="19.0583" ry="12.8571" transform="matrix(-1 0 0 1 278.116 675.105)" fill="#1A1A1A"/>
<ellipse cx="121.838" cy="701.623" rx="19.0583" ry="12.8571" fill="#1A1A1A"/>
<ellipse cx="19.0583" cy="12.8571" rx="19.0583" ry="12.8571" transform="matrix(-1 0 0 1 249.801 688.766)" fill="#1A1A1A"/>
<ellipse cx="158.865" cy="707.248" rx="19.0583" ry="12.8571" fill="#1A1A1A"/>
<ellipse cx="19.0583" cy="12.8571" rx="19.0583" ry="12.8571" transform="matrix(-1 0 0 1 212.773 694.391)" fill="#1A1A1A"/>
</g>
</g>
<g filter="url(#filter11_g_72_793)">
<path d="M198.235 23.736L204.375 82.6198C259.296 56.1506 289.697 81.7532 310.903 56.9379C311.476 56.268 311.044 55.2151 310.169 55.1181C304.114 54.4476 286.312 51.5229 278.317 39.8707C277.338 38.4448 277.923 36.5523 279.343 35.5666C288.906 28.9333 297.917 17.1429 301.666 11.9047C302.273 11.0563 301.408 9.97979 300.416 10.3029C245.782 28.1001 223.971 7.26553 200.336 19.645C198.849 20.4238 198.061 22.0667 198.235 23.736Z" fill="#E8B2AB" stroke="#E8B2AB" stroke-width="8.7416"/>
<path d="M196.482 21.2817L239.261 32.1093L194.125 43.6089L191.104 26.2691C190.56 23.149 193.412 20.5045 196.482 21.2817Z" fill="#1A1A1A"/>
<path d="M229.674 30.934C164.844 58.5763 121.666 29.1881 50.3272 56.2289C45.5852 58.0263 42.9046 62.9994 43.775 67.9953L53.7902 125.476C55.003 132.437 62.4532 136.403 69.0202 133.796C171.322 93.1838 191.662 130.55 249.411 107.459C253.994 105.627 256.53 100.739 255.683 95.8767L245.819 39.2639C244.545 31.9531 236.501 28.0234 229.674 30.934Z" fill="#E8B2AB"/>
<path d="M103.917 92.2554L96.2624 93.0065L95.1464 99.0947L91.2694 98.9647L96.5936 74.0901L100.349 73.7217L110.461 96.8993L106.231 98.007L103.917 92.2554ZM96.9368 89.4771L102.57 88.9244L98.883 79.589L96.9368 89.4771ZM122.937 96.1491C119.759 96.4609 117.117 95.4199 115.011 93.0261C113.152 90.9239 112.062 88.236 111.741 84.9622C111.424 81.9797 111.929 79.196 113.255 76.6113C114.849 73.5384 117.235 71.8461 120.412 71.5343C121.543 71.4233 122.853 71.5136 124.339 71.8052C126.052 72.1718 127.416 72.6942 128.43 73.3724L127.19 76.3376C125.084 75.1832 123.211 74.6743 121.572 74.8109C119.719 74.9927 118.349 76.2694 117.464 78.6408C116.731 80.584 116.466 82.5908 116.669 84.6609C116.896 86.9718 117.595 88.8961 118.767 90.4338C119.938 91.9715 121.258 92.6683 122.727 92.5242C124.219 92.3778 125.367 92.0586 126.169 91.5667L125.46 84.3452L120.586 84.8235L120.271 81.6099L129.514 80.7029L130.694 92.7267C129.178 93.8719 127.967 94.6591 127.061 95.0882C125.9 95.6396 124.525 95.9932 122.937 96.1491ZM147.119 88.0164L139.465 88.7675L138.348 94.8556L134.471 94.7257L139.796 69.8511L143.551 69.4827L153.663 92.6603L149.434 93.768L147.119 88.0164ZM140.139 85.238L145.772 84.6853L142.085 75.35L140.139 85.238ZM167.237 91.5836L162.832 92.0159L160.809 71.3984L154.093 72.0574L153.799 69.0604L171.275 67.3457L171.569 70.3426L165.214 70.9661L167.237 91.5836ZM188.863 78.197L180.738 78.9942L181.833 90.1514L177.464 90.5801L175.143 66.9296L179.512 66.5009L180.416 75.7084L188.54 74.9112L187.637 65.7038L191.97 65.2786L194.29 88.9291L189.957 89.3543L188.863 78.197ZM210.478 81.7995L202.823 82.5506L201.707 88.6388L197.83 88.5089L203.155 63.6343L206.91 63.2658L217.022 86.4435L212.792 87.5511L210.478 81.7995ZM203.498 79.0212L209.131 78.4685L205.444 69.1331L203.498 79.0212Z" fill="#1A1A1A"/>
<g style="mix-blend-mode:multiply" opacity="0.61">
<path d="M244.855 35.571L251.039 70.0538" stroke="#E8B2AB" stroke-width="8.7416" stroke-linecap="round"/>
</g>
</g>
<defs>
<filter id="filter0_g_72_793" x="37.5261" y="9.99087" width="67.8579" height="280.388" filterUnits="userSpaceOnUse" color-interpolation-filters="sRGB">
<feFlood flood-opacity="0" result="BackgroundImageFix"/>
<feBlend mode="normal" in="SourceGraphic" in2="BackgroundImageFix" result="shape"/>
<feTurbulence type="fractalNoise" baseFrequency="0.37973597645759583 0.37973597645759583" numOctaves="3" seed="4240" />
<feDisplacementMap in="shape" scale="2.8410215377807617" xChannelSelector="R" yChannelSelector="G" result="displacedImage" width="100%" height="100%" />
<feMerge result="effect1_texture_72_793">
<feMergeNode in="displacedImage"/>
</feMerge>
</filter>
<filter id="filter1_g_72_793" x="0.126666" y="149.816" width="506.917" height="699.589" filterUnits="userSpaceOnUse" color-interpolation-filters="sRGB">
<feFlood flood-opacity="0" result="BackgroundImageFix"/>
<feBlend mode="normal" in="SourceGraphic" in2="BackgroundImageFix" result="shape"/>
<feTurbulence type="fractalNoise" baseFrequency="0.41493773460388184 0.41493773460388184" numOctaves="3" seed="4240" />
<feDisplacementMap in="shape" scale="2.5999999046325684" xChannelSelector="R" yChannelSelector="G" result="displacedImage" width="100%" height="100%" />
<feMerge result="effect1_texture_72_793">
<feMergeNode in="displacedImage"/>
</feMerge>
</filter>
<filter id="filter2_g_72_793" x="162.521" y="148.779" width="345.559" height="229.803" filterUnits="userSpaceOnUse" color-interpolation-filters="sRGB">
<feFlood flood-opacity="0" result="BackgroundImageFix"/>
<feBlend mode="normal" in="SourceGraphic" in2="BackgroundImageFix" result="shape"/>
<feTurbulence type="fractalNoise" baseFrequency="0.23087981343269348 0.23087981343269348" numOctaves="3" seed="4240" />
<feDisplacementMap in="shape" scale="4.6727256774902344" xChannelSelector="R" yChannelSelector="G" result="displacedImage" width="100%" height="100%" />
<feMerge result="effect1_texture_72_793">
<feMergeNode in="displacedImage"/>
</feMerge>
</filter>
<filter id="filter3_g_72_793" x="12.9836" y="180.011" width="340.601" height="227.562" filterUnits="userSpaceOnUse" color-interpolation-filters="sRGB">
<feFlood flood-opacity="0" result="BackgroundImageFix"/>
<feBlend mode="normal" in="SourceGraphic" in2="BackgroundImageFix" result="shape"/>
<feTurbulence type="fractalNoise" baseFrequency="0.41493773460388184 0.41493773460388184" numOctaves="3" seed="4240" />
<feDisplacementMap in="shape" scale="2.5999999046325684" xChannelSelector="R" yChannelSelector="G" result="displacedImage" width="100%" height="100%" />
<feMerge result="effect1_texture_72_793">
<feMergeNode in="displacedImage"/>
</feMerge>
</filter>
<filter id="filter4_g_72_793" x="245.31" y="191.539" width="42.4152" height="47.714" filterUnits="userSpaceOnUse" color-interpolation-filters="sRGB">
<feFlood flood-opacity="0" result="BackgroundImageFix"/>
<feBlend mode="normal" in="SourceGraphic" in2="BackgroundImageFix" result="shape"/>
<feTurbulence type="fractalNoise" baseFrequency="0.23087981343269348 0.23087981343269348" numOctaves="3" seed="4240" />
<feDisplacementMap in="shape" scale="4.6727256774902344" xChannelSelector="R" yChannelSelector="G" result="displacedImage" width="100%" height="100%" />
<feMerge result="effect1_texture_72_793">
<feMergeNode in="displacedImage"/>
</feMerge>
</filter>
<filter id="filter5_g_72_793" x="300.124" y="236.963" width="38.8211" height="43.5846" filterUnits="userSpaceOnUse" color-interpolation-filters="sRGB">
<feFlood flood-opacity="0" result="BackgroundImageFix"/>
<feBlend mode="normal" in="SourceGraphic" in2="BackgroundImageFix" result="shape"/>
<feTurbulence type="fractalNoise" baseFrequency="0.23087981343269348 0.23087981343269348" numOctaves="3" seed="4240" />
<feDisplacementMap in="shape" scale="4.6727256774902344" xChannelSelector="R" yChannelSelector="G" result="displacedImage" width="100%" height="100%" />
<feMerge result="effect1_texture_72_793">
<feMergeNode in="displacedImage"/>
</feMerge>
</filter>
<filter id="filter6_g_72_793" x="310.908" y="194.016" width="38.8215" height="44.411" filterUnits="userSpaceOnUse" color-interpolation-filters="sRGB">
<feFlood flood-opacity="0" result="BackgroundImageFix"/>
<feBlend mode="normal" in="SourceGraphic" in2="BackgroundImageFix" result="shape"/>
<feTurbulence type="fractalNoise" baseFrequency="0.23087981343269348 0.23087981343269348" numOctaves="3" seed="4240" />
<feDisplacementMap in="shape" scale="4.6727256774902344" xChannelSelector="R" yChannelSelector="G" result="displacedImage" width="100%" height="100%" />
<feMerge result="effect1_texture_72_793">
<feMergeNode in="displacedImage"/>
</feMerge>
</filter>
<filter id="filter7_g_72_793" x="45.8141" y="342.432" width="258.473" height="474.932" filterUnits="userSpaceOnUse" color-interpolation-filters="sRGB">
<feFlood flood-opacity="0" result="BackgroundImageFix"/>
<feBlend mode="normal" in="SourceGraphic" in2="BackgroundImageFix" result="shape"/>
<feTurbulence type="fractalNoise" baseFrequency="0.38100969791412354 0.38100969791412354" numOctaves="3" seed="4240" />
<feDisplacementMap in="shape" scale="2.831524133682251" xChannelSelector="R" yChannelSelector="G" result="displacedImage" width="100%" height="100%" />
<feMerge result="effect1_texture_72_793">
<feMergeNode in="displacedImage"/>
</feMerge>
</filter>
<filter id="filter8_g_72_793" x="177.957" y="404.323" width="62.0104" height="52.2089" filterUnits="userSpaceOnUse" color-interpolation-filters="sRGB">
<feFlood flood-opacity="0" result="BackgroundImageFix"/>
<feBlend mode="normal" in="SourceGraphic" in2="BackgroundImageFix" result="shape"/>
<feTurbulence type="fractalNoise" baseFrequency="1.8364666700363159 1.8364666700363159" numOctaves="3" seed="1626" />
<feDisplacementMap in="shape" scale="23.893709182739258" xChannelSelector="R" yChannelSelector="G" result="displacedImage" width="100%" height="100%" />
<feMerge result="effect1_texture_72_793">
<feMergeNode in="displacedImage"/>
</feMerge>
</filter>
<filter id="filter9_g_72_793" x="113.704" y="404.323" width="62.0104" height="52.2089" filterUnits="userSpaceOnUse" color-interpolation-filters="sRGB">
<feFlood flood-opacity="0" result="BackgroundImageFix"/>
<feBlend mode="normal" in="SourceGraphic" in2="BackgroundImageFix" result="shape"/>
<feTurbulence type="fractalNoise" baseFrequency="1.8364666700363159 1.8364666700363159" numOctaves="3" seed="1626" />
<feDisplacementMap in="shape" scale="23.893709182739258" xChannelSelector="R" yChannelSelector="G" result="displacedImage" width="100%" height="100%" />
<feMerge result="effect1_texture_72_793">
<feMergeNode in="displacedImage"/>
</feMerge>
</filter>
<filter id="filter10_g_72_793" x="73.0484" y="673.689" width="206.483" height="47.8315" filterUnits="userSpaceOnUse" color-interpolation-filters="sRGB">
<feFlood flood-opacity="0" result="BackgroundImageFix"/>
<feBlend mode="normal" in="SourceGraphic" in2="BackgroundImageFix" result="shape"/>
<feTurbulence type="fractalNoise" baseFrequency="0.38100969791412354 0.38100969791412354" numOctaves="3" seed="4240" />
<feDisplacementMap in="shape" scale="2.831524133682251" xChannelSelector="R" yChannelSelector="G" result="displacedImage" width="100%" height="100%" />
<feMerge result="effect1_texture_72_793">
<feMergeNode in="displacedImage"/>
</feMerge>
</filter>
<filter id="filter11_g_72_793" x="42.1916" y="4.45009" width="274.777" height="131.572" filterUnits="userSpaceOnUse" color-interpolation-filters="sRGB">
<feFlood flood-opacity="0" result="BackgroundImageFix"/>
<feBlend mode="normal" in="SourceGraphic" in2="BackgroundImageFix" result="shape"/>
<feTurbulence type="fractalNoise" baseFrequency="0.37973597645759583 0.37973597645759583" numOctaves="3" seed="4240" />
<feDisplacementMap in="shape" scale="2.8410215377807617" xChannelSelector="R" yChannelSelector="G" result="displacedImage" width="100%" height="100%" />
<feMerge result="effect1_texture_72_793">
<feMergeNode in="displacedImage"/>
</feMerge>
</filter>
</defs>
</svg>
