<svg width="509" height="847" viewBox="0 0 509 847" fill="none" xmlns="http://www.w3.org/2000/svg">
<g filter="url(#filter0_g_72_720)">
<path d="M95.2741 277.216L59.215 40.0999" stroke="#1A1A1A" stroke-width="17.4832" stroke-linecap="round"/>
<circle cx="56.4832" cy="25.8947" r="17.4832" fill="#1A1A1A"/>
</g>
<g filter="url(#filter1_g_72_720)">
<path d="M23 337.94C23 328.504 27.1651 319.548 34.3819 313.468L169.449 199.673C178.939 191.678 192.197 189.89 203.466 195.086L462.399 314.481C473.738 319.709 481 331.054 481 343.54V812.186C481 829.859 466.673 844.186 449 844.186H55C37.3269 844.186 23 829.859 23 812.186V337.94Z" fill="#BDA73A"/>
<g filter="url(#filter2_g_72_720)">
<path d="M326.977 161.433L177 154.936L318 366.956H493.484C498.511 366.956 501.309 361.144 498.174 357.214L352.191 174.251C346.034 166.534 336.839 161.86 326.977 161.433Z" fill="#BDA73A"/>
<path d="M326.977 161.433L177 154.936L318 366.956H493.484C498.511 366.956 501.309 361.144 498.174 357.214L352.191 174.251C346.034 166.534 336.839 161.86 326.977 161.433Z" stroke="#BDA73A" stroke-width="12.5804" stroke-linecap="round"/>
</g>
<path d="M322.337 350.272L177.724 178.556C176.283 176.844 173.644 176.852 172.212 178.572L29.3374 350.272" stroke="#BDA73A" stroke-width="55.7133" stroke-linecap="round"/>
<g filter="url(#filter3_g_72_720)">
<path d="M337.337 388.272L177.337 194.616C175.902 192.879 173.242 192.875 171.802 194.608L29.3374 366.015" stroke="#1A1A1A" stroke-width="30" stroke-linecap="round"/>
</g>
<g style="mix-blend-mode:multiply" opacity="0.4" filter="url(#filter4_g_72_720)">
<path d="M258.483 201.659L274.658 223.133" stroke="#BDA73A" stroke-width="21.5664" stroke-linecap="round"/>
</g>
<g style="mix-blend-mode:multiply" opacity="0.4" filter="url(#filter5_g_72_720)">
<path d="M313.298 247.084L325.878 264.428" stroke="#BDA73A" stroke-width="21.5664" stroke-linecap="round"/>
</g>
<g style="mix-blend-mode:multiply" opacity="0.4" filter="url(#filter6_g_72_720)">
<path d="M324.082 204.137L336.662 222.307" stroke="#BDA73A" stroke-width="21.5664" stroke-linecap="round"/>
</g>
<path d="M328 374.105H485V813.105C485 830.778 470.673 845.105 453 845.105H328V374.105Z" fill="#1A1A1A"/>
<g filter="url(#filter7_g_72_720)">
<path d="M83.787 423.491L100.405 392.144C107.707 378.37 115.672 363.964 129.476 356.718C148.435 346.765 168.504 349.965 178.149 353.943L144.587 443.33L84.4325 425.043C83.7771 424.843 83.4662 424.096 83.787 423.491Z" fill="#F6F0E5" stroke="#F6F0E5" stroke-width="18.5138" stroke-linecap="round"/>
<path d="M268.497 423.491L251.879 392.144C244.577 378.37 236.613 363.964 222.809 356.718C203.85 346.765 183.781 349.965 174.136 353.943L207.697 443.33L267.852 425.043C268.507 424.843 268.818 424.096 268.497 423.491Z" fill="#F6F0E5" stroke="#F6F0E5" stroke-width="18.5138" stroke-linecap="round"/>
<circle cx="156.589" cy="406.848" r="31.1979" transform="rotate(30 156.589 406.848)" fill="#D7859C"/>
<path d="M166.016 640.879H117.641L107.207 767.208H166.016V640.879Z" fill="#E8B2AB"/>
<path d="M185.618 640.879H233.993L244.427 767.208H185.618V640.879Z" fill="#E8B2AB"/>
<path d="M124.362 497.127C124.362 497.127 105.223 521.462 82.6475 584.467" stroke="#1A1A1A" stroke-width="42.4729" stroke-linejoin="round"/>
<ellipse cx="26.6817" cy="27.2262" rx="26.6817" ry="27.2262" transform="matrix(0.0872418 -0.996187 -0.996187 -0.0872418 99.3016 644.339)" fill="#E8B2AB"/>
<path d="M107.824 591.807C108.489 590.217 107.461 588.429 105.752 588.204V588.204C91.9874 586.396 78.8946 581.171 67.6671 573.006L65.1997 571.212C63.6375 570.075 61.4243 570.695 60.6788 572.477L53.5368 589.549C52.3661 592.348 52.9916 595.576 55.1231 597.734L56.7309 599.363C66.6065 609.364 80.2665 614.699 94.3066 614.037V614.037C96.9343 613.913 99.256 612.288 100.271 609.861L107.824 591.807Z" fill="#F6F0E5"/>
<path d="M167.757 714.534C167.79 712.707 166.317 711.208 164.49 711.208H109.532C107.81 711.208 106.384 712.545 106.272 714.263L102.816 767.208H166.816L167.757 714.534Z" fill="#F6F0E5"/>
<path d="M183.876 714.534C183.843 712.707 185.315 711.208 187.142 711.208H241.154C242.854 711.208 244.27 712.511 244.41 714.205L248.816 767.208H184.816L183.876 714.534Z" fill="#F6F0E5"/>
<path d="M225.847 497.127C225.847 497.127 244.986 521.462 267.561 584.467" stroke="#1A1A1A" stroke-width="42.4729" stroke-linejoin="round"/>
<ellipse cx="275.701" cy="615.384" rx="26.6817" ry="27.2262" transform="rotate(-95.0049 275.701 615.384)" fill="#E8B2AB"/>
<path d="M242.385 591.807C241.719 590.217 242.748 588.429 244.457 588.204V588.204C258.221 586.396 271.314 581.171 282.541 573.006L285.009 571.212C286.571 570.075 288.784 570.695 289.53 572.477L296.672 589.549C297.842 592.348 297.217 595.576 295.085 597.734L293.477 599.363C283.602 609.364 269.942 614.699 255.902 614.037V614.037C253.274 613.913 250.952 612.288 249.937 609.861L242.385 591.807Z" fill="#F6F0E5"/>
<ellipse cx="176.891" cy="411.881" rx="65.3429" ry="50.6407" fill="#E8B2AB"/>
<path d="M84.699 632.789L126.312 505.781L222.46 499.105L266.173 632.406C267.774 637.288 265.386 642.584 260.669 644.618L258.016 645.761C204.287 668.922 143.307 668.49 89.9112 644.571C85.4144 642.556 83.1648 637.471 84.699 632.789Z" fill="#1A1A1A"/>
<g filter="url(#filter8_g_72_720)">
<ellipse cx="93.5758" cy="645.962" rx="19.0583" ry="12.8571" fill="#1A1A1A"/>
<ellipse cx="19.0583" cy="12.8571" rx="19.0583" ry="12.8571" transform="matrix(-1 0 0 1 278.169 633.105)" fill="#1A1A1A"/>
<ellipse cx="121.891" cy="659.623" rx="19.0583" ry="12.8571" fill="#1A1A1A"/>
<ellipse cx="19.0583" cy="12.8571" rx="19.0583" ry="12.8571" transform="matrix(-1 0 0 1 249.854 646.766)" fill="#1A1A1A"/>
<ellipse cx="158.919" cy="665.248" rx="19.0583" ry="12.8571" fill="#1A1A1A"/>
<ellipse cx="19.0583" cy="12.8571" rx="19.0583" ry="12.8571" transform="matrix(-1 0 0 1 212.827 652.391)" fill="#1A1A1A"/>
</g>
<path d="M159.464 448.117H195.403V473.71C195.403 483.634 187.358 491.679 177.434 491.679V491.679C167.509 491.679 159.464 483.634 159.464 473.71V448.117Z" fill="#E8B2AB"/>
<path d="M176.919 361.615C208.349 361.615 234.591 378.734 240.817 401.536C252.445 401.632 261.836 409.396 261.836 418.959C261.836 428.583 252.329 436.384 240.6 436.384C238.494 436.384 236.459 436.131 234.539 435.662C223.543 451.514 201.866 462.299 176.919 462.299C152.339 462.299 130.931 451.829 119.789 436.358C119.404 436.375 119.017 436.384 118.626 436.384C106.898 436.384 97.3901 428.583 97.3901 418.959C97.3903 410.979 103.929 404.251 112.85 402.187C118.75 379.06 145.192 361.615 176.919 361.615Z" fill="#E8B2AB"/>
<path d="M162.338 463.971C161.997 465.086 161.814 466.258 161.814 467.467C161.814 474.922 168.721 480.965 177.239 480.965C185.758 480.965 192.664 474.922 192.664 467.467C192.664 466.344 192.505 465.253 192.21 464.21L255.367 485.382C259.731 486.845 261.045 492.216 257.631 495.301C244.246 507.396 213.147 531.368 176.919 531.368C140.691 531.368 109.592 507.396 96.207 495.301C92.7923 492.216 94.1063 486.845 98.4697 485.382L162.338 463.971Z" fill="#F6F0E5"/>
<path d="M245.686 402.304C213.797 404.013 193.919 376.203 187.966 362.085L192.871 353.372L203.463 356.398C225.038 362.563 241.343 380.29 245.686 402.304Z" fill="#D7859C"/>
<path d="M245.686 402.304C213.797 404.013 193.919 376.203 187.966 362.085L192.871 353.372L203.463 356.398C225.038 362.563 241.343 380.29 245.686 402.304Z" fill="#C30000" fill-opacity="0.2"/>
<path d="M115 402.304C164.94 404.013 192.262 380.559 201.584 366.441L193.416 353.917L165.129 354.532C138.584 355.109 116.853 375.818 115 402.304Z" fill="#D7859C"/>
<path d="M115 402.304C164.94 404.013 192.262 380.559 201.584 366.441L193.416 353.917L165.129 354.532C138.584 355.109 116.853 375.818 115 402.304Z" fill="#C30000" fill-opacity="0.2"/>
<g opacity="0.2" filter="url(#filter9_g_72_720)">
<ellipse cx="209.015" cy="427.428" rx="19.0583" ry="14.1576" fill="#DE69C2"/>
</g>
<g opacity="0.2" filter="url(#filter10_g_72_720)">
<ellipse cx="144.763" cy="427.428" rx="19.0583" ry="14.1576" fill="#DE69C2"/>
</g>
<circle cx="160.009" cy="416.237" r="3.81167" fill="#1A1A1A"/>
<circle cx="191.593" cy="416.237" r="3.81167" fill="#1A1A1A"/>
<path d="M192.718 405.742L186.69 407.744" stroke="#D7859C" stroke-width="6.53429" stroke-linecap="round"/>
<path d="M192.718 405.742L186.69 407.744" stroke="#5A0000" stroke-opacity="0.2" stroke-width="6.53429" stroke-linecap="round" style="mix-blend-mode:multiply"/>
<path d="M159.465 405.742L165.492 407.744" stroke="#D7859C" stroke-width="6.53429" stroke-linecap="round"/>
<path d="M159.465 405.742L165.492 407.744" stroke="#5A0000" stroke-opacity="0.2" stroke-width="6.53429" stroke-linecap="round" style="mix-blend-mode:multiply"/>
<path d="M183.423 420.891V420.891C178.627 423.287 172.971 423.291 168.177 420.891V420.891" stroke="#1A1A1A" stroke-width="5.44524" stroke-linecap="round" stroke-linejoin="round"/>
<path d="M167 761.105H109.671C91.6274 761.105 76.9999 775.733 76.9999 793.777V807.66C76.9999 810.667 79.4378 813.105 82.4451 813.105H167V761.105Z" fill="#1A1A1A"/>
<path d="M185 761.105H239.328C257.372 761.105 272 775.733 272 793.777V807.66C272 810.667 269.562 813.105 266.555 813.105H185V761.105Z" fill="#1A1A1A"/>
<path d="M117.43 421.189L109.369 416.535" stroke="#EA968B" stroke-width="6.53429" stroke-linecap="round"/>
<path d="M241.143 421.189L249.204 416.535" stroke="#EA968B" stroke-width="6.53429" stroke-linecap="round"/>
<path d="M120.306 394.105L153.232 390.105C153.232 390.105 118.307 430.105 162.307 451.605V451.605C141.378 471.109 111.966 444.705 116.792 416.508C117.865 410.237 119.226 403.209 120.306 394.105Z" fill="#D36A7D"/>
<path d="M239.001 394.105L206.075 390.105C206.075 390.105 240.999 430.105 197 451.605V451.605C217.928 471.109 247.341 444.705 242.515 416.508C241.441 410.237 240.08 403.209 239.001 394.105Z" fill="#D36A7D"/>
<path d="M198.32 376.423C196.85 367.142 187.703 360.105 178.307 360.105H178.015C186.368 381.198 182.868 389.91 161 399.504C161.552 399.951 162.094 400.382 162.628 400.797C179.02 413.543 201.57 396.931 198.32 376.423V376.423Z" fill="#D36A7D"/>
</g>
</g>
<g filter="url(#filter11_g_72_720)">
<path d="M175.29 23.7362L181.429 82.6199C236.351 56.1507 266.751 81.7533 287.958 56.938C288.53 56.2682 288.099 55.2152 287.223 55.1182C281.168 54.4477 263.366 51.5231 255.371 39.8708C254.393 38.4449 254.977 36.5524 256.398 35.5668C265.96 28.9334 274.971 17.143 278.72 11.9048C279.327 11.0564 278.463 9.97991 277.471 10.303C222.836 28.1003 201.026 7.26565 177.391 19.6451C175.904 20.4239 175.116 22.0668 175.29 23.7362Z" fill="#E8B2AB" stroke="#E8B2AB" stroke-width="8.7416"/>
<path d="M173.536 21.2817L216.314 32.1093L171.178 43.6089L168.157 26.2691C167.614 23.149 170.465 20.5045 173.536 21.2817Z" fill="#1A1A1A"/>
<path d="M207.027 32.4307C150.961 57.1148 112.134 28.2692 50.0894 53.1344C45.4867 54.9789 42.9364 59.8709 43.7875 64.7558L53.7744 122.074C55.009 129.16 62.7025 133.099 69.3351 130.317C158.011 93.1205 177.135 129.707 227.471 108.434C231.9 106.562 234.286 101.767 233.46 97.0297L223.651 40.7318C222.349 33.2565 213.971 29.3732 207.027 32.4307Z" fill="#E8B2AB"/>
<path d="M109.988 88.7369L102.333 89.488L101.217 95.5762L97.34 95.4463L102.664 70.5717L106.419 70.2032L116.532 93.3809L112.302 94.4885L109.988 88.7369ZM103.008 85.9586L108.64 85.4059L104.954 76.0705L103.008 85.9586ZM117.852 69.5919L122.148 69.1703L124.164 89.7155L133.733 88.7767L134.041 91.918L120.176 93.2785L117.852 69.5919ZM136.745 67.7381L141.114 67.3094L143.438 90.996L139.069 91.4247L136.745 67.7381ZM146.08 78.4513C145.766 75.2498 146.338 72.4109 147.796 69.9347C149.486 67.0954 151.992 65.5129 155.314 65.1869C157.408 64.9814 159.911 65.5986 162.823 67.0384L161.554 70.0794C159.9 69.3182 159.058 68.9147 159.029 68.8689C158.098 68.5471 157.162 68.4202 156.221 68.4882C154.247 68.6819 152.805 69.9536 151.893 72.3033C151.153 74.1744 150.889 76.1931 151.102 78.3596C151.331 80.6945 152.126 82.6094 153.488 84.1041C154.768 85.5096 156.216 86.1453 157.831 86.0111C158.698 85.9261 159.501 85.6893 160.24 85.3008C160.821 85.0251 161.725 84.4504 162.951 83.5766L164.968 86.2951C163.435 87.5149 162.23 88.3622 161.353 88.8371C160.218 89.4102 158.941 89.7665 157.521 89.9058C154.175 90.2341 151.447 89.1894 149.339 86.7715C147.499 84.6188 146.413 81.8454 146.08 78.4513ZM172.26 73.5858L180.673 72.7603L180.996 76.0461L172.579 76.8355L173.355 84.7431L182.237 83.8715L182.56 87.1573L169.417 88.447L167.096 64.7964L180.348 63.4962L180.656 66.6375L171.665 67.5197L172.26 73.5858Z" fill="#1A1A1A"/>
<g style="mix-blend-mode:multiply" opacity="0.61">
<path d="M221.909 35.5712L228.094 70.0539" stroke="#E8B2AB" stroke-width="8.7416" stroke-linecap="round"/>
</g>
</g>
<defs>
<filter id="filter0_g_72_720" x="37.5795" y="6.99099" width="67.8579" height="280.388" filterUnits="userSpaceOnUse" color-interpolation-filters="sRGB">
<feFlood flood-opacity="0" result="BackgroundImageFix"/>
<feBlend mode="normal" in="SourceGraphic" in2="BackgroundImageFix" result="shape"/>
<feTurbulence type="fractalNoise" baseFrequency="0.37973597645759583 0.37973597645759583" numOctaves="3" seed="4240" />
<feDisplacementMap in="shape" scale="2.8410215377807617" xChannelSelector="R" yChannelSelector="G" result="displacedImage" width="100%" height="100%" />
<feMerge result="effect1_texture_72_720">
<feMergeNode in="displacedImage"/>
</feMerge>
</filter>
<filter id="filter1_g_72_720" x="0.180042" y="146.816" width="506.917" height="699.589" filterUnits="userSpaceOnUse" color-interpolation-filters="sRGB">
<feFlood flood-opacity="0" result="BackgroundImageFix"/>
<feBlend mode="normal" in="SourceGraphic" in2="BackgroundImageFix" result="shape"/>
<feTurbulence type="fractalNoise" baseFrequency="0.41493773460388184 0.41493773460388184" numOctaves="3" seed="4240" />
<feDisplacementMap in="shape" scale="2.5999999046325684" xChannelSelector="R" yChannelSelector="G" result="displacedImage" width="100%" height="100%" />
<feMerge result="effect1_texture_72_720">
<feMergeNode in="displacedImage"/>
</feMerge>
</filter>
<filter id="filter2_g_72_720" x="162.574" y="145.779" width="345.559" height="229.803" filterUnits="userSpaceOnUse" color-interpolation-filters="sRGB">
<feFlood flood-opacity="0" result="BackgroundImageFix"/>
<feBlend mode="normal" in="SourceGraphic" in2="BackgroundImageFix" result="shape"/>
<feTurbulence type="fractalNoise" baseFrequency="0.23087981343269348 0.23087981343269348" numOctaves="3" seed="4240" />
<feDisplacementMap in="shape" scale="4.6727256774902344" xChannelSelector="R" yChannelSelector="G" result="displacedImage" width="100%" height="100%" />
<feMerge result="effect1_texture_72_720">
<feMergeNode in="displacedImage"/>
</feMerge>
</filter>
<filter id="filter3_g_72_720" x="13.037" y="177.011" width="340.601" height="227.561" filterUnits="userSpaceOnUse" color-interpolation-filters="sRGB">
<feFlood flood-opacity="0" result="BackgroundImageFix"/>
<feBlend mode="normal" in="SourceGraphic" in2="BackgroundImageFix" result="shape"/>
<feTurbulence type="fractalNoise" baseFrequency="0.41493773460388184 0.41493773460388184" numOctaves="3" seed="4240" />
<feDisplacementMap in="shape" scale="2.5999999046325684" xChannelSelector="R" yChannelSelector="G" result="displacedImage" width="100%" height="100%" />
<feMerge result="effect1_texture_72_720">
<feMergeNode in="displacedImage"/>
</feMerge>
</filter>
<filter id="filter4_g_72_720" x="245.363" y="188.539" width="42.4152" height="47.7139" filterUnits="userSpaceOnUse" color-interpolation-filters="sRGB">
<feFlood flood-opacity="0" result="BackgroundImageFix"/>
<feBlend mode="normal" in="SourceGraphic" in2="BackgroundImageFix" result="shape"/>
<feTurbulence type="fractalNoise" baseFrequency="0.23087981343269348 0.23087981343269348" numOctaves="3" seed="4240" />
<feDisplacementMap in="shape" scale="4.6727256774902344" xChannelSelector="R" yChannelSelector="G" result="displacedImage" width="100%" height="100%" />
<feMerge result="effect1_texture_72_720">
<feMergeNode in="displacedImage"/>
</feMerge>
</filter>
<filter id="filter5_g_72_720" x="300.177" y="233.964" width="38.8211" height="43.5846" filterUnits="userSpaceOnUse" color-interpolation-filters="sRGB">
<feFlood flood-opacity="0" result="BackgroundImageFix"/>
<feBlend mode="normal" in="SourceGraphic" in2="BackgroundImageFix" result="shape"/>
<feTurbulence type="fractalNoise" baseFrequency="0.23087981343269348 0.23087981343269348" numOctaves="3" seed="4240" />
<feDisplacementMap in="shape" scale="4.6727256774902344" xChannelSelector="R" yChannelSelector="G" result="displacedImage" width="100%" height="100%" />
<feMerge result="effect1_texture_72_720">
<feMergeNode in="displacedImage"/>
</feMerge>
</filter>
<filter id="filter6_g_72_720" x="310.961" y="191.016" width="38.8215" height="44.411" filterUnits="userSpaceOnUse" color-interpolation-filters="sRGB">
<feFlood flood-opacity="0" result="BackgroundImageFix"/>
<feBlend mode="normal" in="SourceGraphic" in2="BackgroundImageFix" result="shape"/>
<feTurbulence type="fractalNoise" baseFrequency="0.23087981343269348 0.23087981343269348" numOctaves="3" seed="4240" />
<feDisplacementMap in="shape" scale="4.6727256774902344" xChannelSelector="R" yChannelSelector="G" result="displacedImage" width="100%" height="100%" />
<feMerge result="effect1_texture_72_720">
<feMergeNode in="displacedImage"/>
</feMerge>
</filter>
<filter id="filter7_g_72_720" x="45.8675" y="339.432" width="258.473" height="475.089" filterUnits="userSpaceOnUse" color-interpolation-filters="sRGB">
<feFlood flood-opacity="0" result="BackgroundImageFix"/>
<feBlend mode="normal" in="SourceGraphic" in2="BackgroundImageFix" result="shape"/>
<feTurbulence type="fractalNoise" baseFrequency="0.38100969791412354 0.38100969791412354" numOctaves="3" seed="4240" />
<feDisplacementMap in="shape" scale="2.831524133682251" xChannelSelector="R" yChannelSelector="G" result="displacedImage" width="100%" height="100%" />
<feMerge result="effect1_texture_72_720">
<feMergeNode in="displacedImage"/>
</feMerge>
</filter>
<filter id="filter8_g_72_720" x="73.1017" y="631.689" width="206.483" height="47.8316" filterUnits="userSpaceOnUse" color-interpolation-filters="sRGB">
<feFlood flood-opacity="0" result="BackgroundImageFix"/>
<feBlend mode="normal" in="SourceGraphic" in2="BackgroundImageFix" result="shape"/>
<feTurbulence type="fractalNoise" baseFrequency="0.38100969791412354 0.38100969791412354" numOctaves="3" seed="4240" />
<feDisplacementMap in="shape" scale="2.831524133682251" xChannelSelector="R" yChannelSelector="G" result="displacedImage" width="100%" height="100%" />
<feMerge result="effect1_texture_72_720">
<feMergeNode in="displacedImage"/>
</feMerge>
</filter>
<filter id="filter9_g_72_720" x="178.01" y="401.323" width="62.0104" height="52.2089" filterUnits="userSpaceOnUse" color-interpolation-filters="sRGB">
<feFlood flood-opacity="0" result="BackgroundImageFix"/>
<feBlend mode="normal" in="SourceGraphic" in2="BackgroundImageFix" result="shape"/>
<feTurbulence type="fractalNoise" baseFrequency="1.8364666700363159 1.8364666700363159" numOctaves="3" seed="1626" />
<feDisplacementMap in="shape" scale="23.893709182739258" xChannelSelector="R" yChannelSelector="G" result="displacedImage" width="100%" height="100%" />
<feMerge result="effect1_texture_72_720">
<feMergeNode in="displacedImage"/>
</feMerge>
</filter>
<filter id="filter10_g_72_720" x="113.757" y="401.323" width="62.0104" height="52.2089" filterUnits="userSpaceOnUse" color-interpolation-filters="sRGB">
<feFlood flood-opacity="0" result="BackgroundImageFix"/>
<feBlend mode="normal" in="SourceGraphic" in2="BackgroundImageFix" result="shape"/>
<feTurbulence type="fractalNoise" baseFrequency="1.8364666700363159 1.8364666700363159" numOctaves="3" seed="1626" />
<feDisplacementMap in="shape" scale="23.893709182739258" xChannelSelector="R" yChannelSelector="G" result="displacedImage" width="100%" height="100%" />
<feMerge result="effect1_texture_72_720">
<feMergeNode in="displacedImage"/>
</feMerge>
</filter>
<filter id="filter11_g_72_720" x="42.2046" y="4.45022" width="251.819" height="128.186" filterUnits="userSpaceOnUse" color-interpolation-filters="sRGB">
<feFlood flood-opacity="0" result="BackgroundImageFix"/>
<feBlend mode="normal" in="SourceGraphic" in2="BackgroundImageFix" result="shape"/>
<feTurbulence type="fractalNoise" baseFrequency="0.37973597645759583 0.37973597645759583" numOctaves="3" seed="4240" />
<feDisplacementMap in="shape" scale="2.8410215377807617" xChannelSelector="R" yChannelSelector="G" result="displacedImage" width="100%" height="100%" />
<feMerge result="effect1_texture_72_720">
<feMergeNode in="displacedImage"/>
</feMerge>
</filter>
</defs>
</svg>
