<svg width="685" height="883" viewBox="0 0 685 883" fill="none" xmlns="http://www.w3.org/2000/svg">
<g filter="url(#filter0_g_194_699)">
<rect x="-3" y="3" width="675" height="823" rx="27" transform="matrix(-1 0 0 1 677.5 2)" fill="#F6F0E5" stroke="#8A9F3B" stroke-width="6"/>
<path d="M683 142.5H471C469.343 142.5 468 141.157 468 139.5V5.5" stroke="#8A9F3B" stroke-width="6"/>
<path d="M231.5 827V423" stroke="#8A9F3B" stroke-width="6"/>
<path d="M232.543 614.93C266.473 613.363 293.501 585.359 293.501 551.042L293.501 548.958C293.501 514.641 266.473 486.637 232.543 485.07L232.543 614.93Z" stroke="#8A9F3B" stroke-width="6"/>
<path d="M4.49999 365L135.5 365C137.157 365 138.5 366.343 138.5 368L138.5 425" stroke="#8A9F3B" stroke-width="6"/>
<path d="M228.5 484L185.5 484C183.843 484 182.5 485.343 182.5 487L182.5 613C182.5 614.657 183.843 616 185.5 616L228.5 616" stroke="#8A9F3B" stroke-width="6"/>
<path d="M467.5 342.5V136" stroke="#8A9F3B" stroke-width="6"/>
<path d="M681.5 425H4.50003" stroke="#8A9F3B" stroke-width="6"/>
<path d="M231 680H2" stroke="#8A9F3B" stroke-width="6"/>
<path d="M231 736H2.00001" stroke="#8A9F3B" stroke-width="6"/>
<path d="M181.5 680V736" stroke="#8A9F3B" stroke-width="6"/>
<path d="M61.5 680V736" stroke="#8A9F3B" stroke-width="6"/>
<path d="M121.5 680V736" stroke="#8A9F3B" stroke-width="6"/>
<path d="M82 826.5L148 879" stroke="#8A9F3B" stroke-width="6"/>
<path d="M193.966 216.373L193.077 217.643V223H190.005V206.344H193.077V213.885L198.308 205.506L201.05 206.877C199.662 208.79 197.859 211.303 195.642 214.418C196.268 215.451 197.326 216.847 198.816 218.607C200.034 220.012 201.245 221.409 202.446 222.797L198.816 223.609C197.106 221.273 195.489 218.861 193.966 216.373ZM205.137 206.344H208.209V223H205.137V206.344ZM219.507 223H216.409V208.502H211.687V206.395H223.976V208.502H219.507V223ZM226.641 214.443C226.641 212.192 227.233 210.254 228.418 208.629C229.789 206.767 231.643 205.836 233.979 205.836C235.451 205.836 237.152 206.437 239.082 207.639L237.99 209.67C236.89 209.027 236.331 208.688 236.314 208.654C235.688 208.367 235.045 208.214 234.385 208.197C232.997 208.197 231.905 208.984 231.109 210.559C230.466 211.811 230.145 213.199 230.145 214.723C230.145 216.365 230.568 217.753 231.414 218.887C232.21 219.953 233.174 220.495 234.309 220.512C234.918 220.512 235.493 220.402 236.035 220.182C236.458 220.029 237.127 219.691 238.041 219.166L239.26 221.197C238.109 221.942 237.212 222.45 236.568 222.721C235.739 223.042 234.825 223.203 233.826 223.203C231.473 223.203 229.645 222.289 228.342 220.461C227.208 218.836 226.641 216.83 226.641 214.443ZM251.776 215.154H246.063V223H242.991V206.369H246.063V212.844H251.776V206.369H254.823V223H251.776V215.154ZM262.135 212.844H268.051V215.154L262.135 215.129V220.689H268.381V223H259.139V206.369H268.457V208.578H262.135V212.844ZM274.88 212.564L274.854 223H272.188V206.268H274.677L281.38 216.779V206.369H284.02V222.619L281.557 223.381C279.865 220.266 277.639 216.661 274.88 212.564Z" fill="#8A9F3B"/>
<path d="M523.037 235.949V219.344C523.173 219.344 523.985 219.327 525.475 219.293C526.575 219.259 527.438 219.242 528.065 219.242C529.453 219.242 530.544 219.615 531.34 220.359C532.152 221.087 532.559 222.12 532.559 223.457C532.559 224.134 532.339 224.786 531.899 225.412C531.475 226.021 530.917 226.512 530.223 226.885C531.12 226.952 531.907 227.393 532.584 228.205C533.278 229.018 533.625 229.949 533.625 230.998C533.625 232.995 532.914 234.392 531.492 235.188C530.46 235.763 528.911 236.051 526.846 236.051C526.372 236.051 525.695 236.034 524.815 236C523.951 235.966 523.359 235.949 523.037 235.949ZM526.084 221.197V226.123H527.227C528.005 226.123 528.632 225.878 529.106 225.387C529.529 224.93 529.74 224.371 529.74 223.711C529.723 222.018 529.004 221.163 527.582 221.146C527.21 221.146 526.71 221.163 526.084 221.197ZM526.084 228.104V233.893H527.836C528.767 233.893 529.478 233.613 529.969 233.055C530.443 232.547 530.68 231.853 530.68 230.973C530.68 230.245 530.434 229.602 529.943 229.043C529.385 228.417 528.665 228.104 527.785 228.104H526.084ZM536.29 227.621C536.29 225.201 537.01 223.195 538.448 221.604C539.887 219.995 541.715 219.191 543.933 219.191C546.133 219.191 547.927 219.995 549.316 221.604C550.704 223.195 551.398 225.201 551.398 227.621C551.398 230.38 550.653 232.555 549.163 234.146C547.758 235.653 545.955 236.406 543.755 236.406C541.571 236.406 539.802 235.653 538.448 234.146C537.01 232.555 536.29 230.38 536.29 227.621ZM539.54 227.85C539.54 229.525 539.938 230.981 540.733 232.217C541.529 233.452 542.536 234.07 543.755 234.07C544.991 234.07 546.04 233.436 546.903 232.166C547.733 230.947 548.148 229.525 548.148 227.9C548.148 226.174 547.767 224.684 547.005 223.432C546.209 222.128 545.168 221.485 543.882 221.502C542.595 221.502 541.538 222.145 540.708 223.432C539.929 224.667 539.54 226.14 539.54 227.85ZM558.455 229.17H557.871V236H554.875V219.344C555.349 219.344 556.238 219.327 557.541 219.293C558.489 219.276 559.268 219.268 559.877 219.268C561.451 219.268 562.653 219.699 563.482 220.562C564.329 221.409 564.744 222.585 564.727 224.092C564.71 225.294 564.363 226.335 563.686 227.215C563.076 227.993 562.306 228.527 561.375 228.814C562.746 230.727 564.727 232.987 567.316 235.594L563.482 236.279C562.213 234.976 560.537 232.606 558.455 229.17ZM557.871 221.197V227.342H558.938C560.85 227.342 561.807 226.25 561.807 224.066C561.807 223.339 561.663 222.721 561.375 222.213C560.952 221.468 560.258 221.113 559.293 221.146L557.871 221.197ZM572.165 225.564L572.14 236H569.474V219.268H571.962L578.665 229.779V219.369H581.306V235.619L578.843 236.381C577.15 233.266 574.924 229.661 572.165 225.564ZM585.621 219.344H588.693V236H585.621V219.344ZM595.7 225.564L595.675 236H593.009V219.268H595.497L602.2 229.779V219.369H604.841V235.619L602.378 236.381C600.685 233.266 598.459 229.661 595.7 225.564ZM615.351 236.152C613.117 236.152 611.348 235.247 610.045 233.436C608.894 231.844 608.318 229.898 608.318 227.596C608.301 225.497 608.843 223.592 609.943 221.883C611.264 219.852 613.041 218.836 615.275 218.836C616.071 218.836 616.976 218.988 617.992 219.293C619.16 219.665 620.074 220.122 620.734 220.664L619.668 222.645C618.28 221.697 617.01 221.214 615.859 221.197C614.556 221.197 613.515 221.993 612.736 223.584C612.093 224.887 611.771 226.267 611.771 227.723C611.771 229.348 612.127 230.736 612.838 231.887C613.549 233.038 614.42 233.613 615.453 233.613C616.502 233.613 617.323 233.469 617.916 233.182V228.104H614.488V225.844H620.988V234.299C619.854 234.993 618.957 235.458 618.297 235.695C617.45 236 616.469 236.152 615.351 236.152ZM541.85 256.17H541.266V263H538.27V246.344C538.744 246.344 539.633 246.327 540.936 246.293C541.884 246.276 542.663 246.268 543.272 246.268C544.846 246.268 546.048 246.699 546.878 247.562C547.724 248.409 548.139 249.585 548.122 251.092C548.105 252.294 547.758 253.335 547.081 254.215C546.471 254.993 545.701 255.527 544.77 255.814C546.141 257.727 548.122 259.987 550.711 262.594L546.878 263.279C545.608 261.976 543.932 259.606 541.85 256.17ZM541.266 248.197V254.342H542.333C544.245 254.342 545.202 253.25 545.202 251.066C545.202 250.339 545.058 249.721 544.77 249.213C544.347 248.468 543.653 248.113 542.688 248.146L541.266 248.197ZM552.056 254.621C552.056 252.201 552.776 250.195 554.214 248.604C555.653 246.995 557.481 246.191 559.699 246.191C561.899 246.191 563.694 246.995 565.082 248.604C566.47 250.195 567.164 252.201 567.164 254.621C567.164 257.38 566.419 259.555 564.929 261.146C563.524 262.653 561.722 263.406 559.521 263.406C557.337 263.406 555.569 262.653 554.214 261.146C552.776 259.555 552.056 257.38 552.056 254.621ZM555.306 254.85C555.306 256.525 555.704 257.981 556.5 259.217C557.295 260.452 558.302 261.07 559.521 261.07C560.757 261.07 561.806 260.436 562.669 259.166C563.499 257.947 563.914 256.525 563.914 254.9C563.914 253.174 563.533 251.684 562.771 250.432C561.975 249.128 560.934 248.485 559.648 248.502C558.362 248.502 557.304 249.145 556.474 250.432C555.695 251.667 555.306 253.14 555.306 254.85ZM569.829 254.621C569.829 252.201 570.548 250.195 571.987 248.604C573.426 246.995 575.254 246.191 577.471 246.191C579.672 246.191 581.466 246.995 582.854 248.604C584.242 250.195 584.936 252.201 584.936 254.621C584.936 257.38 584.191 259.555 582.702 261.146C581.297 262.653 579.494 263.406 577.293 263.406C575.11 263.406 573.341 262.653 571.987 261.146C570.548 259.555 569.829 257.38 569.829 254.621ZM573.079 254.85C573.079 256.525 573.476 257.981 574.272 259.217C575.068 260.452 576.075 261.07 577.293 261.07C578.529 261.07 579.579 260.436 580.442 259.166C581.271 257.947 581.686 256.525 581.686 254.9C581.686 253.174 581.305 251.684 580.543 250.432C579.748 249.128 578.707 248.485 577.42 248.502C576.134 248.502 575.076 249.145 574.247 250.432C573.468 251.667 573.079 253.14 573.079 254.85ZM602.048 251.904L598.087 263.025H595.396L591.41 251.803V263H588.667V246.318H592.603L597.148 258.582L601.769 246.318H605.451V263H602.048V251.904Z" fill="#8A9F3B"/>
<path d="M530.672 75.2715V82H527.676V65.3438L532.551 65.2676C533.973 65.2507 535.175 65.7246 536.157 66.6895C537.156 67.6374 537.655 68.8307 537.655 70.2695C537.655 71.6068 537.071 72.7832 535.903 73.7988C534.752 74.8145 533.457 75.3223 532.018 75.3223C531.815 75.3223 531.366 75.3053 530.672 75.2715ZM530.672 67.1973V73.4941H531.51C532.374 73.4941 533.11 73.181 533.719 72.5547C534.346 71.9115 534.659 71.1751 534.659 70.3457C534.659 68.3652 533.711 67.2988 531.815 67.1465C531.697 67.1296 531.502 67.138 531.231 67.1719C530.977 67.1888 530.791 67.1973 530.672 67.1973ZM549.283 78.1406H543.9L542.707 82.3047L540.015 81.9492L545.423 64.9883H548.064L553.523 81.8223L550.502 82.3047L549.283 78.1406ZM544.611 75.7285H548.572L546.642 68.9746L544.611 75.7285ZM559.54 71.5645L559.514 82H556.848V65.2676H559.336L566.04 75.7793V65.3691H568.68V81.6191L566.217 82.3809C564.525 79.2663 562.299 75.6608 559.54 71.5645ZM579.978 82H576.88V67.502H572.158V65.3945H584.447V67.502H579.978V82ZM591.53 75.1699H590.946V82H587.95V65.3438C588.424 65.3438 589.312 65.3268 590.616 65.293C591.564 65.276 592.342 65.2676 592.952 65.2676C594.526 65.2676 595.728 65.6992 596.557 66.5625C597.403 67.4089 597.818 68.5853 597.801 70.0918C597.784 71.2936 597.437 72.3346 596.76 73.2148C596.151 73.9935 595.381 74.5267 594.45 74.8145C595.821 76.7272 597.801 78.987 600.391 81.5938L596.557 82.2793C595.288 80.9759 593.612 78.6061 591.53 75.1699ZM590.946 67.1973V73.3418H592.012C593.925 73.3418 594.881 72.25 594.881 70.0664C594.881 69.3385 594.737 68.7207 594.45 68.2129C594.026 67.4681 593.332 67.1126 592.368 67.1465L590.946 67.1973ZM608.947 82H605.9V74.9414L601.177 65.8516L604.376 64.9883L607.728 72.3516L611.283 64.9883L613.669 65.8516L608.947 74.9414V82Z" fill="#8A9F3B"/>
<path d="M382.574 618.344H385.596V632.791H392.324V635H382.574V618.344ZM396.64 618.344H399.712V635H396.64V618.344ZM408.268 635.254L402.58 618.725L405.805 617.912L409.817 630.15L413.574 617.887L416.266 618.75L410.553 635.254H408.268ZM419.159 618.344H422.232V635H419.159V618.344ZM429.238 624.564L429.213 635H426.547V618.268H429.035L435.738 628.779V618.369H438.379V634.619L435.916 635.381C434.223 632.266 431.997 628.661 429.238 624.564ZM448.89 635.152C446.655 635.152 444.886 634.247 443.583 632.436C442.432 630.844 441.856 628.898 441.856 626.596C441.84 624.497 442.381 622.592 443.481 620.883C444.802 618.852 446.579 617.836 448.813 617.836C449.609 617.836 450.515 617.988 451.53 618.293C452.698 618.665 453.612 619.122 454.272 619.664L453.206 621.645C451.818 620.697 450.549 620.214 449.397 620.197C448.094 620.197 447.053 620.993 446.274 622.584C445.631 623.887 445.31 625.267 445.31 626.723C445.31 628.348 445.665 629.736 446.376 630.887C447.087 632.038 447.959 632.613 448.991 632.613C450.041 632.613 450.862 632.469 451.454 632.182V627.104H448.026V624.844H454.526V633.299C453.392 633.993 452.495 634.458 451.835 634.695C450.989 635 450.007 635.152 448.89 635.152ZM470.546 628.17H469.962V635H466.966V618.344C467.44 618.344 468.328 618.327 469.632 618.293C470.58 618.276 471.358 618.268 471.968 618.268C473.542 618.268 474.744 618.699 475.573 619.562C476.42 620.409 476.834 621.585 476.817 623.092C476.8 624.294 476.453 625.335 475.776 626.215C475.167 626.993 474.397 627.527 473.466 627.814C474.837 629.727 476.817 631.987 479.407 634.594L475.573 635.279C474.304 633.976 472.628 631.606 470.546 628.17ZM469.962 620.197V626.342H471.028C472.941 626.342 473.897 625.25 473.897 623.066C473.897 622.339 473.754 621.721 473.466 621.213C473.043 620.468 472.349 620.113 471.384 620.146L469.962 620.197ZM480.752 626.621C480.752 624.201 481.471 622.195 482.91 620.604C484.349 618.995 486.177 618.191 488.394 618.191C490.595 618.191 492.389 618.995 493.777 620.604C495.165 622.195 495.859 624.201 495.859 626.621C495.859 629.38 495.114 631.555 493.625 633.146C492.22 634.653 490.417 635.406 488.217 635.406C486.033 635.406 484.264 634.653 482.91 633.146C481.471 631.555 480.752 629.38 480.752 626.621ZM484.002 626.85C484.002 628.525 484.4 629.981 485.195 631.217C485.991 632.452 486.998 633.07 488.217 633.07C489.452 633.07 490.502 632.436 491.365 631.166C492.195 629.947 492.609 628.525 492.609 626.9C492.609 625.174 492.228 623.684 491.467 622.432C490.671 621.128 489.63 620.485 488.344 620.502C487.057 620.502 485.999 621.145 485.17 622.432C484.391 623.667 484.002 625.14 484.002 626.85ZM498.524 626.621C498.524 624.201 499.244 622.195 500.682 620.604C502.121 618.995 503.949 618.191 506.167 618.191C508.367 618.191 510.162 618.995 511.55 620.604C512.938 622.195 513.632 624.201 513.632 626.621C513.632 629.38 512.887 631.555 511.397 633.146C509.992 634.653 508.19 635.406 505.989 635.406C503.806 635.406 502.037 634.653 500.682 633.146C499.244 631.555 498.524 629.38 498.524 626.621ZM501.774 626.85C501.774 628.525 502.172 629.981 502.968 631.217C503.763 632.452 504.77 633.07 505.989 633.07C507.225 633.07 508.274 632.436 509.138 631.166C509.967 629.947 510.382 628.525 510.382 626.9C510.382 625.174 510.001 623.684 509.239 622.432C508.444 621.128 507.403 620.485 506.116 620.502C504.83 620.502 503.772 621.145 502.942 622.432C502.164 623.667 501.774 625.14 501.774 626.85ZM530.744 623.904L526.783 635.025H524.092L520.105 623.803V635H517.363V618.318H521.299L525.844 630.582L530.465 618.318H534.146V635H530.744V623.904Z" fill="#8A9F3B"/>
<path d="M71.8234 652.443C71.8234 650.192 72.4158 648.254 73.6007 646.629C74.9718 644.767 76.8253 643.836 79.1613 643.836C80.6339 643.836 82.3351 644.437 84.2648 645.639L83.173 647.67C82.0727 647.027 81.5141 646.688 81.4972 646.654C80.8709 646.367 80.2277 646.214 79.5675 646.197C78.1795 646.197 77.0877 646.984 76.2921 648.559C75.6489 649.811 75.3273 651.199 75.3273 652.723C75.3273 654.365 75.7504 655.753 76.5968 656.887C77.3924 657.953 78.3572 658.495 79.4913 658.512C80.1007 658.512 80.6762 658.402 81.2179 658.182C81.6411 658.029 82.3097 657.691 83.2238 657.166L84.4425 659.197C83.2915 659.942 82.3943 660.45 81.7511 660.721C80.9217 661.042 80.0076 661.203 79.0089 661.203C76.656 661.203 74.8279 660.289 73.5245 658.461C72.3904 656.836 71.8234 654.83 71.8234 652.443ZM96.9591 653.154H91.2462V661H88.1739V644.369H91.2462V650.844H96.9591V644.369H100.006V661H96.9591V653.154ZM104.321 644.344H107.394V661H104.321V644.344ZM125.344 649.904L121.383 661.025H118.691L114.705 649.803V661H111.963V644.318H115.898L120.443 656.582L125.064 644.318H128.746V661H125.344V649.904ZM136.058 650.564L136.032 661H133.366V644.268H135.854L142.558 654.779V644.369H145.198V660.619L142.735 661.381C141.043 658.266 138.817 654.661 136.058 650.564ZM152.51 650.844H158.426V653.154L152.51 653.129V658.689H158.756V661H149.514V644.369H158.832V646.578H152.51V650.844ZM168.962 661H165.915V653.941L161.192 644.852L164.391 643.988L167.743 651.352L171.298 643.988L173.684 644.852L168.962 653.941V661Z" fill="#8A9F3B"/>
<path d="M84.4674 780.867L85.8639 778.861C86.8964 780.08 88.0813 780.689 89.4186 780.689C91.2467 780.689 92.1523 779.801 92.1354 778.023C92.1354 777.126 91.5006 776.415 90.2311 775.891C88.166 775.027 87.0149 774.511 86.7779 774.342C85.5253 773.479 84.9075 772.15 84.9244 770.355C84.9413 768.934 85.5084 767.774 86.6256 766.877C87.5735 766.115 88.6061 765.734 89.7232 765.734C91.5175 765.734 93.151 766.352 94.6236 767.588L93.5826 769.771C92.3977 768.654 91.2805 768.096 90.2311 768.096C89.5201 768.096 88.9954 768.24 88.6568 768.527C88.2337 768.866 88.0305 769.484 88.0475 770.381C88.0475 771.176 88.6568 771.82 89.8756 772.311C91.7714 773.072 92.9055 773.597 93.2779 773.885C94.5136 774.799 95.123 776.161 95.1061 777.973C95.1061 779.75 94.5305 781.113 93.3795 782.061C92.3808 782.856 91.1282 783.254 89.6217 783.254C87.3196 783.254 85.6015 782.458 84.4674 780.867ZM105.287 783H102.189V768.502H97.4664V766.395H109.755V768.502H105.287V783ZM121.485 779.141H116.102L114.909 783.305L112.217 782.949L117.626 765.988H120.266L125.725 782.822L122.704 783.305L121.485 779.141ZM116.813 776.729H120.774L118.844 769.975L116.813 776.729ZM129.05 766.344H132.123V783H129.05V766.344ZM140.018 776.17H139.434V783H136.438V766.344C136.912 766.344 137.801 766.327 139.104 766.293C140.052 766.276 140.831 766.268 141.44 766.268C143.014 766.268 144.216 766.699 145.045 767.562C145.892 768.409 146.306 769.585 146.289 771.092C146.273 772.294 145.926 773.335 145.248 774.215C144.639 774.993 143.869 775.527 142.938 775.814C144.309 777.727 146.289 779.987 148.879 782.594L145.045 783.279C143.776 781.976 142.1 779.606 140.018 776.17ZM139.434 768.197V774.342H140.5C142.413 774.342 143.37 773.25 143.37 771.066C143.37 770.339 143.226 769.721 142.938 769.213C142.515 768.468 141.821 768.113 140.856 768.146L139.434 768.197ZM150.021 780.867L151.417 778.861C152.45 780.08 153.635 780.689 154.972 780.689C156.8 780.689 157.706 779.801 157.689 778.023C157.689 777.126 157.054 776.415 155.785 775.891C153.719 775.027 152.568 774.511 152.331 774.342C151.079 773.479 150.461 772.15 150.478 770.355C150.495 768.934 151.062 767.774 152.179 766.877C153.127 766.115 154.16 765.734 155.277 765.734C157.071 765.734 158.704 766.352 160.177 767.588L159.136 769.771C157.951 768.654 156.834 768.096 155.785 768.096C155.074 768.096 154.549 768.24 154.21 768.527C153.787 768.866 153.584 769.484 153.601 770.381C153.601 771.176 154.21 771.82 155.429 772.311C157.325 773.072 158.459 773.597 158.831 773.885C160.067 774.799 160.676 776.161 160.66 777.973C160.66 779.75 160.084 781.113 158.933 782.061C157.934 782.856 156.682 783.254 155.175 783.254C152.873 783.254 151.155 782.458 150.021 780.867Z" fill="#8A9F3B"/>
</g>
<defs>
<filter id="filter0_g_194_699" x="0.7" y="0.7" width="684.1" height="881.948" filterUnits="userSpaceOnUse" color-interpolation-filters="sRGB">
<feFlood flood-opacity="0" result="BackgroundImageFix"/>
<feBlend mode="normal" in="SourceGraphic" in2="BackgroundImageFix" result="shape"/>
<feTurbulence type="fractalNoise" baseFrequency="0.41493773460388184 0.41493773460388184" numOctaves="3" seed="4240" />
<feDisplacementMap in="shape" scale="2.5999999046325684" xChannelSelector="R" yChannelSelector="G" result="displacedImage" width="100%" height="100%" />
<feMerge result="effect1_texture_194_699">
<feMergeNode in="displacedImage"/>
</feMerge>
</filter>
</defs>
</svg>
