<svg width="509" height="851" viewBox="0 0 509 851" fill="none" xmlns="http://www.w3.org/2000/svg">
<g filter="url(#filter0_g_72_867)">
<path d="M95.2741 281.216L59.215 44.0996" stroke="#1A1A1A" stroke-width="17.4832" stroke-linecap="round"/>
<circle cx="56.4832" cy="29.8946" r="17.4832" fill="#1A1A1A"/>
</g>
<g filter="url(#filter1_g_72_867)">
<path d="M23 341.94C23 332.504 27.1651 323.548 34.3819 317.468L169.449 203.673C178.939 195.678 192.197 193.89 203.466 199.086L462.399 318.481C473.738 323.709 481 335.054 481 347.54V816.186C481 833.859 466.673 848.186 449 848.186H55C37.3269 848.186 23 833.859 23 816.186V341.94Z" fill="#BDA73A"/>
<g filter="url(#filter2_g_72_867)">
<path d="M326.977 165.432L177 158.936L318 370.956H493.483C498.511 370.956 501.309 365.144 498.174 361.214L352.191 178.25C346.034 170.534 336.839 165.86 326.977 165.432Z" fill="#BDA73A"/>
<path d="M326.977 165.432L177 158.936L318 370.956H493.483C498.511 370.956 501.309 365.144 498.174 361.214L352.191 178.25C346.034 170.534 336.839 165.86 326.977 165.432Z" stroke="#BDA73A" stroke-width="12.5804" stroke-linecap="round"/>
</g>
<path d="M322.338 354.272L177.725 182.556C176.283 180.844 173.644 180.852 172.213 182.572L29.3379 354.272" stroke="#BDA73A" stroke-width="55.7133" stroke-linecap="round"/>
<g filter="url(#filter3_g_72_867)">
<path d="M337.338 392.272L177.338 198.616C175.903 196.879 173.242 196.875 171.802 198.608L29.3379 370.015" stroke="#1A1A1A" stroke-width="30" stroke-linecap="round"/>
</g>
<g style="mix-blend-mode:multiply" opacity="0.4" filter="url(#filter4_g_72_867)">
<path d="M258.483 205.659L274.658 227.133" stroke="#BDA73A" stroke-width="21.5664" stroke-linecap="round"/>
</g>
<g style="mix-blend-mode:multiply" opacity="0.4" filter="url(#filter5_g_72_867)">
<path d="M313.298 251.084L325.878 268.428" stroke="#BDA73A" stroke-width="21.5664" stroke-linecap="round"/>
</g>
<g style="mix-blend-mode:multiply" opacity="0.4" filter="url(#filter6_g_72_867)">
<path d="M324.082 208.137L336.662 226.307" stroke="#BDA73A" stroke-width="21.5664" stroke-linecap="round"/>
</g>
<path d="M328 378.105H485V817.105C485 834.778 470.673 849.105 453 849.105H328V378.105Z" fill="#1A1A1A"/>
<g filter="url(#filter7_g_72_867)">
<path d="M84.7877 427.49L101.406 396.144C108.708 382.37 116.673 367.964 130.476 360.717C149.435 350.765 169.504 353.965 179.149 357.943L145.588 447.33L85.4331 429.043C84.7777 428.843 84.4668 428.096 84.7877 427.49Z" fill="#F6F0E5" stroke="#F6F0E5" stroke-width="18.5138" stroke-linecap="round"/>
<path d="M269.498 427.49L252.88 396.144C245.578 382.37 237.613 367.964 223.81 360.717C204.85 350.765 184.781 353.965 175.136 357.943L208.698 447.33L268.853 429.043C269.508 428.843 269.819 428.096 269.498 427.49Z" fill="#F6F0E5" stroke="#F6F0E5" stroke-width="18.5138" stroke-linecap="round"/>
<circle cx="157.589" cy="410.849" r="31.1979" transform="rotate(30 157.589 410.849)" fill="#BD9ADA"/>
<path d="M167.015 644.879H118.641L108.207 771.208H167.015V644.879Z" fill="#E8B2AB"/>
<path d="M186.619 644.879H234.994L245.427 771.208H186.619V644.879Z" fill="#E8B2AB"/>
<path d="M119.674 416.105H167.325V517.743C167.325 551.255 149.021 582.09 119.602 598.139L99.4997 609.105L62.5762 561.925C57.6714 555.658 56.9491 547.079 60.7369 540.08L75.0891 513.559C76.6712 510.636 77.4997 507.364 77.4997 504.04V465.984C77.4997 460.624 79.6513 455.488 83.472 451.728L119.674 416.105Z" fill="#29460A"/>
<path d="M235.651 416.105H188V517.743C188 551.255 206.304 582.09 235.723 598.139L255.825 609.105L292.749 561.925C297.654 555.658 298.376 547.079 294.588 540.08L280.236 513.559C278.654 510.636 277.825 507.364 277.825 504.04V465.984C277.825 460.624 275.674 455.488 271.853 451.728L235.651 416.105Z" fill="#29460A"/>
<path d="M125.362 501.126C125.362 501.126 106.223 525.462 83.6476 588.467" stroke="#1A1A1A" stroke-width="42.4729" stroke-linejoin="round"/>
<ellipse cx="26.6817" cy="27.2262" rx="26.6817" ry="27.2262" transform="matrix(0.0872418 -0.996187 -0.996187 -0.0872418 97.2451 646.015)" fill="#E8B2AB"/>
<path d="M108.824 595.807C109.489 594.216 108.461 592.429 106.752 592.204V592.204C92.9875 590.396 79.8947 585.171 68.6672 577.006L66.1998 575.211C64.6376 574.075 62.4244 574.695 61.6789 576.477L54.5369 593.549C53.3662 596.347 53.9917 599.575 56.1232 601.734L57.7311 603.362C67.6066 613.364 81.2667 618.699 95.3067 618.037V618.037C97.9344 617.913 100.256 616.287 101.271 613.861L108.824 595.807Z" fill="#F6F0E5"/>
<path d="M226.847 501.126C226.847 501.126 245.986 525.462 268.561 588.467" stroke="#1A1A1A" stroke-width="42.4729" stroke-linejoin="round"/>
<ellipse cx="279.45" cy="618.06" rx="26.6817" ry="27.2262" transform="rotate(-95.0049 279.45 618.06)" fill="#E8B2AB"/>
<path d="M243.385 595.807C242.719 594.216 243.748 592.429 245.457 592.204V592.204C259.221 590.396 272.314 585.171 283.542 577.006L286.009 575.211C287.571 574.075 289.784 574.695 290.53 576.477L297.672 593.549C298.842 596.347 298.217 599.575 296.085 601.734L294.478 603.362C284.602 613.364 270.942 618.699 256.902 618.037V618.037C254.274 617.913 251.953 616.287 250.937 613.861L243.385 595.807Z" fill="#F6F0E5"/>
<ellipse cx="177.892" cy="415.881" rx="65.3429" ry="50.6407" fill="#E8B2AB"/>
<path d="M76.3223 739.473L127.312 514.911L223.46 503.105L276.708 739.493C278.396 746.983 272.7 754.105 265.022 754.105H88.0044C80.3179 754.105 74.6202 746.969 76.3223 739.473Z" fill="#1A1A1A"/>
<path d="M160.465 452.117H196.403V477.71C196.403 487.634 188.358 495.679 178.434 495.679V495.679C168.51 495.679 160.465 487.634 160.465 477.71V452.117Z" fill="#E8B2AB"/>
<path d="M177.92 365.615C209.349 365.615 235.591 382.733 241.817 405.536C253.446 405.632 262.836 413.395 262.837 422.959C262.837 432.583 253.329 440.384 241.6 440.384C239.494 440.384 237.46 440.131 235.539 439.662C224.543 455.514 202.866 466.299 177.92 466.299C153.339 466.299 131.931 455.829 120.79 440.358C120.405 440.375 120.017 440.384 119.627 440.384C107.898 440.384 98.3904 432.583 98.3904 422.959C98.3906 414.979 104.929 408.251 113.85 406.187C119.75 383.06 146.192 365.615 177.92 365.615Z" fill="#E8B2AB"/>
<path d="M161.071 468.981C160.876 469.787 160.774 470.618 160.774 471.467C160.774 478.922 168.613 484.964 178.284 484.964C187.955 484.964 195.795 478.922 195.795 471.467C195.795 470.714 195.713 469.976 195.559 469.256L255.805 490.266C258.726 491.285 259.65 494.868 257.441 497.033C246.158 508.091 214.816 535.105 177.92 535.105C141.023 535.105 109.683 508.091 98.3991 497.033C96.1901 494.868 97.1144 491.285 100.035 490.266L161.071 468.981Z" fill="#F6F0E5"/>
<path d="M111 406.017C149.067 407.709 169.894 384.486 177 370.506L170.773 358.105L159.837 358.414C133.65 359.153 112.409 379.858 111 406.017Z" fill="#29460A"/>
<path d="M243 406.017C204.932 407.709 184.106 384.486 177 370.506L169.5 358.605L183.226 358.105L194.163 358.414C220.35 359.153 241.591 379.858 243 406.017Z" fill="#29460A"/>
<g opacity="0.4" filter="url(#filter8_g_72_867)">
<ellipse cx="210.015" cy="431.427" rx="19.0583" ry="14.1576" fill="#DD763B" fill-opacity="0.5"/>
</g>
<g opacity="0.4" filter="url(#filter9_g_72_867)">
<ellipse cx="145.763" cy="431.427" rx="19.0583" ry="14.1576" fill="#DD763B" fill-opacity="0.5"/>
</g>
<circle cx="161.009" cy="420.237" r="3.81167" fill="#1A1A1A"/>
<circle cx="192.594" cy="420.237" r="3.81167" fill="#1A1A1A"/>
<path d="M193.718 409.742L187.69 411.744" stroke="#29460A" stroke-width="6.53429" stroke-linecap="round"/>
<path d="M193.718 409.742L187.69 411.744" stroke="#5A0000" stroke-opacity="0.2" stroke-width="6.53429" stroke-linecap="round" style="mix-blend-mode:multiply"/>
<path d="M160.464 409.742L166.492 411.744" stroke="#29460A" stroke-width="6.53429" stroke-linecap="round"/>
<path d="M160.464 409.742L166.492 411.744" stroke="#5A0000" stroke-opacity="0.2" stroke-width="6.53429" stroke-linecap="round" style="mix-blend-mode:multiply"/>
<path d="M184.424 424.891V424.891C179.627 427.287 173.971 427.29 169.177 424.891V424.891" stroke="#1A1A1A" stroke-width="5.44524" stroke-linecap="round" stroke-linejoin="round"/>
<path d="M168 765.105H107.671C89.6272 765.105 74.9997 779.732 74.9997 797.776V811.66C74.9997 814.667 77.4376 817.105 80.4449 817.105H168V765.105Z" fill="#1A1A1A"/>
<path d="M186 765.105H245.328C263.372 765.105 278 779.732 278 797.776V811.66C278 814.667 275.562 817.105 272.554 817.105H186V765.105Z" fill="#1A1A1A"/>
<path d="M118.43 425.189L110.369 420.535" stroke="#EA968B" stroke-width="6.53429" stroke-linecap="round"/>
<path d="M242.143 425.189L250.204 420.535" stroke="#EA968B" stroke-width="6.53429" stroke-linecap="round"/>
<path d="M117.397 707.283L135.824 591.105H221.992L241.447 707.17C242.783 715.139 236.639 722.399 228.558 722.399H130.304C122.27 722.399 116.139 715.218 117.397 707.283Z" fill="#F6F0E5"/>
<path d="M232.388 577.105C236.288 577.105 239.713 579.697 240.772 583.45L242.002 587.806C243.572 593.366 239.395 598.886 233.618 598.886H120.513C114.736 598.886 110.558 593.366 112.128 587.806L113.358 583.45C114.418 579.697 117.842 577.105 121.742 577.105H232.388Z" fill="#F6F0E5"/>
<path d="M194.782 611.105C194.782 611.105 199 599.605 194.782 589.947" stroke="#B2B33A" stroke-width="7" stroke-linecap="round"/>
<circle cx="192.158" cy="575.263" r="17" transform="rotate(29.4222 192.158 575.263)" fill="#CBA2ED"/>
<circle cx="192.156" cy="575.264" r="5.91313" transform="rotate(30 192.156 575.264)" fill="#F6F0E5"/>
<circle cx="17" cy="17" r="17" transform="matrix(-0.871023 0.491242 0.491242 0.871023 220.615 568.105)" fill="#D7859C"/>
<circle cx="5.91313" cy="5.91313" r="5.91313" transform="matrix(-0.866025 0.5 0.5 0.866025 216.324 583.187)" fill="#F6F0E5"/>
<path d="M189 609.105H221.5" stroke="#DDDDDD" stroke-width="11" stroke-linecap="round"/>
</g>
</g>
<g filter="url(#filter10_g_72_867)">
<path d="M177.289 23.736L183.428 82.6198C238.35 56.1506 268.75 81.7532 289.957 56.9379C290.529 56.268 290.098 55.2151 289.222 55.1181C283.167 54.4476 265.366 51.5229 257.37 39.8707C256.392 38.4448 256.976 36.5523 258.397 35.5666C267.959 28.9333 276.971 17.1429 280.719 11.9047C281.327 11.0563 280.462 9.97979 279.47 10.3029C224.835 28.1001 203.025 7.26553 179.39 19.645C177.903 20.4238 177.115 22.0667 177.289 23.736Z" fill="#E8B2AB" stroke="#E8B2AB" stroke-width="8.7416"/>
<path d="M175.536 21.2814L218.314 32.109L173.179 43.6086L170.157 26.2688C169.614 23.1488 172.466 20.5043 175.536 21.2814Z" fill="#1A1A1A"/>
<path d="M206.772 36.4815C150.804 61.1304 112.027 32.2927 50.0861 57.1329C45.4851 58.978 42.9364 63.8689 43.7873 68.7524L53.7738 126.069C55.0087 133.156 62.7051 137.095 69.3386 134.311C157.862 97.1539 176.972 133.73 227.225 112.479C231.653 110.606 234.036 105.812 233.211 101.076L223.402 44.7825C222.1 37.3052 213.718 33.4223 206.772 36.4815Z" fill="#E8B2AB"/>
<path d="M99.6372 85.7105L108.05 84.885L108.373 88.1708L99.9561 88.9602L100.732 96.8677L109.614 95.9962L109.937 99.282L96.7937 100.572L94.4731 76.9211L107.725 75.6208L108.033 78.7622L99.042 79.6444L99.6372 85.7105ZM114.235 98.7873L111.911 75.1007C113.876 74.8107 115.868 74.5545 117.887 74.332C125.398 73.5951 129.581 77.219 130.437 85.2037C130.832 88.9806 130.168 91.9987 128.446 94.2578C126.685 96.6179 123.902 97.9846 120.099 98.3578C119.497 98.4168 118.616 98.479 117.456 98.5442C116.32 98.6071 115.246 98.6881 114.235 98.7873ZM118.496 77.1887C118.327 77.2053 118.038 77.2336 117.629 77.2738C117.27 77.3333 116.947 77.3772 116.658 77.4055L118.404 95.2066L120.463 95.0047C122.364 94.8181 123.816 93.7642 124.819 91.8431C125.719 90.1264 126.064 88.1848 125.851 86.0183C125.232 79.7115 122.78 76.7683 118.496 77.1887ZM133.158 73.0888L137.527 72.6601L139.851 96.3467L135.482 96.7754L133.158 73.0888ZM154.809 94.8791L150.403 95.3114L148.38 74.6939L141.664 75.3529L141.37 72.3559L158.846 70.6412L159.141 73.6381L152.786 74.2616L154.809 94.8791ZM176.434 81.4925L168.31 82.2897L169.405 93.4469L165.036 93.8756L162.715 70.2251L167.084 69.7964L167.988 79.0039L176.112 78.2067L175.208 68.9993L179.541 68.5741L181.862 92.2246L177.529 92.6498L176.434 81.4925Z" fill="#1A1A1A"/>
<g style="mix-blend-mode:multiply" opacity="0.61">
<path d="M223.908 35.5708L230.093 70.0536" stroke="#E8B2AB" stroke-width="8.7416" stroke-linecap="round"/>
</g>
</g>
<defs>
<filter id="filter0_g_72_867" x="37.5795" y="10.9909" width="67.8579" height="280.388" filterUnits="userSpaceOnUse" color-interpolation-filters="sRGB">
<feFlood flood-opacity="0" result="BackgroundImageFix"/>
<feBlend mode="normal" in="SourceGraphic" in2="BackgroundImageFix" result="shape"/>
<feTurbulence type="fractalNoise" baseFrequency="0.37973597645759583 0.37973597645759583" numOctaves="3" seed="4240" />
<feDisplacementMap in="shape" scale="2.8410215377807617" xChannelSelector="R" yChannelSelector="G" result="displacedImage" width="100%" height="100%" />
<feMerge result="effect1_texture_72_867">
<feMergeNode in="displacedImage"/>
</feMerge>
</filter>
<filter id="filter1_g_72_867" x="0.18053" y="150.816" width="506.916" height="699.589" filterUnits="userSpaceOnUse" color-interpolation-filters="sRGB">
<feFlood flood-opacity="0" result="BackgroundImageFix"/>
<feBlend mode="normal" in="SourceGraphic" in2="BackgroundImageFix" result="shape"/>
<feTurbulence type="fractalNoise" baseFrequency="0.41493773460388184 0.41493773460388184" numOctaves="3" seed="4240" />
<feDisplacementMap in="shape" scale="2.5999999046325684" xChannelSelector="R" yChannelSelector="G" result="displacedImage" width="100%" height="100%" />
<feMerge result="effect1_texture_72_867">
<feMergeNode in="displacedImage"/>
</feMerge>
</filter>
<filter id="filter2_g_72_867" x="162.574" y="149.779" width="345.559" height="229.803" filterUnits="userSpaceOnUse" color-interpolation-filters="sRGB">
<feFlood flood-opacity="0" result="BackgroundImageFix"/>
<feBlend mode="normal" in="SourceGraphic" in2="BackgroundImageFix" result="shape"/>
<feTurbulence type="fractalNoise" baseFrequency="0.23087981343269348 0.23087981343269348" numOctaves="3" seed="4240" />
<feDisplacementMap in="shape" scale="4.6727256774902344" xChannelSelector="R" yChannelSelector="G" result="displacedImage" width="100%" height="100%" />
<feMerge result="effect1_texture_72_867">
<feMergeNode in="displacedImage"/>
</feMerge>
</filter>
<filter id="filter3_g_72_867" x="13.0375" y="181.011" width="340.601" height="227.562" filterUnits="userSpaceOnUse" color-interpolation-filters="sRGB">
<feFlood flood-opacity="0" result="BackgroundImageFix"/>
<feBlend mode="normal" in="SourceGraphic" in2="BackgroundImageFix" result="shape"/>
<feTurbulence type="fractalNoise" baseFrequency="0.41493773460388184 0.41493773460388184" numOctaves="3" seed="4240" />
<feDisplacementMap in="shape" scale="2.5999999046325684" xChannelSelector="R" yChannelSelector="G" result="displacedImage" width="100%" height="100%" />
<feMerge result="effect1_texture_72_867">
<feMergeNode in="displacedImage"/>
</feMerge>
</filter>
<filter id="filter4_g_72_867" x="245.363" y="192.539" width="42.4152" height="47.714" filterUnits="userSpaceOnUse" color-interpolation-filters="sRGB">
<feFlood flood-opacity="0" result="BackgroundImageFix"/>
<feBlend mode="normal" in="SourceGraphic" in2="BackgroundImageFix" result="shape"/>
<feTurbulence type="fractalNoise" baseFrequency="0.23087981343269348 0.23087981343269348" numOctaves="3" seed="4240" />
<feDisplacementMap in="shape" scale="4.6727256774902344" xChannelSelector="R" yChannelSelector="G" result="displacedImage" width="100%" height="100%" />
<feMerge result="effect1_texture_72_867">
<feMergeNode in="displacedImage"/>
</feMerge>
</filter>
<filter id="filter5_g_72_867" x="300.177" y="237.963" width="38.8211" height="43.5846" filterUnits="userSpaceOnUse" color-interpolation-filters="sRGB">
<feFlood flood-opacity="0" result="BackgroundImageFix"/>
<feBlend mode="normal" in="SourceGraphic" in2="BackgroundImageFix" result="shape"/>
<feTurbulence type="fractalNoise" baseFrequency="0.23087981343269348 0.23087981343269348" numOctaves="3" seed="4240" />
<feDisplacementMap in="shape" scale="4.6727256774902344" xChannelSelector="R" yChannelSelector="G" result="displacedImage" width="100%" height="100%" />
<feMerge result="effect1_texture_72_867">
<feMergeNode in="displacedImage"/>
</feMerge>
</filter>
<filter id="filter6_g_72_867" x="310.961" y="195.016" width="38.8215" height="44.411" filterUnits="userSpaceOnUse" color-interpolation-filters="sRGB">
<feFlood flood-opacity="0" result="BackgroundImageFix"/>
<feBlend mode="normal" in="SourceGraphic" in2="BackgroundImageFix" result="shape"/>
<feTurbulence type="fractalNoise" baseFrequency="0.23087981343269348 0.23087981343269348" numOctaves="3" seed="4240" />
<feDisplacementMap in="shape" scale="4.6727256774902344" xChannelSelector="R" yChannelSelector="G" result="displacedImage" width="100%" height="100%" />
<feMerge result="effect1_texture_72_867">
<feMergeNode in="displacedImage"/>
</feMerge>
</filter>
<filter id="filter7_g_72_867" x="43.811" y="343.432" width="264.279" height="475.089" filterUnits="userSpaceOnUse" color-interpolation-filters="sRGB">
<feFlood flood-opacity="0" result="BackgroundImageFix"/>
<feBlend mode="normal" in="SourceGraphic" in2="BackgroundImageFix" result="shape"/>
<feTurbulence type="fractalNoise" baseFrequency="0.38100969791412354 0.38100969791412354" numOctaves="3" seed="4240" />
<feDisplacementMap in="shape" scale="2.831524133682251" xChannelSelector="R" yChannelSelector="G" result="displacedImage" width="100%" height="100%" />
<feMerge result="effect1_texture_72_867">
<feMergeNode in="displacedImage"/>
</feMerge>
</filter>
<filter id="filter8_g_72_867" x="179.01" y="405.323" width="62.0104" height="52.2089" filterUnits="userSpaceOnUse" color-interpolation-filters="sRGB">
<feFlood flood-opacity="0" result="BackgroundImageFix"/>
<feBlend mode="normal" in="SourceGraphic" in2="BackgroundImageFix" result="shape"/>
<feTurbulence type="fractalNoise" baseFrequency="1.8364666700363159 1.8364666700363159" numOctaves="3" seed="1626" />
<feDisplacementMap in="shape" scale="23.893709182739258" xChannelSelector="R" yChannelSelector="G" result="displacedImage" width="100%" height="100%" />
<feMerge result="effect1_texture_72_867">
<feMergeNode in="displacedImage"/>
</feMerge>
</filter>
<filter id="filter9_g_72_867" x="114.758" y="405.323" width="62.0104" height="52.2089" filterUnits="userSpaceOnUse" color-interpolation-filters="sRGB">
<feFlood flood-opacity="0" result="BackgroundImageFix"/>
<feBlend mode="normal" in="SourceGraphic" in2="BackgroundImageFix" result="shape"/>
<feTurbulence type="fractalNoise" baseFrequency="1.8364666700363159 1.8364666700363159" numOctaves="3" seed="1626" />
<feDisplacementMap in="shape" scale="23.893709182739258" xChannelSelector="R" yChannelSelector="G" result="displacedImage" width="100%" height="100%" />
<feMerge result="effect1_texture_72_867">
<feMergeNode in="displacedImage"/>
</feMerge>
</filter>
<filter id="filter10_g_72_867" x="42.2044" y="4.45009" width="253.818" height="132.181" filterUnits="userSpaceOnUse" color-interpolation-filters="sRGB">
<feFlood flood-opacity="0" result="BackgroundImageFix"/>
<feBlend mode="normal" in="SourceGraphic" in2="BackgroundImageFix" result="shape"/>
<feTurbulence type="fractalNoise" baseFrequency="0.37973597645759583 0.37973597645759583" numOctaves="3" seed="4240" />
<feDisplacementMap in="shape" scale="2.8410215377807617" xChannelSelector="R" yChannelSelector="G" result="displacedImage" width="100%" height="100%" />
<feMerge result="effect1_texture_72_867">
<feMergeNode in="displacedImage"/>
</feMerge>
</filter>
</defs>
</svg>
