<svg width="685" height="883" viewBox="0 0 685 883" fill="none" xmlns="http://www.w3.org/2000/svg">
<g filter="url(#filter0_g_194_644)">
<rect x="5" y="4.39209" width="675" height="823" rx="27" fill="#F6F0E5" stroke="#8A9F3B" stroke-width="6"/>
<path d="M2.5 141.892H214.5C216.157 141.892 217.5 140.549 217.5 138.892V4.89209" stroke="#8A9F3B" stroke-width="6"/>
<path d="M437 826.392V422.392" stroke="#8A9F3B" stroke-width="6"/>
<path d="M435.958 614.322C402.028 612.755 375 584.751 375 550.434L375 548.35C375 514.033 402.028 486.029 435.958 484.462L435.958 614.322Z" stroke="#8A9F3B" stroke-width="6"/>
<path d="M681 364.392L550 364.392C548.343 364.392 547 365.735 547 367.392L547 424.392" stroke="#8A9F3B" stroke-width="6"/>
<path d="M441 483.392L484 483.392C485.657 483.392 487 484.735 487 486.392L487 612.392C487 614.049 485.657 615.392 484 615.392L441 615.392" stroke="#8A9F3B" stroke-width="6"/>
<path d="M218 341.892V135.392" stroke="#8A9F3B" stroke-width="6"/>
<path d="M4 424.392H681" stroke="#8A9F3B" stroke-width="6"/>
<path d="M439.5 679.392H683.5" stroke="#8A9F3B" stroke-width="6"/>
<path d="M439.5 735.392H683.5" stroke="#8A9F3B" stroke-width="6"/>
<path d="M494 679.392V735.392" stroke="#8A9F3B" stroke-width="6"/>
<path d="M624 679.392V735.392" stroke="#8A9F3B" stroke-width="6"/>
<path d="M559 679.392V735.392" stroke="#8A9F3B" stroke-width="6"/>
<path d="M516 825.892L582 878.392" stroke="#8A9F3B" stroke-width="6"/>
<path d="M406.966 215.765L406.077 217.035V222.392H403.005V205.736H406.077V213.277L411.308 204.898L414.05 206.269C412.662 208.182 410.859 210.695 408.642 213.81C409.268 214.843 410.326 216.239 411.816 218C413.034 219.404 414.245 220.801 415.446 222.189L411.816 223.001C410.106 220.666 408.489 218.253 406.966 215.765ZM418.137 205.736H421.209V222.392H418.137V205.736ZM432.507 222.392H429.409V207.894H424.687V205.787H436.976V207.894H432.507V222.392ZM439.641 213.835C439.641 211.584 440.233 209.646 441.418 208.021C442.789 206.159 444.643 205.228 446.979 205.228C448.451 205.228 450.152 205.829 452.082 207.031L450.99 209.062C449.89 208.419 449.331 208.08 449.314 208.046C448.688 207.759 448.045 207.606 447.385 207.589C445.997 207.589 444.905 208.376 444.109 209.951C443.466 211.203 443.145 212.591 443.145 214.115C443.145 215.757 443.568 217.145 444.414 218.279C445.21 219.345 446.174 219.887 447.309 219.904C447.918 219.904 448.493 219.794 449.035 219.574C449.458 219.421 450.127 219.083 451.041 218.558L452.26 220.589C451.109 221.334 450.212 221.842 449.568 222.113C448.739 222.434 447.825 222.595 446.826 222.595C444.473 222.595 442.645 221.681 441.342 219.853C440.208 218.228 439.641 216.222 439.641 213.835ZM464.776 214.546H459.063V222.392H455.991V205.761H459.063V212.236H464.776V205.761H467.823V222.392H464.776V214.546ZM475.135 212.236H481.051V214.546L475.135 214.521V220.082H481.381V222.392H472.139V205.761H481.457V207.97H475.135V212.236ZM487.88 211.957L487.854 222.392H485.188V205.66H487.677L494.38 216.171V205.761H497.02V222.011L494.557 222.773C492.865 219.658 490.639 216.053 487.88 211.957Z" fill="#8A9F3B"/>
<path d="M65.0372 235.341V218.736C65.1726 218.736 65.9851 218.719 67.4747 218.685C68.575 218.651 69.4383 218.634 70.0646 218.634C71.4526 218.634 72.5444 219.007 73.34 219.751C74.1525 220.479 74.5587 221.512 74.5587 222.849C74.5587 223.526 74.3387 224.178 73.8986 224.804C73.4754 225.414 72.9168 225.904 72.2228 226.277C73.1199 226.345 73.907 226.785 74.5841 227.597C75.2781 228.41 75.6251 229.341 75.6251 230.39C75.6251 232.388 74.9142 233.784 73.4923 234.58C72.4598 235.155 70.9109 235.443 68.8458 235.443C68.3719 235.443 67.6948 235.426 66.8146 235.392C65.9513 235.358 65.3588 235.341 65.0372 235.341ZM68.0841 220.589V225.515H69.2267C70.0053 225.515 70.6316 225.27 71.1056 224.779C71.5288 224.322 71.7404 223.763 71.7404 223.103C71.7234 221.41 71.004 220.556 69.5821 220.539C69.2098 220.539 68.7104 220.556 68.0841 220.589ZM68.0841 227.496V233.285H69.8361C70.767 233.285 71.478 233.005 71.9689 232.447C72.4428 231.939 72.6798 231.245 72.6798 230.365C72.6798 229.637 72.4344 228.994 71.9435 228.435C71.3849 227.809 70.6655 227.496 69.7853 227.496H68.0841ZM78.2901 227.013C78.2901 224.593 79.0095 222.587 80.4483 220.996C81.8871 219.388 83.7152 218.583 85.9327 218.583C88.1332 218.583 89.9275 219.388 91.3155 220.996C92.7035 222.587 93.3975 224.593 93.3975 227.013C93.3975 229.772 92.6527 231.947 91.1632 233.539C89.7582 235.045 87.9555 235.798 85.755 235.798C83.5714 235.798 81.8025 235.045 80.4483 233.539C79.0095 231.947 78.2901 229.772 78.2901 227.013ZM81.5401 227.242C81.5401 228.917 81.9379 230.373 82.7335 231.609C83.529 232.845 84.5362 233.462 85.755 233.462C86.9906 233.462 88.0401 232.828 88.9034 231.558C89.7328 230.339 90.1475 228.917 90.1475 227.292C90.1475 225.566 89.7667 224.076 89.005 222.824C88.2094 221.52 87.1684 220.877 85.8819 220.894C84.5955 220.894 83.5375 221.537 82.7081 222.824C81.9294 224.059 81.5401 225.532 81.5401 227.242ZM100.455 228.562H99.8711V235.392H96.875V218.736C97.349 218.736 98.2377 218.719 99.5411 218.685C100.489 218.668 101.268 218.66 101.877 218.66C103.451 218.66 104.653 219.091 105.482 219.955C106.329 220.801 106.744 221.977 106.727 223.484C106.71 224.686 106.363 225.727 105.686 226.607C105.076 227.386 104.306 227.919 103.375 228.207C104.746 230.119 106.727 232.379 109.316 234.986L105.482 235.671C104.213 234.368 102.537 231.998 100.455 228.562ZM99.8711 220.589V226.734H100.938C102.85 226.734 103.807 225.642 103.807 223.458C103.807 222.731 103.663 222.113 103.375 221.605C102.952 220.86 102.258 220.505 101.293 220.539L99.8711 220.589ZM114.165 224.957L114.14 235.392H111.474V218.66H113.962L120.665 229.171V218.761H123.306V235.011L120.843 235.773C119.15 232.658 116.924 229.053 114.165 224.957ZM127.621 218.736H130.693V235.392H127.621V218.736ZM137.7 224.957L137.675 235.392H135.009V218.66H137.497L144.2 229.171V218.761H146.841V235.011L144.378 235.773C142.685 232.658 140.459 229.053 137.7 224.957ZM157.351 235.544C155.117 235.544 153.348 234.639 152.045 232.828C150.894 231.236 150.318 229.29 150.318 226.988C150.301 224.889 150.843 222.985 151.943 221.275C153.264 219.244 155.041 218.228 157.275 218.228C158.071 218.228 158.976 218.38 159.992 218.685C161.16 219.057 162.074 219.514 162.734 220.056L161.668 222.037C160.28 221.089 159.01 220.606 157.859 220.589C156.556 220.589 155.515 221.385 154.736 222.976C154.093 224.279 153.771 225.659 153.771 227.115C153.771 228.74 154.127 230.128 154.838 231.279C155.549 232.43 156.42 233.005 157.453 233.005C158.502 233.005 159.323 232.861 159.916 232.574V227.496H156.488V225.236H162.988V233.691C161.854 234.385 160.957 234.85 160.297 235.087C159.45 235.392 158.469 235.544 157.351 235.544ZM83.8502 255.562H83.2662V262.392H80.2701V245.736C80.744 245.736 81.6327 245.719 82.9361 245.685C83.884 245.668 84.6627 245.66 85.272 245.66C86.8463 245.66 88.0481 246.091 88.8775 246.955C89.7239 247.801 90.1386 248.977 90.1216 250.484C90.1047 251.686 89.7577 252.727 89.0806 253.607C88.4713 254.386 87.7011 254.919 86.7701 255.207C88.1412 257.119 90.1216 259.379 92.7115 261.986L88.8775 262.671C87.608 261.368 85.9322 258.998 83.8502 255.562ZM83.2662 247.589V253.734H84.3326C86.2453 253.734 87.2017 252.642 87.2017 250.458C87.2017 249.731 87.0578 249.113 86.7701 248.605C86.3469 247.86 85.6529 247.505 84.688 247.539L83.2662 247.589ZM94.0562 254.013C94.0562 251.593 94.7756 249.587 96.2144 247.996C97.6532 246.388 99.4813 245.583 101.699 245.583C103.899 245.583 105.694 246.388 107.082 247.996C108.47 249.587 109.164 251.593 109.164 254.013C109.164 256.772 108.419 258.947 106.929 260.539C105.524 262.045 103.722 262.798 101.521 262.798C99.3374 262.798 97.5685 262.045 96.2144 260.539C94.7756 258.947 94.0562 256.772 94.0562 254.013ZM97.3062 254.242C97.3062 255.917 97.704 257.373 98.4995 258.609C99.2951 259.845 100.302 260.462 101.521 260.462C102.757 260.462 103.806 259.828 104.669 258.558C105.499 257.339 105.914 255.917 105.914 254.292C105.914 252.566 105.533 251.076 104.771 249.824C103.975 248.52 102.934 247.877 101.648 247.894C100.362 247.894 99.3036 248.537 98.4741 249.824C97.6955 251.059 97.3062 252.532 97.3062 254.242ZM111.829 254.013C111.829 251.593 112.548 249.587 113.987 247.996C115.426 246.388 117.254 245.583 119.471 245.583C121.672 245.583 123.466 246.388 124.854 247.996C126.242 249.587 126.936 251.593 126.936 254.013C126.936 256.772 126.191 258.947 124.702 260.539C123.297 262.045 121.494 262.798 119.293 262.798C117.11 262.798 115.341 262.045 113.987 260.539C112.548 258.947 111.829 256.772 111.829 254.013ZM115.079 254.242C115.079 255.917 115.476 257.373 116.272 258.609C117.068 259.845 118.075 260.462 119.293 260.462C120.529 260.462 121.579 259.828 122.442 258.558C123.271 257.339 123.686 255.917 123.686 254.292C123.686 252.566 123.305 251.076 122.543 249.824C121.748 248.52 120.707 247.877 119.42 247.894C118.134 247.894 117.076 248.537 116.247 249.824C115.468 251.059 115.079 252.532 115.079 254.242ZM144.048 251.296L140.087 262.417H137.396L133.41 251.195V262.392H130.667V245.71H134.603L139.148 257.974L143.769 245.71H147.451V262.392H144.048V251.296Z" fill="#8A9F3B"/>
<path d="M72.6725 74.6636V81.3921H69.6764V64.7358L74.5514 64.6597C75.9732 64.6427 77.1751 65.1167 78.1568 66.0815C79.1555 67.0295 79.6549 68.2228 79.6549 69.6616C79.6549 70.9989 79.0709 72.1753 77.9029 73.1909C76.7519 74.2065 75.457 74.7144 74.0182 74.7144C73.815 74.7144 73.3665 74.6974 72.6725 74.6636ZM72.6725 66.5894V72.8862H73.5104C74.3736 72.8862 75.11 72.5731 75.7193 71.9468C76.3456 71.3035 76.6588 70.5672 76.6588 69.7378C76.6588 67.7573 75.7109 66.6909 73.815 66.5386C73.6966 66.5216 73.5019 66.5301 73.2311 66.564C72.9771 66.5809 72.791 66.5894 72.6725 66.5894ZM91.2828 77.5327H85.9L84.7066 81.6968L82.0152 81.3413L87.4234 64.3804H90.064L95.523 81.2144L92.5015 81.6968L91.2828 77.5327ZM86.6109 75.1206H90.5718L88.6422 68.3667L86.6109 75.1206ZM101.54 70.9565L101.514 81.3921H98.8482V64.6597H101.336L108.04 75.1714V64.7612H110.68V81.0112L108.217 81.7729C106.525 78.6584 104.299 75.0529 101.54 70.9565ZM121.978 81.3921H118.88V66.894H114.158V64.7866H126.447V66.894H121.978V81.3921ZM133.53 74.562H132.946V81.3921H129.95V64.7358C130.424 64.7358 131.312 64.7189 132.616 64.6851C133.564 64.6681 134.342 64.6597 134.952 64.6597C136.526 64.6597 137.728 65.0913 138.557 65.9546C139.403 66.8009 139.818 67.9774 139.801 69.4839C139.784 70.6857 139.437 71.7267 138.76 72.6069C138.151 73.3856 137.381 73.9188 136.45 74.2065C137.821 76.1193 139.801 78.3791 142.391 80.9858L138.557 81.6714C137.288 80.368 135.612 77.9982 133.53 74.562ZM132.946 66.5894V72.7339H134.012C135.925 72.7339 136.881 71.6421 136.881 69.4585C136.881 68.7306 136.737 68.1128 136.45 67.605C136.026 66.8602 135.332 66.5047 134.368 66.5386L132.946 66.5894ZM150.947 81.3921H147.9V74.3335L143.177 65.2437L146.376 64.3804L149.728 71.7437L153.283 64.3804L155.669 65.2437L150.947 74.3335V81.3921Z" fill="#8A9F3B"/>
<path d="M146.074 617.736H149.096V632.183H155.824V634.392H146.074V617.736ZM160.14 617.736H163.212V634.392H160.14V617.736ZM171.768 634.646L166.08 618.117L169.305 617.304L173.317 629.542L177.074 617.279L179.766 618.142L174.053 634.646H171.768ZM182.659 617.736H185.732V634.392H182.659V617.736ZM192.738 623.957L192.713 634.392H190.047V617.66H192.535L199.238 628.171V617.761H201.879V634.011L199.416 634.773C197.723 631.658 195.497 628.053 192.738 623.957ZM212.39 634.544C210.155 634.544 208.386 633.639 207.083 631.828C205.932 630.236 205.356 628.29 205.356 625.988C205.34 623.889 205.881 621.985 206.981 620.275C208.302 618.244 210.079 617.228 212.313 617.228C213.109 617.228 214.015 617.38 215.03 617.685C216.198 618.057 217.112 618.514 217.772 619.056L216.706 621.037C215.318 620.089 214.049 619.606 212.897 619.589C211.594 619.589 210.553 620.385 209.774 621.976C209.131 623.279 208.81 624.659 208.81 626.115C208.81 627.74 209.165 629.128 209.876 630.279C210.587 631.43 211.459 632.005 212.491 632.005C213.541 632.005 214.362 631.861 214.954 631.574V626.496H211.526V624.236H218.026V632.691C216.892 633.385 215.995 633.85 215.335 634.087C214.489 634.392 213.507 634.544 212.39 634.544ZM234.046 627.562H233.462V634.392H230.466V617.736C230.94 617.736 231.828 617.719 233.132 617.685C234.08 617.668 234.858 617.66 235.468 617.66C237.042 617.66 238.244 618.091 239.073 618.955C239.92 619.801 240.334 620.977 240.317 622.484C240.3 623.686 239.953 624.727 239.276 625.607C238.667 626.386 237.897 626.919 236.966 627.207C238.337 629.119 240.317 631.379 242.907 633.986L239.073 634.671C237.804 633.368 236.128 630.998 234.046 627.562ZM233.462 619.589V625.734H234.528C236.441 625.734 237.397 624.642 237.397 622.458C237.397 621.731 237.254 621.113 236.966 620.605C236.543 619.86 235.849 619.505 234.884 619.539L233.462 619.589ZM244.252 626.013C244.252 623.593 244.971 621.587 246.41 619.996C247.849 618.388 249.677 617.583 251.894 617.583C254.095 617.583 255.889 618.388 257.277 619.996C258.665 621.587 259.359 623.593 259.359 626.013C259.359 628.772 258.614 630.947 257.125 632.539C255.72 634.045 253.917 634.798 251.717 634.798C249.533 634.798 247.764 634.045 246.41 632.539C244.971 630.947 244.252 628.772 244.252 626.013ZM247.502 626.242C247.502 627.917 247.9 629.373 248.695 630.609C249.491 631.845 250.498 632.462 251.717 632.462C252.952 632.462 254.002 631.828 254.865 630.558C255.695 629.339 256.109 627.917 256.109 626.292C256.109 624.566 255.728 623.076 254.967 621.824C254.171 620.52 253.13 619.877 251.844 619.894C250.557 619.894 249.499 620.537 248.67 621.824C247.891 623.059 247.502 624.532 247.502 626.242ZM262.024 626.013C262.024 623.593 262.744 621.587 264.182 619.996C265.621 618.388 267.449 617.583 269.667 617.583C271.867 617.583 273.662 618.388 275.05 619.996C276.438 621.587 277.132 623.593 277.132 626.013C277.132 628.772 276.387 630.947 274.897 632.539C273.492 634.045 271.69 634.798 269.489 634.798C267.306 634.798 265.537 634.045 264.182 632.539C262.744 630.947 262.024 628.772 262.024 626.013ZM265.274 626.242C265.274 627.917 265.672 629.373 266.468 630.609C267.263 631.845 268.27 632.462 269.489 632.462C270.725 632.462 271.774 631.828 272.638 630.558C273.467 629.339 273.882 627.917 273.882 626.292C273.882 624.566 273.501 623.076 272.739 621.824C271.944 620.52 270.903 619.877 269.616 619.894C268.33 619.894 267.272 620.537 266.442 621.824C265.664 623.059 265.274 624.532 265.274 626.242ZM294.244 623.296L290.283 634.417H287.592L283.605 623.195V634.392H280.863V617.71H284.799L289.344 629.974L293.965 617.71H297.646V634.392H294.244V623.296Z" fill="#8A9F3B"/>
<path d="M505.823 651.835C505.823 649.584 506.416 647.646 507.601 646.021C508.972 644.159 510.825 643.228 513.161 643.228C514.634 643.228 516.335 643.829 518.265 645.031L517.173 647.062C516.073 646.419 515.514 646.08 515.497 646.046C514.871 645.759 514.228 645.606 513.568 645.589C512.179 645.589 511.088 646.376 510.292 647.951C509.649 649.203 509.327 650.591 509.327 652.115C509.327 653.757 509.75 655.145 510.597 656.279C511.392 657.345 512.357 657.887 513.491 657.904C514.101 657.904 514.676 657.794 515.218 657.574C515.641 657.421 516.31 657.083 517.224 656.558L518.443 658.589C517.291 659.334 516.394 659.842 515.751 660.113C514.922 660.434 514.008 660.595 513.009 660.595C510.656 660.595 508.828 659.681 507.525 657.853C506.39 656.228 505.823 654.222 505.823 651.835ZM530.959 652.546H525.246V660.392H522.174V643.761H525.246V650.236H530.959V643.761H534.006V660.392H530.959V652.546ZM538.321 643.736H541.394V660.392H538.321V643.736ZM559.344 649.296L555.383 660.417H552.691L548.705 649.195V660.392H545.963V643.71H549.898L554.443 655.974L559.064 643.71H562.746V660.392H559.344V649.296ZM570.058 649.957L570.032 660.392H567.366V643.66H569.854L576.558 654.171V643.761H579.198V660.011L576.735 660.773C575.043 657.658 572.817 654.053 570.058 649.957ZM586.51 650.236H592.426V652.546L586.51 652.521V658.082H592.756V660.392H583.514V643.761H592.832V645.97H586.51V650.236ZM602.962 660.392H599.915V653.333L595.192 644.244L598.391 643.38L601.743 650.744L605.298 643.38L607.684 644.244L602.962 653.333V660.392Z" fill="#8A9F3B"/>
<path d="M518.467 782.259L519.864 780.253C520.896 781.472 522.081 782.082 523.419 782.082C525.247 782.082 526.152 781.193 526.135 779.416C526.135 778.518 525.501 777.807 524.231 777.283C522.166 776.419 521.015 775.903 520.778 775.734C519.525 774.871 518.907 773.542 518.924 771.748C518.941 770.326 519.508 769.166 520.626 768.269C521.574 767.507 522.606 767.126 523.723 767.126C525.518 767.126 527.151 767.744 528.624 768.98L527.583 771.164C526.398 770.046 525.281 769.488 524.231 769.488C523.52 769.488 522.995 769.632 522.657 769.919C522.234 770.258 522.031 770.876 522.047 771.773C522.047 772.569 522.657 773.212 523.876 773.703C525.771 774.464 526.906 774.989 527.278 775.277C528.514 776.191 529.123 777.554 529.106 779.365C529.106 781.142 528.531 782.505 527.379 783.453C526.381 784.248 525.128 784.646 523.622 784.646C521.32 784.646 519.601 783.85 518.467 782.259ZM539.287 784.392H536.189V769.894H531.466V767.787H543.755V769.894H539.287V784.392ZM555.485 780.533H550.102L548.909 784.697L546.217 784.341L551.626 767.38H554.266L559.725 784.214L556.704 784.697L555.485 780.533ZM550.813 778.121H554.774L552.844 771.367L550.813 778.121ZM563.05 767.736H566.123V784.392H563.05V767.736ZM574.018 777.562H573.434V784.392H570.438V767.736C570.912 767.736 571.801 767.719 573.104 767.685C574.052 767.668 574.831 767.66 575.44 767.66C577.014 767.66 578.216 768.091 579.045 768.955C579.892 769.801 580.306 770.977 580.289 772.484C580.273 773.686 579.926 774.727 579.248 775.607C578.639 776.386 577.869 776.919 576.938 777.207C578.309 779.119 580.289 781.379 582.879 783.986L579.045 784.671C577.776 783.368 576.1 780.998 574.018 777.562ZM573.434 769.589V775.734H574.5C576.413 775.734 577.37 774.642 577.37 772.458C577.37 771.731 577.226 771.113 576.938 770.605C576.515 769.86 575.821 769.505 574.856 769.539L573.434 769.589ZM584.021 782.259L585.417 780.253C586.45 781.472 587.635 782.082 588.972 782.082C590.8 782.082 591.706 781.193 591.689 779.416C591.689 778.518 591.054 777.807 589.785 777.283C587.719 776.419 586.568 775.903 586.331 775.734C585.079 774.871 584.461 773.542 584.478 771.748C584.495 770.326 585.062 769.166 586.179 768.269C587.127 767.507 588.16 767.126 589.277 767.126C591.071 767.126 592.704 767.744 594.177 768.98L593.136 771.164C591.951 770.046 590.834 769.488 589.785 769.488C589.074 769.488 588.549 769.632 588.21 769.919C587.787 770.258 587.584 770.876 587.601 771.773C587.601 772.569 588.21 773.212 589.429 773.703C591.325 774.464 592.459 774.989 592.831 775.277C594.067 776.191 594.676 777.554 594.66 779.365C594.66 781.142 594.084 782.505 592.933 783.453C591.934 784.248 590.682 784.646 589.175 784.646C586.873 784.646 585.155 783.85 584.021 782.259Z" fill="#8A9F3B"/>
</g>
<defs>
<filter id="filter0_g_194_644" x="0.7" y="0.0920899" width="684.1" height="881.948" filterUnits="userSpaceOnUse" color-interpolation-filters="sRGB">
<feFlood flood-opacity="0" result="BackgroundImageFix"/>
<feBlend mode="normal" in="SourceGraphic" in2="BackgroundImageFix" result="shape"/>
<feTurbulence type="fractalNoise" baseFrequency="0.41493773460388184 0.41493773460388184" numOctaves="3" seed="4240" />
<feDisplacementMap in="shape" scale="2.5999999046325684" xChannelSelector="R" yChannelSelector="G" result="displacedImage" width="100%" height="100%" />
<feMerge result="effect1_texture_194_644">
<feMergeNode in="displacedImage"/>
</feMerge>
</filter>
</defs>
</svg>
