<svg width="269" height="316" viewBox="0 0 269 316" fill="none" xmlns="http://www.w3.org/2000/svg">
<g filter="url(#filter0_g_523_2224)">
<path d="M83.2624 65.5952C82.8562 69.8367 79.5879 73.1049 75.3465 73.5111C71.5595 73.8738 66.6435 74.0242 61.7401 73.2614C51.3419 71.6439 45.938 61.3656 43.2566 51.1897L39.1304 35.5309C38.165 31.8671 41.5009 28.5191 45.1682 29.4711L60.8135 33.5328C71.0703 36.1955 81.4313 41.6282 83.0304 52.1037C83.7731 56.9689 83.6222 61.8378 83.2624 65.5952Z" fill="#BD9ADA"/>
<path d="M83.2624 65.5952C82.8562 69.8367 79.5879 73.1049 75.3465 73.5111C71.5595 73.8738 66.6435 74.0242 61.7401 73.2614C51.3419 71.6439 45.938 61.3656 43.2566 51.1897L39.1304 35.5309C38.165 31.8671 41.5009 28.5191 45.1682 29.4711L60.8135 33.5328C71.0703 36.1955 81.4313 41.6282 83.0304 52.1037C83.7731 56.9689 83.6222 61.8378 83.2624 65.5952Z" fill="black" fill-opacity="0.3"/>
<path d="M78.3148 5.42463C104.052 17.9139 112.084 48.7357 113.891 57.5356C114.201 59.0474 113.722 60.5896 112.581 61.6284C108.201 65.6162 104.56 66.4702 99.026 64.981C96.7168 64.3596 95.4426 61.9814 95.6276 59.5973C97.2714 38.4152 83.7884 18.1562 76.117 8.47992C74.8306 6.85736 76.4519 4.52065 78.3148 5.42463Z" fill="#1A1A1A"/>
<path d="M59.8911 69.1445C61.5214 58.4185 71.406 50.9482 82.1697 52.3075L116.634 56.6597C131.985 58.5981 142.256 73.4319 138.668 88.4827L133.564 109.901C131.003 120.646 120.216 127.28 109.472 124.719L71.3741 115.639C61.2557 113.228 54.675 103.462 56.238 93.1787L59.8911 69.1445Z" fill="#BD9ADA"/>
<path d="M115.273 78.8125L143.69 85.5853C155.282 88.3481 161.604 100.873 156.943 111.84V111.84C153.922 118.946 146.948 123.559 139.227 123.559L104.609 123.559L115.273 78.8125Z" fill="#BD9ADA"/>
<path d="M139.998 110.275L148.548 108.066" stroke="#1A1A1A" stroke-width="5" stroke-linecap="round"/>
<path d="M157.184 103.516L148.634 105.725" stroke="#1A1A1A" stroke-width="5" stroke-linecap="round"/>
<path d="M154.736 113.787L148.102 107.958" stroke="#1A1A1A" stroke-width="5" stroke-linecap="round"/>
<path d="M142.447 100.002L149.081 105.831" stroke="#1A1A1A" stroke-width="5" stroke-linecap="round"/>
<rect x="102.789" y="64.002" width="29.7216" height="19.5048" rx="9.7524" transform="rotate(33.5908 102.789 64.002)" fill="#F6F0E5"/>
<path d="M114.792 78.6635C116.715 79.9406 117.239 82.5347 115.962 84.4576C114.684 86.3805 112.09 86.9039 110.167 85.6268C109.628 85.2682 109.198 84.8058 108.888 84.2835C108.401 83.4627 107.432 82.8191 106.486 82.6881C105.884 82.6048 105.291 82.3884 104.752 82.0298C102.829 80.7527 102.305 78.1586 103.582 76.2357C104.859 74.3129 107.453 73.7894 109.376 75.0665C109.916 75.4251 110.346 75.8875 110.656 76.4098C111.144 77.2304 112.112 77.8737 113.058 78.0049C113.66 78.0884 114.252 78.3049 114.792 78.6635Z" fill="#1A1A1A"/>
<path d="M68.3412 73.1086C69.62 77.173 67.9088 81.4507 64.1798 83.5119C60.4956 85.5484 55.4291 87.9234 49.9862 89.2144C39.7471 91.6429 30.7662 84.3119 24.2932 76.015L13.176 61.7652C10.8455 58.7779 12.5928 54.3865 16.3386 53.817L34.1816 51.1042C44.658 49.5114 56.305 50.39 62.0595 59.2881C65.0753 63.9514 67.0867 69.1209 68.3412 73.1086Z" fill="#BD9ADA"/>
<path d="M155.998 205L197.998 218L179.501 305.863C178.949 308.485 175.497 309.123 174.044 306.871L167.998 297.5L163.431 305.949C161.964 308.663 157.848 307.662 157.792 304.577L155.998 205Z" fill="#BD9ADA"/>
<path d="M155.998 205L197.998 218L179.501 305.863C178.949 308.485 175.497 309.123 174.044 306.871L167.998 297.5L163.431 305.949C161.964 308.663 157.848 307.662 157.792 304.577L155.998 205Z" fill="black" fill-opacity="0.3"/>
<path d="M56.998 99L109.998 103L123.998 158H56.998V99Z" fill="#BD9ADA"/>
<path d="M56.998 137L220.671 151.468C230.478 152.335 237.998 160.55 237.998 170.395V203C237.998 219.016 225.014 232 208.998 232H75.998C65.5046 232 56.998 223.493 56.998 213V137Z" fill="#BD9ADA"/>
<path d="M102.998 205H146.998L126.468 305.786C125.931 308.422 122.465 309.074 121.007 306.814L114.998 297.5L110.431 305.949C108.964 308.663 104.848 307.662 104.792 304.577L102.998 205Z" fill="#BD9ADA"/>
<path d="M194.998 205L237.498 208.5L218.43 305.7C217.91 308.35 214.429 309.018 212.965 306.749L206.998 297.5L202.431 305.949C200.964 308.663 196.848 307.662 196.792 304.577L194.998 205Z" fill="#BD9ADA"/>
<path d="M56.998 205H100.998L80.4675 305.786C79.9307 308.422 76.465 309.074 75.007 306.814L68.998 297.5L64.4309 305.949C62.9638 308.663 58.8478 307.662 58.7922 304.577L56.998 205Z" fill="#BD9ADA"/>
<path d="M249.292 129.557C239.067 145.528 214.206 150.453 214.206 150.453L234.572 176.293C234.572 176.293 264.541 158.008 255.169 129.686C254.333 127.16 250.727 127.317 249.292 129.557Z" fill="#BD9ADA"/>
<path d="M58.4956 72.2167C58.2237 74.3885 55.8171 75.3052 53.8086 74.4353L30.7605 64.4544C26.996 62.8242 27.8552 57.4995 31.9531 57.3097C39.4072 56.9645 47.5009 57.003 50.7547 58.4627C56.2071 60.9087 59.2012 66.5806 58.4956 72.2167Z" fill="#F6F0E5"/>
<path d="M40.6976 9.49734C70.4865 16.2859 86.0635 46.877 89.881 55.4131C90.5072 56.8134 90.382 58.4157 89.5141 59.6805C85.8708 64.9901 82.2796 66.7274 76.058 66.4141C73.6758 66.2941 71.9146 64.2659 71.5835 61.9038C68.4015 39.2054 49.3089 21.099 39.2265 12.9734C37.616 11.6754 38.6808 9.03775 40.6976 9.49734Z" fill="#1A1A1A"/>
<path d="M99.998 121.5L115.998 127" stroke="#846C99" stroke-width="7" stroke-linecap="round"/>
</g>
<defs>
<filter id="filter0_g_523_2224" x="10.823" y="3.92266" width="247.461" height="305.623" filterUnits="userSpaceOnUse" color-interpolation-filters="sRGB">
<feFlood flood-opacity="0" result="BackgroundImageFix"/>
<feBlend mode="normal" in="SourceGraphic" in2="BackgroundImageFix" result="shape"/>
<feTurbulence type="fractalNoise" baseFrequency="0.41493773460388184 0.41493773460388184" numOctaves="3" seed="4240" />
<feDisplacementMap in="shape" scale="2.5999999046325684" xChannelSelector="R" yChannelSelector="G" result="displacedImage" width="100%" height="100%" />
<feMerge result="effect1_texture_523_2224">
<feMergeNode in="displacedImage"/>
</feMerge>
</filter>
</defs>
</svg>
