<svg width="313" height="209" viewBox="0 0 313 209" fill="none" xmlns="http://www.w3.org/2000/svg">
<g filter="url(#filter0_g_512_1454)">
<path d="M124.875 136C124.875 124.402 134.277 115 145.875 115H276.875C288.473 115 297.875 124.402 297.875 136V188C297.875 197.941 289.816 206 279.875 206H142.875C132.934 206 124.875 197.941 124.875 188V136Z" fill="#1A1A1A"/>
<path d="M124.875 136C124.875 124.402 134.277 115 145.875 115H276.875C288.473 115 297.875 124.402 297.875 136V188C297.875 197.941 289.816 206 279.875 206H142.875C132.934 206 124.875 197.941 124.875 188V136Z" fill="#1A1A1A"/>
<g filter="url(#filter1_g_512_1454)">
<path d="M206.031 6.29932L119.875 2L183.948 135.331L292.613 135.895C300.901 135.938 305.641 126.458 300.633 119.853L220.225 13.7967C216.833 9.32363 211.638 6.57909 206.031 6.29932Z" fill="#E8B2AB"/>
</g>
<g filter="url(#filter2_g_512_1454)">
<rect x="50.875" y="24" width="35" height="63" rx="6" fill="#1A1A1A"/>
</g>
<path d="M41.875 136C41.875 124.402 51.277 115 62.875 115H173.875C185.473 115 194.875 124.402 194.875 136V188C194.875 197.941 186.816 206 176.875 206H59.875C49.9339 206 41.875 197.941 41.875 188V136Z" fill="#EA968B"/>
<path d="M198.375 121.999L120.764 18.1564C119.961 17.0823 118.35 17.0869 117.553 18.1656L40.875 121.999" stroke="#E8B2AB" stroke-width="31" stroke-linecap="round"/>
<path d="M126.875 164C130.189 164 132.875 166.686 132.875 170L132.875 206L102.875 206L102.875 170C102.875 166.686 105.561 164 108.875 164L126.875 164Z" fill="#1A1A1A"/>
<path d="M100.629 41.6301C108.952 29.6613 126.64 29.607 135.037 41.5245L189.557 118.905C199.359 132.817 189.409 152 172.39 152H64.0577C47.0977 152 37.1337 132.934 46.8169 119.01L100.629 41.6301Z" fill="#EA968B"/>
<path d="M206.875 145L120.759 27.6897C119.961 26.603 118.339 26.6007 117.538 27.6851L40.874 131.499" stroke="#1A1A1A" stroke-width="13" stroke-linecap="round"/>
<rect x="67.668" y="149.666" width="27.3333" height="34" rx="3" transform="rotate(-90 67.668 149.666)" fill="#EA968B" stroke="#1A1A1A" stroke-width="6"/>
<path d="M66.002 136L103.335 136" stroke="#1A1A1A" stroke-width="6"/>
<path d="M84.668 120.666L84.668 152.666" stroke="#1A1A1A" stroke-width="6"/>
<rect x="133" y="149.666" width="27.3333" height="34" rx="3" transform="rotate(-90 133 149.666)" fill="#EA968B" stroke="#1A1A1A" stroke-width="6"/>
<path d="M131.334 136L168.667 136" stroke="#1A1A1A" stroke-width="6"/>
<path d="M150 120.666L150 152.666" stroke="#1A1A1A" stroke-width="6"/>
<g filter="url(#filter3_g_512_1454)">
<path d="M163 32L172 45" stroke="#D7859C" stroke-width="12" stroke-linecap="round"/>
</g>
<g filter="url(#filter4_g_512_1454)">
<path d="M193.5 59.5L200.5 70" stroke="#D7859C" stroke-width="12" stroke-linecap="round"/>
</g>
<g filter="url(#filter5_g_512_1454)">
<path d="M199.5 33.5L206.5 44.5" stroke="#D7859C" stroke-width="12" stroke-linecap="round"/>
</g>
</g>
<g filter="url(#filter6_g_512_1454)">
<path d="M61.3631 199.033C62.071 203.394 58.4183 207 54 207H9C4.58172 207 0.928971 203.394 1.63693 199.033C4.51315 181.315 16.7905 168 31.5 168C46.2094 168 58.4869 181.315 61.3631 199.033Z" fill="#29460A"/>
</g>
<g filter="url(#filter7_g_512_1454)">
<path d="M177.637 199.033C176.929 203.394 180.582 207 185 207H230C234.418 207 238.071 203.394 237.363 199.033C234.487 181.315 222.209 168 207.5 168C192.791 168 180.513 181.315 177.637 199.033Z" fill="#29460A"/>
</g>
<g filter="url(#filter8_g_512_1454)">
<path d="M92.2039 199.052C93.0902 203.38 89.4183 207 85 207H53C48.5817 207 44.9098 203.38 45.7961 199.052C48.5134 185.782 57.8723 176 69 176C80.1277 176 89.4866 185.782 92.2039 199.052Z" fill="#29460A"/>
</g>
<g filter="url(#filter9_g_512_1454)">
<path d="M146.796 199.052C145.91 203.38 149.582 207 154 207H186C190.418 207 194.09 203.38 193.204 199.052C190.487 185.782 181.128 176 170 176C158.872 176 149.513 185.782 146.796 199.052Z" fill="#29460A"/>
</g>
<defs>
<filter id="filter0_g_512_1454" x="24.073" y="0.553516" width="279.911" height="206.746" filterUnits="userSpaceOnUse" color-interpolation-filters="sRGB">
<feFlood flood-opacity="0" result="BackgroundImageFix"/>
<feBlend mode="normal" in="SourceGraphic" in2="BackgroundImageFix" result="shape"/>
<feTurbulence type="fractalNoise" baseFrequency="0.41493773460388184 0.41493773460388184" numOctaves="3" seed="4240" />
<feDisplacementMap in="shape" scale="2.5999999046325684" xChannelSelector="R" yChannelSelector="G" result="displacedImage" width="100%" height="100%" />
<feMerge result="effect1_texture_512_1454">
<feMergeNode in="displacedImage"/>
</feMerge>
</filter>
<filter id="filter1_g_512_1454" x="118.575" y="0.7" width="185.409" height="136.495" filterUnits="userSpaceOnUse" color-interpolation-filters="sRGB">
<feFlood flood-opacity="0" result="BackgroundImageFix"/>
<feBlend mode="normal" in="SourceGraphic" in2="BackgroundImageFix" result="shape"/>
<feTurbulence type="fractalNoise" baseFrequency="0.41493773460388184 0.41493773460388184" numOctaves="3" seed="4240" />
<feDisplacementMap in="shape" scale="2.5999999046325684" xChannelSelector="R" yChannelSelector="G" result="displacedImage" width="100%" height="100%" />
<feMerge result="effect1_texture_512_1454">
<feMergeNode in="displacedImage"/>
</feMerge>
</filter>
<filter id="filter2_g_512_1454" x="49.575" y="22.7" width="37.6" height="65.6" filterUnits="userSpaceOnUse" color-interpolation-filters="sRGB">
<feFlood flood-opacity="0" result="BackgroundImageFix"/>
<feBlend mode="normal" in="SourceGraphic" in2="BackgroundImageFix" result="shape"/>
<feTurbulence type="fractalNoise" baseFrequency="0.41493773460388184 0.41493773460388184" numOctaves="3" seed="4240" />
<feDisplacementMap in="shape" scale="2.5999999046325684" xChannelSelector="R" yChannelSelector="G" result="displacedImage" width="100%" height="100%" />
<feMerge result="effect1_texture_512_1454">
<feMergeNode in="displacedImage"/>
</feMerge>
</filter>
<filter id="filter3_g_512_1454" x="155.7" y="24.7" width="23.6" height="27.6" filterUnits="userSpaceOnUse" color-interpolation-filters="sRGB">
<feFlood flood-opacity="0" result="BackgroundImageFix"/>
<feBlend mode="normal" in="SourceGraphic" in2="BackgroundImageFix" result="shape"/>
<feTurbulence type="fractalNoise" baseFrequency="0.41493773460388184 0.41493773460388184" numOctaves="3" seed="4240" />
<feDisplacementMap in="shape" scale="2.5999999046325684" xChannelSelector="R" yChannelSelector="G" result="displacedImage" width="100%" height="100%" />
<feMerge result="effect1_texture_512_1454">
<feMergeNode in="displacedImage"/>
</feMerge>
</filter>
<filter id="filter4_g_512_1454" x="186.2" y="52.2" width="21.6" height="25.1" filterUnits="userSpaceOnUse" color-interpolation-filters="sRGB">
<feFlood flood-opacity="0" result="BackgroundImageFix"/>
<feBlend mode="normal" in="SourceGraphic" in2="BackgroundImageFix" result="shape"/>
<feTurbulence type="fractalNoise" baseFrequency="0.41493773460388184 0.41493773460388184" numOctaves="3" seed="4240" />
<feDisplacementMap in="shape" scale="2.5999999046325684" xChannelSelector="R" yChannelSelector="G" result="displacedImage" width="100%" height="100%" />
<feMerge result="effect1_texture_512_1454">
<feMergeNode in="displacedImage"/>
</feMerge>
</filter>
<filter id="filter5_g_512_1454" x="192.2" y="26.2" width="21.6" height="25.6" filterUnits="userSpaceOnUse" color-interpolation-filters="sRGB">
<feFlood flood-opacity="0" result="BackgroundImageFix"/>
<feBlend mode="normal" in="SourceGraphic" in2="BackgroundImageFix" result="shape"/>
<feTurbulence type="fractalNoise" baseFrequency="0.41493773460388184 0.41493773460388184" numOctaves="3" seed="4240" />
<feDisplacementMap in="shape" scale="2.5999999046325684" xChannelSelector="R" yChannelSelector="G" result="displacedImage" width="100%" height="100%" />
<feMerge result="effect1_texture_512_1454">
<feMergeNode in="displacedImage"/>
</feMerge>
</filter>
<filter id="filter6_g_512_1454" x="0.248828" y="166.7" width="62.5023" height="41.6" filterUnits="userSpaceOnUse" color-interpolation-filters="sRGB">
<feFlood flood-opacity="0" result="BackgroundImageFix"/>
<feBlend mode="normal" in="SourceGraphic" in2="BackgroundImageFix" result="shape"/>
<feTurbulence type="fractalNoise" baseFrequency="0.41493773460388184 0.41493773460388184" numOctaves="3" seed="4240" />
<feDisplacementMap in="shape" scale="2.5999999046325684" xChannelSelector="R" yChannelSelector="G" result="displacedImage" width="100%" height="100%" />
<feMerge result="effect1_texture_512_1454">
<feMergeNode in="displacedImage"/>
</feMerge>
</filter>
<filter id="filter7_g_512_1454" x="176.249" y="166.7" width="62.5023" height="41.6" filterUnits="userSpaceOnUse" color-interpolation-filters="sRGB">
<feFlood flood-opacity="0" result="BackgroundImageFix"/>
<feBlend mode="normal" in="SourceGraphic" in2="BackgroundImageFix" result="shape"/>
<feTurbulence type="fractalNoise" baseFrequency="0.41493773460388184 0.41493773460388184" numOctaves="3" seed="4240" />
<feDisplacementMap in="shape" scale="2.5999999046325684" xChannelSelector="R" yChannelSelector="G" result="displacedImage" width="100%" height="100%" />
<feMerge result="effect1_texture_512_1454">
<feMergeNode in="displacedImage"/>
</feMerge>
</filter>
<filter id="filter8_g_512_1454" x="44.3641" y="174.7" width="49.2719" height="33.6" filterUnits="userSpaceOnUse" color-interpolation-filters="sRGB">
<feFlood flood-opacity="0" result="BackgroundImageFix"/>
<feBlend mode="normal" in="SourceGraphic" in2="BackgroundImageFix" result="shape"/>
<feTurbulence type="fractalNoise" baseFrequency="0.41493773460388184 0.41493773460388184" numOctaves="3" seed="4240" />
<feDisplacementMap in="shape" scale="2.5999999046325684" xChannelSelector="R" yChannelSelector="G" result="displacedImage" width="100%" height="100%" />
<feMerge result="effect1_texture_512_1454">
<feMergeNode in="displacedImage"/>
</feMerge>
</filter>
<filter id="filter9_g_512_1454" x="145.364" y="174.7" width="49.2719" height="33.6" filterUnits="userSpaceOnUse" color-interpolation-filters="sRGB">
<feFlood flood-opacity="0" result="BackgroundImageFix"/>
<feBlend mode="normal" in="SourceGraphic" in2="BackgroundImageFix" result="shape"/>
<feTurbulence type="fractalNoise" baseFrequency="0.41493773460388184 0.41493773460388184" numOctaves="3" seed="4240" />
<feDisplacementMap in="shape" scale="2.5999999046325684" xChannelSelector="R" yChannelSelector="G" result="displacedImage" width="100%" height="100%" />
<feMerge result="effect1_texture_512_1454">
<feMergeNode in="displacedImage"/>
</feMerge>
</filter>
</defs>
</svg>
