<svg width="509" height="850" viewBox="0 0 509 850" fill="none" xmlns="http://www.w3.org/2000/svg">
<g filter="url(#filter0_g_72_942)">
<path d="M95.1673 280.216L59.1082 43.0996" stroke="#1A1A1A" stroke-width="17.4832" stroke-linecap="round"/>
<circle cx="56.3764" cy="28.8946" r="17.4832" fill="#1A1A1A"/>
</g>
<g filter="url(#filter1_g_72_942)">
<path d="M22.8932 340.94C22.8932 331.503 27.0583 322.548 34.2751 316.468L169.342 202.673C178.832 194.677 192.09 192.89 203.359 198.086L462.293 317.48C473.631 322.709 480.893 334.054 480.893 346.54V815.186C480.893 832.859 466.566 847.186 448.893 847.186H54.8932C37.2201 847.186 22.8932 832.859 22.8932 815.186V340.94Z" fill="#BDA73A"/>
<g filter="url(#filter2_g_72_942)">
<path d="M326.87 164.432L176.893 157.936L317.893 369.956H493.377C498.404 369.956 501.202 364.144 498.067 360.214L352.084 177.25C345.927 169.534 336.732 164.86 326.87 164.432Z" fill="#BDA73A"/>
<path d="M326.87 164.432L176.893 157.936L317.893 369.956H493.377C498.404 369.956 501.202 364.144 498.067 360.214L352.084 177.25C345.927 169.534 336.732 164.86 326.87 164.432Z" stroke="#BDA73A" stroke-width="12.5804" stroke-linecap="round"/>
</g>
<path d="M322.231 353.272L177.618 181.556C176.176 179.844 173.537 179.852 172.105 181.572L29.2306 353.272" stroke="#BDA73A" stroke-width="55.7133" stroke-linecap="round"/>
<g filter="url(#filter3_g_72_942)">
<path d="M337.231 391.272L177.23 197.616C175.795 195.879 173.135 195.875 171.695 197.608L29.2306 369.015" stroke="#1A1A1A" stroke-width="30" stroke-linecap="round"/>
</g>
<g style="mix-blend-mode:multiply" opacity="0.4" filter="url(#filter4_g_72_942)">
<path d="M258.377 204.659L274.551 226.133" stroke="#BDA73A" stroke-width="21.5664" stroke-linecap="round"/>
</g>
<g style="mix-blend-mode:multiply" opacity="0.4" filter="url(#filter5_g_72_942)">
<path d="M313.191 250.084L325.771 267.428" stroke="#BDA73A" stroke-width="21.5664" stroke-linecap="round"/>
</g>
<g style="mix-blend-mode:multiply" opacity="0.4" filter="url(#filter6_g_72_942)">
<path d="M323.975 207.137L336.555 225.307" stroke="#BDA73A" stroke-width="21.5664" stroke-linecap="round"/>
</g>
<path d="M327.893 377.105H484.893V816.105C484.893 833.778 470.566 848.105 452.893 848.105H327.893V377.105Z" fill="#1A1A1A"/>
<g filter="url(#filter7_g_72_942)">
<path d="M84.6802 426.49L101.298 395.144C108.601 381.37 116.565 366.964 130.369 359.717C149.328 349.765 169.397 352.965 179.042 356.943L145.48 446.33L85.3257 428.043C84.6703 427.843 84.3594 427.096 84.6802 426.49Z" fill="#F6F0E5" stroke="#F6F0E5" stroke-width="18.5138" stroke-linecap="round"/>
<path d="M269.391 426.49L252.773 395.144C245.47 381.37 237.506 366.964 223.702 359.717C204.743 349.765 184.674 352.965 175.029 356.943L208.591 446.33L268.745 428.043C269.401 427.843 269.711 427.096 269.391 426.49Z" fill="#F6F0E5" stroke="#F6F0E5" stroke-width="18.5138" stroke-linecap="round"/>
<circle cx="157.482" cy="409.849" r="31.1979" transform="rotate(30 157.482 409.849)" fill="#BD9ADA"/>
<path d="M166.909 643.879H118.534L108.1 770.208H166.909V643.879Z" fill="#E8B2AB"/>
<path d="M186.512 643.879H234.886L245.32 770.208H186.512V643.879Z" fill="#E8B2AB"/>
<path d="M167.998 705.954C167.998 704.15 166.535 702.687 164.731 702.687H113.151C111.508 702.687 110.121 703.907 109.911 705.536L101.567 770.208H167.998V705.954Z" fill="#F6F0E5"/>
<path d="M185.423 705.954C185.423 704.15 186.885 702.687 188.69 702.687H240.269C241.912 702.687 243.299 703.907 243.51 705.536L251.854 770.208H185.423V705.954Z" fill="#F6F0E5"/>
<path d="M119.567 415.105H236.219L238.636 421.807C246.061 442.391 230.809 464.105 208.927 464.105H146.859C124.977 464.105 109.725 442.391 117.15 421.807L119.567 415.105Z" fill="#FB8A10"/>
<path d="M125.255 500.126C125.255 500.126 106.116 524.462 83.5406 587.467" stroke="#1A1A1A" stroke-width="42.4729" stroke-linejoin="round"/>
<ellipse cx="26.6817" cy="27.2262" rx="26.6817" ry="27.2262" transform="matrix(0.0872418 -0.996187 -0.996187 -0.0872418 97.1382 645.015)" fill="#E8B2AB"/>
<path d="M108.717 594.807C109.382 593.216 108.354 591.429 106.645 591.204V591.204C92.8805 589.396 79.7877 584.171 68.5602 576.006L66.0928 574.211C64.5307 573.075 62.3174 573.695 61.572 575.477L54.43 592.549C53.2592 595.347 53.8848 598.575 56.0162 600.734L57.6241 602.362C67.4997 612.364 81.1597 617.699 95.1997 617.037V617.037C97.8275 616.913 100.149 615.287 101.164 612.861L108.717 594.807Z" fill="#F6F0E5"/>
<path d="M226.74 500.126C226.74 500.126 245.879 524.462 268.454 587.467" stroke="#1A1A1A" stroke-width="42.4729" stroke-linejoin="round"/>
<ellipse cx="279.343" cy="617.06" rx="26.6817" ry="27.2262" transform="rotate(-95.0049 279.343 617.06)" fill="#E8B2AB"/>
<path d="M243.278 594.807C242.612 593.216 243.641 591.429 245.35 591.204V591.204C259.114 589.396 272.207 584.171 283.435 576.006L285.902 574.211C287.464 573.075 289.677 573.695 290.423 575.477L297.565 592.549C298.736 595.347 298.11 598.575 295.979 600.734L294.371 602.362C284.495 612.364 270.835 617.699 256.795 617.037V617.037C254.167 616.913 251.846 615.287 250.83 612.861L243.278 594.807Z" fill="#F6F0E5"/>
<ellipse cx="177.784" cy="414.881" rx="65.3429" ry="50.6407" fill="#E8B2AB"/>
<path d="M85.5166 738.943L127.205 513.911L223.353 502.105L267.267 738.941C268.633 746.307 262.979 753.105 255.488 753.105H97.2957C89.8054 753.105 84.1522 746.308 85.5166 738.943Z" fill="#1A1A1A"/>
<path d="M160.357 451.117H196.296V476.71C196.296 486.634 188.251 494.679 178.327 494.679V494.679C168.403 494.679 160.357 486.634 160.357 476.71V451.117Z" fill="#E8B2AB"/>
<path d="M177.813 364.615C209.242 364.615 235.484 381.733 241.71 404.536C253.339 404.632 262.729 412.395 262.73 421.959C262.73 431.583 253.222 439.384 241.493 439.384C239.387 439.384 237.353 439.131 235.432 438.662C224.436 454.514 202.759 465.299 177.813 465.299C153.232 465.299 131.824 454.829 120.683 439.358C120.298 439.375 119.91 439.384 119.52 439.384C107.791 439.384 98.2833 431.583 98.2833 421.959C98.2835 413.979 104.822 407.251 113.743 405.187C119.643 382.06 146.085 364.615 177.813 364.615Z" fill="#E8B2AB"/>
<path d="M161.261 466.971C160.874 468.086 160.666 469.258 160.666 470.467C160.666 477.922 168.506 483.964 178.177 483.964C187.847 483.964 195.687 477.922 195.687 470.467C195.687 469.344 195.507 468.253 195.172 467.209L270.214 489.37C273.419 490.316 274.355 494.278 271.777 496.406C258.139 507.665 221.219 534.367 177.812 534.368C134.406 534.368 97.4849 507.665 83.8466 496.406C81.2694 494.278 82.2047 490.316 85.4101 489.37L161.261 466.971Z" fill="#F6F0E5"/>
<path d="M242.045 405.304C210.156 407.012 190.279 379.203 184.326 365.084L189.231 356.372L199.823 359.398C221.398 365.563 237.703 383.29 242.045 405.304Z" fill="#FB8A10"/>
<path d="M111.36 405.304C161.3 407.012 188.621 383.559 197.943 369.441L189.775 356.917L161.488 357.531C134.944 358.108 113.213 378.818 111.36 405.304Z" fill="#FB8A10"/>
<g opacity="0.4" filter="url(#filter8_g_72_942)">
<ellipse cx="209.909" cy="430.427" rx="19.0583" ry="14.1576" fill="#DD763B" fill-opacity="0.5"/>
</g>
<g opacity="0.4" filter="url(#filter9_g_72_942)">
<ellipse cx="145.656" cy="430.427" rx="19.0583" ry="14.1576" fill="#DD763B" fill-opacity="0.5"/>
</g>
<circle cx="160.902" cy="419.237" r="3.81167" fill="#1A1A1A"/>
<circle cx="192.486" cy="419.237" r="3.81167" fill="#1A1A1A"/>
<path d="M193.611 408.742L187.584 410.744" stroke="#FB8A10" stroke-width="6.53429" stroke-linecap="round"/>
<path d="M193.611 408.742L187.584 410.744" stroke="#5A0000" stroke-opacity="0.2" stroke-width="6.53429" stroke-linecap="round" style="mix-blend-mode:multiply"/>
<path d="M160.358 408.742L166.385 410.744" stroke="#FB8A10" stroke-width="6.53429" stroke-linecap="round"/>
<path d="M160.358 408.742L166.385 410.744" stroke="#5A0000" stroke-opacity="0.2" stroke-width="6.53429" stroke-linecap="round" style="mix-blend-mode:multiply"/>
<path d="M184.316 423.891V423.891C179.52 426.287 173.864 426.29 169.07 423.891V423.891" stroke="#1A1A1A" stroke-width="5.44524" stroke-linecap="round" stroke-linejoin="round"/>
<path d="M167.998 763.674H100.477C82.4329 763.674 67.8054 778.301 67.8054 796.345V810.503C67.8054 813.51 70.2433 815.948 73.2506 815.948H167.998V763.674Z" fill="#1A1A1A"/>
<path d="M185.423 763.674H252.944C270.987 763.674 285.615 778.301 285.615 796.345V810.503C285.615 813.51 283.177 815.948 280.17 815.948H185.423V763.674Z" fill="#1A1A1A"/>
<path d="M118.323 424.189L110.262 419.535" stroke="#EA968B" stroke-width="6.53429" stroke-linecap="round"/>
<path d="M242.036 424.189L250.097 419.535" stroke="#EA968B" stroke-width="6.53429" stroke-linecap="round"/>
</g>
<path d="M131.213 452.194L159.255 466.082L158.444 474.136C157.481 483.689 148.32 490.202 138.981 487.974V487.974C130.461 485.941 125.202 477.385 127.235 468.865L131.213 452.194Z" fill="#FB8A10"/>
<path d="M123.912 489.97C125.884 484.881 131.313 482.032 136.621 483.299L143.469 484.933C148.778 486.199 152.334 491.193 151.796 496.624L151.526 499.352C150.639 508.301 142.061 514.411 133.314 512.324V512.324C124.567 510.237 119.672 500.912 122.921 492.527L123.912 489.97Z" fill="#FB8A10"/>
<path d="M119.591 516.697C121.563 511.608 126.991 508.759 132.3 510.025L139.148 511.659C144.456 512.926 148.013 517.92 147.475 523.35L147.204 526.079C146.318 535.028 137.74 541.138 128.993 539.05V539.05C120.246 536.963 115.351 527.638 118.6 519.254L119.591 516.697Z" fill="#FB8A10"/>
<path d="M113.556 541.987C115.529 536.898 120.957 534.049 126.265 535.315L133.113 536.95C138.422 538.216 141.978 543.21 141.44 548.64L141.17 551.369C140.283 560.318 131.705 566.428 122.958 564.341V564.341C114.211 562.253 109.316 552.928 112.566 544.544L113.556 541.987Z" fill="#FB8A10"/>
<path d="M103.265 567.176C108.113 561.213 115.949 558.556 123.425 560.339L124.349 560.56C131.824 562.344 137.616 568.253 139.249 575.762L139.695 577.812C141.695 587.003 135.374 595.927 126.04 597.091L113.893 598.605L104.901 592.265C97.3249 586.925 95.8577 576.285 101.705 569.094L103.265 567.176Z" fill="#FB8A10"/>
<path d="M227.664 452.194L199.622 466.082L200.434 474.136C201.396 483.689 210.557 490.202 219.896 487.974V487.974C228.416 485.941 233.675 477.385 231.642 468.865L227.664 452.194Z" fill="#FB8A10"/>
<path d="M234.965 489.97C232.993 484.881 227.565 482.032 222.256 483.299L215.408 484.933C210.1 486.199 206.543 491.193 207.081 496.624L207.351 499.352C208.238 508.301 216.816 514.411 225.563 512.324V512.324C234.31 510.237 239.205 500.912 235.956 492.527L234.965 489.97Z" fill="#FB8A10"/>
<path d="M239.286 516.697C237.314 511.608 231.886 508.759 226.578 510.025L219.729 511.659C214.421 512.926 210.864 517.92 211.402 523.35L211.673 526.079C212.559 535.028 221.138 541.138 229.884 539.05V539.05C238.631 536.963 243.527 527.638 240.277 519.254L239.286 516.697Z" fill="#FB8A10"/>
<path d="M245.321 541.987C243.349 536.898 237.921 534.049 232.612 535.315L225.764 536.95C220.456 538.216 216.899 543.21 217.437 548.64L217.707 551.369C218.594 560.318 227.172 566.428 235.919 564.341V564.341C244.666 562.253 249.561 552.928 246.312 544.544L245.321 541.987Z" fill="#FB8A10"/>
<path d="M255.612 567.176C250.764 561.213 242.928 558.556 235.453 560.339L234.529 560.56C227.053 562.344 221.262 568.253 219.628 575.762L219.182 577.812C217.182 587.003 223.503 595.927 232.837 597.091L244.984 598.605L253.977 592.265C261.552 586.925 263.019 576.285 257.172 569.094L255.612 567.176Z" fill="#FB8A10"/>
</g>
<g filter="url(#filter10_g_72_942)">
<path d="M198.182 23.736L204.321 82.6198C259.243 56.1506 289.643 81.7532 310.85 56.9379C311.422 56.268 310.991 55.2151 310.115 55.1181C304.06 54.4476 286.259 51.5229 278.263 39.8707C277.285 38.4448 277.869 36.5523 279.29 35.5666C288.852 28.9333 297.864 17.1429 301.612 11.9047C302.22 11.0563 301.355 9.97979 300.363 10.3029C245.728 28.1001 223.918 7.26553 200.283 19.645C198.796 20.4238 198.008 22.0667 198.182 23.736Z" fill="#E8B2AB" stroke="#E8B2AB" stroke-width="8.7416"/>
<path d="M196.429 21.2817L239.207 32.1093L194.071 43.6089L191.05 26.2691C190.507 23.149 193.358 20.5045 196.429 21.2817Z" fill="#1A1A1A"/>
<path d="M229.621 30.934C164.79 58.5763 121.612 29.1881 50.2737 56.2289C45.5318 58.0263 42.8512 62.9994 43.7216 67.9953L53.7368 125.476C54.9496 132.437 62.3998 136.403 68.9668 133.796C171.268 93.1838 191.608 130.55 249.358 107.459C253.941 105.627 256.477 100.739 255.63 95.8767L245.766 39.2639C244.492 31.9531 236.447 28.0234 229.621 30.934Z" fill="#E8B2AB"/>
<path d="M107.476 81.5112L103.395 97.8791L99.5675 98.2546L92.3326 82.8513L93.895 98.7748L89.9954 99.1574L87.6677 75.4347L93.2644 74.8855L101.439 91.6913L106.299 73.6065L111.535 73.0928L113.863 96.8155L109.024 97.2903L107.476 81.5112ZM130.484 89.6434L122.829 90.3945L121.713 96.4827L117.836 96.3527L123.16 71.4782L126.915 71.1097L137.028 94.2874L132.798 95.395L130.484 89.6434ZM123.503 86.8651L129.136 86.3124L125.45 76.977L123.503 86.8651ZM144.81 83.9725L143.979 84.054L144.933 93.7669L140.672 94.185L138.348 70.4984C139.022 70.4322 140.283 70.2841 142.132 70.0541C143.478 69.8978 144.584 69.7771 145.45 69.6921C147.689 69.4724 149.458 69.9185 150.758 71.0305C152.08 72.116 152.834 73.7311 153.02 75.8758C153.164 77.5873 152.815 79.1161 151.975 80.4623C151.217 81.6547 150.197 82.5204 148.913 83.0595C151.129 85.5883 154.261 88.5256 158.308 91.8712L152.951 93.3811C150.964 91.7047 148.25 88.5685 144.81 83.9725ZM142.867 72.7162L143.724 81.4542L145.241 81.3054C147.961 81.0385 149.169 79.3524 148.864 76.2472C148.762 75.2121 148.472 74.3535 147.992 73.6715C147.286 72.6714 146.249 72.2628 144.882 72.4455L142.867 72.7162ZM170.253 91.2825L165.848 91.7147L163.825 71.0972L157.108 71.7562L156.814 68.7593L174.291 67.0445L174.585 70.0415L168.23 70.665L170.253 91.2825ZM191.878 77.8959L183.754 78.693L184.849 89.8503L180.48 90.279L178.159 66.6285L182.528 66.1998L183.432 75.4072L191.556 74.6101L190.652 65.4026L194.985 64.9775L197.306 88.628L192.973 89.0531L191.878 77.8959ZM213.494 81.4984L205.839 82.2495L204.723 88.3377L200.846 88.2077L206.17 63.3332L209.926 62.9647L220.038 86.1424L215.808 87.25L213.494 81.4984ZM206.514 78.7201L212.146 78.1674L208.46 68.832L206.514 78.7201Z" fill="#1A1A1A"/>
<g style="mix-blend-mode:multiply" opacity="0.61">
<path d="M244.802 35.571L250.986 70.0538" stroke="#E8B2AB" stroke-width="8.7416" stroke-linecap="round"/>
</g>
</g>
<defs>
<filter id="filter0_g_72_942" x="37.4727" y="9.99087" width="67.8579" height="280.388" filterUnits="userSpaceOnUse" color-interpolation-filters="sRGB">
<feFlood flood-opacity="0" result="BackgroundImageFix"/>
<feBlend mode="normal" in="SourceGraphic" in2="BackgroundImageFix" result="shape"/>
<feTurbulence type="fractalNoise" baseFrequency="0.37973597645759583 0.37973597645759583" numOctaves="3" seed="4240" />
<feDisplacementMap in="shape" scale="2.8410215377807617" xChannelSelector="R" yChannelSelector="G" result="displacedImage" width="100%" height="100%" />
<feMerge result="effect1_texture_72_942">
<feMergeNode in="displacedImage"/>
</feMerge>
</filter>
<filter id="filter1_g_72_942" x="0.0732453" y="149.816" width="506.917" height="699.589" filterUnits="userSpaceOnUse" color-interpolation-filters="sRGB">
<feFlood flood-opacity="0" result="BackgroundImageFix"/>
<feBlend mode="normal" in="SourceGraphic" in2="BackgroundImageFix" result="shape"/>
<feTurbulence type="fractalNoise" baseFrequency="0.41493773460388184 0.41493773460388184" numOctaves="3" seed="4240" />
<feDisplacementMap in="shape" scale="2.5999999046325684" xChannelSelector="R" yChannelSelector="G" result="displacedImage" width="100%" height="100%" />
<feMerge result="effect1_texture_72_942">
<feMergeNode in="displacedImage"/>
</feMerge>
</filter>
<filter id="filter2_g_72_942" x="162.467" y="148.779" width="345.559" height="229.803" filterUnits="userSpaceOnUse" color-interpolation-filters="sRGB">
<feFlood flood-opacity="0" result="BackgroundImageFix"/>
<feBlend mode="normal" in="SourceGraphic" in2="BackgroundImageFix" result="shape"/>
<feTurbulence type="fractalNoise" baseFrequency="0.23087981343269348 0.23087981343269348" numOctaves="3" seed="4240" />
<feDisplacementMap in="shape" scale="4.6727256774902344" xChannelSelector="R" yChannelSelector="G" result="displacedImage" width="100%" height="100%" />
<feMerge result="effect1_texture_72_942">
<feMergeNode in="displacedImage"/>
</feMerge>
</filter>
<filter id="filter3_g_72_942" x="12.9302" y="180.011" width="340.601" height="227.562" filterUnits="userSpaceOnUse" color-interpolation-filters="sRGB">
<feFlood flood-opacity="0" result="BackgroundImageFix"/>
<feBlend mode="normal" in="SourceGraphic" in2="BackgroundImageFix" result="shape"/>
<feTurbulence type="fractalNoise" baseFrequency="0.41493773460388184 0.41493773460388184" numOctaves="3" seed="4240" />
<feDisplacementMap in="shape" scale="2.5999999046325684" xChannelSelector="R" yChannelSelector="G" result="displacedImage" width="100%" height="100%" />
<feMerge result="effect1_texture_72_942">
<feMergeNode in="displacedImage"/>
</feMerge>
</filter>
<filter id="filter4_g_72_942" x="245.256" y="191.539" width="42.4152" height="47.714" filterUnits="userSpaceOnUse" color-interpolation-filters="sRGB">
<feFlood flood-opacity="0" result="BackgroundImageFix"/>
<feBlend mode="normal" in="SourceGraphic" in2="BackgroundImageFix" result="shape"/>
<feTurbulence type="fractalNoise" baseFrequency="0.23087981343269348 0.23087981343269348" numOctaves="3" seed="4240" />
<feDisplacementMap in="shape" scale="4.6727256774902344" xChannelSelector="R" yChannelSelector="G" result="displacedImage" width="100%" height="100%" />
<feMerge result="effect1_texture_72_942">
<feMergeNode in="displacedImage"/>
</feMerge>
</filter>
<filter id="filter5_g_72_942" x="300.071" y="236.963" width="38.8211" height="43.5846" filterUnits="userSpaceOnUse" color-interpolation-filters="sRGB">
<feFlood flood-opacity="0" result="BackgroundImageFix"/>
<feBlend mode="normal" in="SourceGraphic" in2="BackgroundImageFix" result="shape"/>
<feTurbulence type="fractalNoise" baseFrequency="0.23087981343269348 0.23087981343269348" numOctaves="3" seed="4240" />
<feDisplacementMap in="shape" scale="4.6727256774902344" xChannelSelector="R" yChannelSelector="G" result="displacedImage" width="100%" height="100%" />
<feMerge result="effect1_texture_72_942">
<feMergeNode in="displacedImage"/>
</feMerge>
</filter>
<filter id="filter6_g_72_942" x="310.854" y="194.016" width="38.8215" height="44.411" filterUnits="userSpaceOnUse" color-interpolation-filters="sRGB">
<feFlood flood-opacity="0" result="BackgroundImageFix"/>
<feBlend mode="normal" in="SourceGraphic" in2="BackgroundImageFix" result="shape"/>
<feTurbulence type="fractalNoise" baseFrequency="0.23087981343269348 0.23087981343269348" numOctaves="3" seed="4240" />
<feDisplacementMap in="shape" scale="4.6727256774902344" xChannelSelector="R" yChannelSelector="G" result="displacedImage" width="100%" height="100%" />
<feMerge result="effect1_texture_72_942">
<feMergeNode in="displacedImage"/>
</feMerge>
</filter>
<filter id="filter7_g_72_942" x="43.7041" y="342.432" width="264.279" height="474.932" filterUnits="userSpaceOnUse" color-interpolation-filters="sRGB">
<feFlood flood-opacity="0" result="BackgroundImageFix"/>
<feBlend mode="normal" in="SourceGraphic" in2="BackgroundImageFix" result="shape"/>
<feTurbulence type="fractalNoise" baseFrequency="0.38100969791412354 0.38100969791412354" numOctaves="3" seed="4240" />
<feDisplacementMap in="shape" scale="2.831524133682251" xChannelSelector="R" yChannelSelector="G" result="displacedImage" width="100%" height="100%" />
<feMerge result="effect1_texture_72_942">
<feMergeNode in="displacedImage"/>
</feMerge>
</filter>
<filter id="filter8_g_72_942" x="178.903" y="404.323" width="62.0104" height="52.2089" filterUnits="userSpaceOnUse" color-interpolation-filters="sRGB">
<feFlood flood-opacity="0" result="BackgroundImageFix"/>
<feBlend mode="normal" in="SourceGraphic" in2="BackgroundImageFix" result="shape"/>
<feTurbulence type="fractalNoise" baseFrequency="1.8364666700363159 1.8364666700363159" numOctaves="3" seed="1626" />
<feDisplacementMap in="shape" scale="23.893709182739258" xChannelSelector="R" yChannelSelector="G" result="displacedImage" width="100%" height="100%" />
<feMerge result="effect1_texture_72_942">
<feMergeNode in="displacedImage"/>
</feMerge>
</filter>
<filter id="filter9_g_72_942" x="114.651" y="404.323" width="62.0104" height="52.2089" filterUnits="userSpaceOnUse" color-interpolation-filters="sRGB">
<feFlood flood-opacity="0" result="BackgroundImageFix"/>
<feBlend mode="normal" in="SourceGraphic" in2="BackgroundImageFix" result="shape"/>
<feTurbulence type="fractalNoise" baseFrequency="1.8364666700363159 1.8364666700363159" numOctaves="3" seed="1626" />
<feDisplacementMap in="shape" scale="23.893709182739258" xChannelSelector="R" yChannelSelector="G" result="displacedImage" width="100%" height="100%" />
<feMerge result="effect1_texture_72_942">
<feMergeNode in="displacedImage"/>
</feMerge>
</filter>
<filter id="filter10_g_72_942" x="42.1382" y="4.45009" width="274.777" height="131.572" filterUnits="userSpaceOnUse" color-interpolation-filters="sRGB">
<feFlood flood-opacity="0" result="BackgroundImageFix"/>
<feBlend mode="normal" in="SourceGraphic" in2="BackgroundImageFix" result="shape"/>
<feTurbulence type="fractalNoise" baseFrequency="0.37973597645759583 0.37973597645759583" numOctaves="3" seed="4240" />
<feDisplacementMap in="shape" scale="2.8410215377807617" xChannelSelector="R" yChannelSelector="G" result="displacedImage" width="100%" height="100%" />
<feMerge result="effect1_texture_72_942">
<feMergeNode in="displacedImage"/>
</feMerge>
</filter>
</defs>
</svg>
