<svg width="685" height="883" viewBox="0 0 685 883" fill="none" xmlns="http://www.w3.org/2000/svg">
<g filter="url(#filter0_g_34_2476)">
<rect x="5" y="5" width="675" height="823" rx="27" fill="#F6F0E5" stroke="#8A9F3B" stroke-width="6"/>
<path d="M2.5 142.5H214.5C216.157 142.5 217.5 141.157 217.5 139.5V5.5" stroke="#8A9F3B" stroke-width="6"/>
<path d="M454 827V423" stroke="#8A9F3B" stroke-width="6"/>
<path d="M452.958 614.93C419.028 613.363 392 585.359 392 551.042L392 548.958C392 514.641 419.028 486.637 452.958 485.07L452.958 614.93Z" stroke="#8A9F3B" stroke-width="6"/>
<path d="M681 365L550 365C548.343 365 547 366.343 547 368L547 425" stroke="#8A9F3B" stroke-width="6"/>
<path d="M457 484L500 484C501.657 484 503 485.343 503 487L503 613C503 614.657 501.657 616 500 616L457 616" stroke="#8A9F3B" stroke-width="6"/>
<path d="M218 342.5V136" stroke="#8A9F3B" stroke-width="6"/>
<path d="M4 425H681" stroke="#8A9F3B" stroke-width="6"/>
<path d="M454.5 680H683.5" stroke="#8A9F3B" stroke-width="6"/>
<path d="M454.5 736H683.5" stroke="#8A9F3B" stroke-width="6"/>
<path d="M504 680V736" stroke="#8A9F3B" stroke-width="6"/>
<path d="M624 680V736" stroke="#8A9F3B" stroke-width="6"/>
<path d="M564 680V736" stroke="#8A9F3B" stroke-width="6"/>
<path d="M516 826.5L582 879" stroke="#8A9F3B" stroke-width="6"/>
<path d="M406.966 216.373L406.077 217.643V223H403.005V206.344H406.077V213.885L411.308 205.506L414.05 206.877C412.662 208.79 410.859 211.303 408.642 214.418C409.268 215.451 410.326 216.847 411.816 218.607C413.034 220.012 414.245 221.409 415.446 222.797L411.816 223.609C410.106 221.273 408.489 218.861 406.966 216.373ZM418.137 206.344H421.209V223H418.137V206.344ZM432.507 223H429.409V208.502H424.687V206.395H436.976V208.502H432.507V223ZM439.641 214.443C439.641 212.192 440.233 210.254 441.418 208.629C442.789 206.767 444.643 205.836 446.979 205.836C448.451 205.836 450.152 206.437 452.082 207.639L450.99 209.67C449.89 209.027 449.331 208.688 449.314 208.654C448.688 208.367 448.045 208.214 447.385 208.197C445.997 208.197 444.905 208.984 444.109 210.559C443.466 211.811 443.145 213.199 443.145 214.723C443.145 216.365 443.568 217.753 444.414 218.887C445.21 219.953 446.174 220.495 447.309 220.512C447.918 220.512 448.493 220.402 449.035 220.182C449.458 220.029 450.127 219.691 451.041 219.166L452.26 221.197C451.109 221.942 450.212 222.45 449.568 222.721C448.739 223.042 447.825 223.203 446.826 223.203C444.473 223.203 442.645 222.289 441.342 220.461C440.208 218.836 439.641 216.83 439.641 214.443ZM464.776 215.154H459.063V223H455.991V206.369H459.063V212.844H464.776V206.369H467.823V223H464.776V215.154ZM475.135 212.844H481.051V215.154L475.135 215.129V220.689H481.381V223H472.139V206.369H481.457V208.578H475.135V212.844ZM487.88 212.564L487.854 223H485.188V206.268H487.677L494.38 216.779V206.369H497.02V222.619L494.557 223.381C492.865 220.266 490.639 216.661 487.88 212.564Z" fill="#8A9F3B"/>
<path d="M65.0372 235.949V219.344C65.1726 219.344 65.9851 219.327 67.4747 219.293C68.575 219.259 69.4383 219.242 70.0646 219.242C71.4526 219.242 72.5444 219.615 73.34 220.359C74.1525 221.087 74.5587 222.12 74.5587 223.457C74.5587 224.134 74.3387 224.786 73.8986 225.412C73.4754 226.021 72.9168 226.512 72.2228 226.885C73.1199 226.952 73.907 227.393 74.5841 228.205C75.2781 229.018 75.6251 229.949 75.6251 230.998C75.6251 232.995 74.9142 234.392 73.4923 235.188C72.4598 235.763 70.9109 236.051 68.8458 236.051C68.3719 236.051 67.6948 236.034 66.8146 236C65.9513 235.966 65.3588 235.949 65.0372 235.949ZM68.0841 221.197V226.123H69.2267C70.0053 226.123 70.6316 225.878 71.1056 225.387C71.5288 224.93 71.7404 224.371 71.7404 223.711C71.7234 222.018 71.004 221.163 69.5821 221.146C69.2098 221.146 68.7104 221.163 68.0841 221.197ZM68.0841 228.104V233.893H69.8361C70.767 233.893 71.478 233.613 71.9689 233.055C72.4428 232.547 72.6798 231.853 72.6798 230.973C72.6798 230.245 72.4344 229.602 71.9435 229.043C71.3849 228.417 70.6655 228.104 69.7853 228.104H68.0841ZM78.2901 227.621C78.2901 225.201 79.0095 223.195 80.4483 221.604C81.8871 219.995 83.7152 219.191 85.9327 219.191C88.1332 219.191 89.9275 219.995 91.3155 221.604C92.7035 223.195 93.3975 225.201 93.3975 227.621C93.3975 230.38 92.6527 232.555 91.1632 234.146C89.7582 235.653 87.9555 236.406 85.755 236.406C83.5714 236.406 81.8025 235.653 80.4483 234.146C79.0095 232.555 78.2901 230.38 78.2901 227.621ZM81.5401 227.85C81.5401 229.525 81.9379 230.981 82.7335 232.217C83.529 233.452 84.5362 234.07 85.755 234.07C86.9906 234.07 88.0401 233.436 88.9034 232.166C89.7328 230.947 90.1475 229.525 90.1475 227.9C90.1475 226.174 89.7667 224.684 89.005 223.432C88.2094 222.128 87.1684 221.485 85.8819 221.502C84.5955 221.502 83.5375 222.145 82.7081 223.432C81.9294 224.667 81.5401 226.14 81.5401 227.85ZM100.455 229.17H99.8711V236H96.875V219.344C97.349 219.344 98.2377 219.327 99.5411 219.293C100.489 219.276 101.268 219.268 101.877 219.268C103.451 219.268 104.653 219.699 105.482 220.562C106.329 221.409 106.744 222.585 106.727 224.092C106.71 225.294 106.363 226.335 105.686 227.215C105.076 227.993 104.306 228.527 103.375 228.814C104.746 230.727 106.727 232.987 109.316 235.594L105.482 236.279C104.213 234.976 102.537 232.606 100.455 229.17ZM99.8711 221.197V227.342H100.938C102.85 227.342 103.807 226.25 103.807 224.066C103.807 223.339 103.663 222.721 103.375 222.213C102.952 221.468 102.258 221.113 101.293 221.146L99.8711 221.197ZM114.165 225.564L114.14 236H111.474V219.268H113.962L120.665 229.779V219.369H123.306V235.619L120.843 236.381C119.15 233.266 116.924 229.661 114.165 225.564ZM127.621 219.344H130.693V236H127.621V219.344ZM137.7 225.564L137.675 236H135.009V219.268H137.497L144.2 229.779V219.369H146.841V235.619L144.378 236.381C142.685 233.266 140.459 229.661 137.7 225.564ZM157.351 236.152C155.117 236.152 153.348 235.247 152.045 233.436C150.894 231.844 150.318 229.898 150.318 227.596C150.301 225.497 150.843 223.592 151.943 221.883C153.264 219.852 155.041 218.836 157.275 218.836C158.071 218.836 158.976 218.988 159.992 219.293C161.16 219.665 162.074 220.122 162.734 220.664L161.668 222.645C160.28 221.697 159.01 221.214 157.859 221.197C156.556 221.197 155.515 221.993 154.736 223.584C154.093 224.887 153.771 226.267 153.771 227.723C153.771 229.348 154.127 230.736 154.838 231.887C155.549 233.038 156.42 233.613 157.453 233.613C158.502 233.613 159.323 233.469 159.916 233.182V228.104H156.488V225.844H162.988V234.299C161.854 234.993 160.957 235.458 160.297 235.695C159.45 236 158.469 236.152 157.351 236.152ZM83.8502 256.17H83.2662V263H80.2701V246.344C80.744 246.344 81.6327 246.327 82.9361 246.293C83.884 246.276 84.6627 246.268 85.272 246.268C86.8463 246.268 88.0481 246.699 88.8775 247.562C89.7239 248.409 90.1386 249.585 90.1216 251.092C90.1047 252.294 89.7577 253.335 89.0806 254.215C88.4713 254.993 87.7011 255.527 86.7701 255.814C88.1412 257.727 90.1216 259.987 92.7115 262.594L88.8775 263.279C87.608 261.976 85.9322 259.606 83.8502 256.17ZM83.2662 248.197V254.342H84.3326C86.2453 254.342 87.2017 253.25 87.2017 251.066C87.2017 250.339 87.0578 249.721 86.7701 249.213C86.3469 248.468 85.6529 248.113 84.688 248.146L83.2662 248.197ZM94.0562 254.621C94.0562 252.201 94.7756 250.195 96.2144 248.604C97.6532 246.995 99.4813 246.191 101.699 246.191C103.899 246.191 105.694 246.995 107.082 248.604C108.47 250.195 109.164 252.201 109.164 254.621C109.164 257.38 108.419 259.555 106.929 261.146C105.524 262.653 103.722 263.406 101.521 263.406C99.3374 263.406 97.5685 262.653 96.2144 261.146C94.7756 259.555 94.0562 257.38 94.0562 254.621ZM97.3062 254.85C97.3062 256.525 97.704 257.981 98.4995 259.217C99.2951 260.452 100.302 261.07 101.521 261.07C102.757 261.07 103.806 260.436 104.669 259.166C105.499 257.947 105.914 256.525 105.914 254.9C105.914 253.174 105.533 251.684 104.771 250.432C103.975 249.128 102.934 248.485 101.648 248.502C100.362 248.502 99.3036 249.145 98.4741 250.432C97.6955 251.667 97.3062 253.14 97.3062 254.85ZM111.829 254.621C111.829 252.201 112.548 250.195 113.987 248.604C115.426 246.995 117.254 246.191 119.471 246.191C121.672 246.191 123.466 246.995 124.854 248.604C126.242 250.195 126.936 252.201 126.936 254.621C126.936 257.38 126.191 259.555 124.702 261.146C123.297 262.653 121.494 263.406 119.293 263.406C117.11 263.406 115.341 262.653 113.987 261.146C112.548 259.555 111.829 257.38 111.829 254.621ZM115.079 254.85C115.079 256.525 115.476 257.981 116.272 259.217C117.068 260.452 118.075 261.07 119.293 261.07C120.529 261.07 121.579 260.436 122.442 259.166C123.271 257.947 123.686 256.525 123.686 254.9C123.686 253.174 123.305 251.684 122.543 250.432C121.748 249.128 120.707 248.485 119.42 248.502C118.134 248.502 117.076 249.145 116.247 250.432C115.468 251.667 115.079 253.14 115.079 254.85ZM144.048 251.904L140.087 263.025H137.396L133.41 251.803V263H130.667V246.318H134.603L139.148 258.582L143.769 246.318H147.451V263H144.048V251.904Z" fill="#8A9F3B"/>
<path d="M72.6725 75.2715V82H69.6764V65.3438L74.5514 65.2676C75.9732 65.2507 77.1751 65.7246 78.1568 66.6895C79.1555 67.6374 79.6549 68.8307 79.6549 70.2695C79.6549 71.6068 79.0709 72.7832 77.9029 73.7988C76.7519 74.8145 75.457 75.3223 74.0182 75.3223C73.815 75.3223 73.3665 75.3053 72.6725 75.2715ZM72.6725 67.1973V73.4941H73.5104C74.3736 73.4941 75.11 73.181 75.7193 72.5547C76.3456 71.9115 76.6588 71.1751 76.6588 70.3457C76.6588 68.3652 75.7109 67.2988 73.815 67.1465C73.6966 67.1296 73.5019 67.138 73.2311 67.1719C72.9771 67.1888 72.791 67.1973 72.6725 67.1973ZM91.2828 78.1406H85.9L84.7066 82.3047L82.0152 81.9492L87.4234 64.9883H90.064L95.523 81.8223L92.5015 82.3047L91.2828 78.1406ZM86.6109 75.7285H90.5718L88.6422 68.9746L86.6109 75.7285ZM101.54 71.5645L101.514 82H98.8482V65.2676H101.336L108.04 75.7793V65.3691H110.68V81.6191L108.217 82.3809C106.525 79.2663 104.299 75.6608 101.54 71.5645ZM121.978 82H118.88V67.502H114.158V65.3945H126.447V67.502H121.978V82ZM133.53 75.1699H132.946V82H129.95V65.3438C130.424 65.3438 131.312 65.3268 132.616 65.293C133.564 65.276 134.342 65.2676 134.952 65.2676C136.526 65.2676 137.728 65.6992 138.557 66.5625C139.403 67.4089 139.818 68.5853 139.801 70.0918C139.784 71.2936 139.437 72.3346 138.76 73.2148C138.151 73.9935 137.381 74.5267 136.45 74.8145C137.821 76.7272 139.801 78.987 142.391 81.5938L138.557 82.2793C137.288 80.9759 135.612 78.6061 133.53 75.1699ZM132.946 67.1973V73.3418H134.012C135.925 73.3418 136.881 72.25 136.881 70.0664C136.881 69.3385 136.737 68.7207 136.45 68.2129C136.026 67.4681 135.332 67.1126 134.368 67.1465L132.946 67.1973ZM150.947 82H147.9V74.9414L143.177 65.8516L146.376 64.9883L149.728 72.3516L153.283 64.9883L155.669 65.8516L150.947 74.9414V82Z" fill="#8A9F3B"/>
<path d="M146.074 618.344H149.096V632.791H155.824V635H146.074V618.344ZM160.14 618.344H163.212V635H160.14V618.344ZM171.768 635.254L166.08 618.725L169.305 617.912L173.317 630.15L177.074 617.887L179.766 618.75L174.053 635.254H171.768ZM182.659 618.344H185.732V635H182.659V618.344ZM192.738 624.564L192.713 635H190.047V618.268H192.535L199.238 628.779V618.369H201.879V634.619L199.416 635.381C197.723 632.266 195.497 628.661 192.738 624.564ZM212.39 635.152C210.155 635.152 208.386 634.247 207.083 632.436C205.932 630.844 205.356 628.898 205.356 626.596C205.34 624.497 205.881 622.592 206.981 620.883C208.302 618.852 210.079 617.836 212.313 617.836C213.109 617.836 214.015 617.988 215.03 618.293C216.198 618.665 217.112 619.122 217.772 619.664L216.706 621.645C215.318 620.697 214.049 620.214 212.897 620.197C211.594 620.197 210.553 620.993 209.774 622.584C209.131 623.887 208.81 625.267 208.81 626.723C208.81 628.348 209.165 629.736 209.876 630.887C210.587 632.038 211.459 632.613 212.491 632.613C213.541 632.613 214.362 632.469 214.954 632.182V627.104H211.526V624.844H218.026V633.299C216.892 633.993 215.995 634.458 215.335 634.695C214.489 635 213.507 635.152 212.39 635.152ZM234.046 628.17H233.462V635H230.466V618.344C230.94 618.344 231.828 618.327 233.132 618.293C234.08 618.276 234.858 618.268 235.468 618.268C237.042 618.268 238.244 618.699 239.073 619.562C239.92 620.409 240.334 621.585 240.317 623.092C240.3 624.294 239.953 625.335 239.276 626.215C238.667 626.993 237.897 627.527 236.966 627.814C238.337 629.727 240.317 631.987 242.907 634.594L239.073 635.279C237.804 633.976 236.128 631.606 234.046 628.17ZM233.462 620.197V626.342H234.528C236.441 626.342 237.397 625.25 237.397 623.066C237.397 622.339 237.254 621.721 236.966 621.213C236.543 620.468 235.849 620.113 234.884 620.146L233.462 620.197ZM244.252 626.621C244.252 624.201 244.971 622.195 246.41 620.604C247.849 618.995 249.677 618.191 251.894 618.191C254.095 618.191 255.889 618.995 257.277 620.604C258.665 622.195 259.359 624.201 259.359 626.621C259.359 629.38 258.614 631.555 257.125 633.146C255.72 634.653 253.917 635.406 251.717 635.406C249.533 635.406 247.764 634.653 246.41 633.146C244.971 631.555 244.252 629.38 244.252 626.621ZM247.502 626.85C247.502 628.525 247.9 629.981 248.695 631.217C249.491 632.452 250.498 633.07 251.717 633.07C252.952 633.07 254.002 632.436 254.865 631.166C255.695 629.947 256.109 628.525 256.109 626.9C256.109 625.174 255.728 623.684 254.967 622.432C254.171 621.128 253.13 620.485 251.844 620.502C250.557 620.502 249.499 621.145 248.67 622.432C247.891 623.667 247.502 625.14 247.502 626.85ZM262.024 626.621C262.024 624.201 262.744 622.195 264.182 620.604C265.621 618.995 267.449 618.191 269.667 618.191C271.867 618.191 273.662 618.995 275.05 620.604C276.438 622.195 277.132 624.201 277.132 626.621C277.132 629.38 276.387 631.555 274.897 633.146C273.492 634.653 271.69 635.406 269.489 635.406C267.306 635.406 265.537 634.653 264.182 633.146C262.744 631.555 262.024 629.38 262.024 626.621ZM265.274 626.85C265.274 628.525 265.672 629.981 266.468 631.217C267.263 632.452 268.27 633.07 269.489 633.07C270.725 633.07 271.774 632.436 272.638 631.166C273.467 629.947 273.882 628.525 273.882 626.9C273.882 625.174 273.501 623.684 272.739 622.432C271.944 621.128 270.903 620.485 269.616 620.502C268.33 620.502 267.272 621.145 266.442 622.432C265.664 623.667 265.274 625.14 265.274 626.85ZM294.244 623.904L290.283 635.025H287.592L283.605 623.803V635H280.863V618.318H284.799L289.344 630.582L293.965 618.318H297.646V635H294.244V623.904Z" fill="#8A9F3B"/>
<path d="M515.823 652.443C515.823 650.192 516.416 648.254 517.601 646.629C518.972 644.767 520.825 643.836 523.161 643.836C524.634 643.836 526.335 644.437 528.265 645.639L527.173 647.67C526.073 647.027 525.514 646.688 525.497 646.654C524.871 646.367 524.228 646.214 523.568 646.197C522.179 646.197 521.088 646.984 520.292 648.559C519.649 649.811 519.327 651.199 519.327 652.723C519.327 654.365 519.75 655.753 520.597 656.887C521.392 657.953 522.357 658.495 523.491 658.512C524.101 658.512 524.676 658.402 525.218 658.182C525.641 658.029 526.31 657.691 527.224 657.166L528.443 659.197C527.291 659.942 526.394 660.45 525.751 660.721C524.922 661.042 524.008 661.203 523.009 661.203C520.656 661.203 518.828 660.289 517.525 658.461C516.39 656.836 515.823 654.83 515.823 652.443ZM540.959 653.154H535.246V661H532.174V644.369H535.246V650.844H540.959V644.369H544.006V661H540.959V653.154ZM548.321 644.344H551.394V661H548.321V644.344ZM569.344 649.904L565.383 661.025H562.691L558.705 649.803V661H555.963V644.318H559.898L564.443 656.582L569.064 644.318H572.746V661H569.344V649.904ZM580.058 650.564L580.032 661H577.366V644.268H579.854L586.558 654.779V644.369H589.198V660.619L586.735 661.381C585.043 658.266 582.817 654.661 580.058 650.564ZM596.51 650.844H602.426V653.154L596.51 653.129V658.689H602.756V661H593.514V644.369H602.832V646.578H596.51V650.844ZM612.962 661H609.915V653.941L605.192 644.852L608.391 643.988L611.743 651.352L615.298 643.988L617.684 644.852L612.962 653.941V661Z" fill="#8A9F3B"/>
<path d="M528.467 780.867L529.864 778.861C530.896 780.08 532.081 780.689 533.419 780.689C535.247 780.689 536.152 779.801 536.135 778.023C536.135 777.126 535.501 776.415 534.231 775.891C532.166 775.027 531.015 774.511 530.778 774.342C529.525 773.479 528.907 772.15 528.924 770.355C528.941 768.934 529.508 767.774 530.626 766.877C531.574 766.115 532.606 765.734 533.723 765.734C535.518 765.734 537.151 766.352 538.624 767.588L537.583 769.771C536.398 768.654 535.281 768.096 534.231 768.096C533.52 768.096 532.995 768.24 532.657 768.527C532.234 768.866 532.031 769.484 532.047 770.381C532.047 771.176 532.657 771.82 533.876 772.311C535.771 773.072 536.906 773.597 537.278 773.885C538.514 774.799 539.123 776.161 539.106 777.973C539.106 779.75 538.531 781.113 537.379 782.061C536.381 782.856 535.128 783.254 533.622 783.254C531.32 783.254 529.601 782.458 528.467 780.867ZM549.287 783H546.189V768.502H541.466V766.395H553.755V768.502H549.287V783ZM565.485 779.141H560.102L558.909 783.305L556.217 782.949L561.626 765.988H564.266L569.725 782.822L566.704 783.305L565.485 779.141ZM560.813 776.729H564.774L562.844 769.975L560.813 776.729ZM573.05 766.344H576.123V783H573.05V766.344ZM584.018 776.17H583.434V783H580.438V766.344C580.912 766.344 581.801 766.327 583.104 766.293C584.052 766.276 584.831 766.268 585.44 766.268C587.014 766.268 588.216 766.699 589.045 767.562C589.892 768.409 590.306 769.585 590.289 771.092C590.273 772.294 589.926 773.335 589.248 774.215C588.639 774.993 587.869 775.527 586.938 775.814C588.309 777.727 590.289 779.987 592.879 782.594L589.045 783.279C587.776 781.976 586.1 779.606 584.018 776.17ZM583.434 768.197V774.342H584.5C586.413 774.342 587.37 773.25 587.37 771.066C587.37 770.339 587.226 769.721 586.938 769.213C586.515 768.468 585.821 768.113 584.856 768.146L583.434 768.197ZM594.021 780.867L595.417 778.861C596.45 780.08 597.635 780.689 598.972 780.689C600.8 780.689 601.706 779.801 601.689 778.023C601.689 777.126 601.054 776.415 599.785 775.891C597.719 775.027 596.568 774.511 596.331 774.342C595.079 773.479 594.461 772.15 594.478 770.355C594.495 768.934 595.062 767.774 596.179 766.877C597.127 766.115 598.16 765.734 599.277 765.734C601.071 765.734 602.704 766.352 604.177 767.588L603.136 769.771C601.951 768.654 600.834 768.096 599.785 768.096C599.074 768.096 598.549 768.24 598.21 768.527C597.787 768.866 597.584 769.484 597.601 770.381C597.601 771.176 598.21 771.82 599.429 772.311C601.325 773.072 602.459 773.597 602.831 773.885C604.067 774.799 604.676 776.161 604.66 777.973C604.66 779.75 604.084 781.113 602.933 782.061C601.934 782.856 600.682 783.254 599.175 783.254C596.873 783.254 595.155 782.458 594.021 780.867Z" fill="#8A9F3B"/>
</g>
<defs>
<filter id="filter0_g_34_2476" x="0.7" y="0.7" width="684.1" height="881.948" filterUnits="userSpaceOnUse" color-interpolation-filters="sRGB">
<feFlood flood-opacity="0" result="BackgroundImageFix"/>
<feBlend mode="normal" in="SourceGraphic" in2="BackgroundImageFix" result="shape"/>
<feTurbulence type="fractalNoise" baseFrequency="0.41493773460388184 0.41493773460388184" numOctaves="3" seed="4240" />
<feDisplacementMap in="shape" scale="2.5999999046325684" xChannelSelector="R" yChannelSelector="G" result="displacedImage" width="100%" height="100%" />
<feMerge result="effect1_texture_34_2476">
<feMergeNode in="displacedImage"/>
</feMerge>
</filter>
</defs>
</svg>
