<svg width="549" height="498" viewBox="0 0 549 498" fill="none" xmlns="http://www.w3.org/2000/svg">
<g filter="url(#filter0_g_520_1932)">
<path d="M74.0078 116.552L130.503 38.5078L199.148 132.699V197.287H74.0078V116.552Z" fill="#E8B2AB"/>
</g>
<g filter="url(#filter1_g_520_1932)">
<path d="M192.42 308.966C192.42 293.36 205.071 280.709 220.677 280.709H500.56C516.166 280.709 528.817 293.36 528.817 308.966V471.783C528.817 485.159 517.973 496.003 504.597 496.003H216.641C203.264 496.003 192.42 485.159 192.42 471.783V308.966Z" fill="#1A1A1A"/>
<path d="M192.42 308.966C192.42 293.36 205.071 280.709 220.677 280.709H500.56C516.166 280.709 528.817 293.36 528.817 308.966V471.783C528.817 485.159 517.973 496.003 504.597 496.003H216.641C203.264 496.003 192.42 485.159 192.42 471.783V308.966Z" fill="#1A1A1A"/>
<g filter="url(#filter2_g_520_1932)">
<path d="M404.781 134.768L124.467 128.658L244.224 308.067L521.812 308.886C532.951 308.919 539.304 296.177 532.574 287.301L424.597 144.882C419.881 138.662 412.584 134.938 404.781 134.768Z" fill="#E8B2AB"/>
</g>
<g filter="url(#filter3_g_520_1932)">
<path d="M168.764 2.17188H124.467L244.224 176.198L271.315 139.342C274.809 134.589 274.8 128.115 271.292 123.372L189.319 12.5357C184.498 6.01733 176.871 2.17188 168.764 2.17188Z" fill="#E8B2AB"/>
</g>
<path d="M244.489 171.373L245 137.205H202.933L192 122V150V178H237.762C241.438 178 244.434 175.049 244.489 171.373Z" fill="#1A1A1A" stroke="#1A1A1A" stroke-width="12.1103"/>
<path d="M24.2207 310.312C24.2207 294.706 36.872 282.055 52.4781 282.055H209.912C225.518 282.055 238.169 294.706 238.169 310.312V471.783C238.169 485.16 227.326 496.003 213.949 496.003H48.4413C35.0646 496.003 24.2207 485.16 24.2207 471.783V310.312Z" fill="#EA968B"/>
<path d="M234.805 290.129L130.372 150.4C129.292 148.954 127.124 148.961 126.052 150.412L22.8743 290.129" stroke="#E8B2AB" stroke-width="41.7133" stroke-linecap="round"/>
<path d="M141.288 439.488C145.747 439.488 149.361 443.103 149.361 447.562L149.361 496.003L108.994 496.003L108.994 447.562C108.994 443.103 112.608 439.488 117.067 439.488L141.288 439.488Z" fill="#1A1A1A"/>
<path d="M103.279 181.984C114.479 165.879 138.279 165.806 149.578 181.842L222.94 285.964C236.13 304.684 222.741 330.496 199.84 330.496H54.0695C31.2482 330.496 17.8408 304.842 30.8703 286.106L103.279 181.984Z" fill="#EA968B"/>
<rect x="146" y="293.791" width="37.6855" height="37.6855" rx="18.8427" transform="rotate(-180 146 293.791)" fill="#F34C34" stroke="#1A1A1A" stroke-width="6"/>
<path d="M127.822 291.936L127.822 254.869" stroke="#1A1A1A" stroke-width="6"/>
<path d="M107.084 275.611L145.694 275.611" stroke="#1A1A1A" stroke-width="6"/>
<rect x="54.002" y="421" width="30.2469" height="37.4963" rx="5.07354" fill="#EA968B" stroke="#1A1A1A" stroke-width="6"/>
<path d="M69.123 419.449L69.123 460.046" stroke="#1A1A1A" stroke-width="6"/>
<path d="M85.7988 439.748L51.0018 439.748" stroke="#1A1A1A" stroke-width="6"/>
<rect x="55.002" y="348.322" width="30.2469" height="37.4963" rx="5.07354" fill="#EA968B" stroke="#1A1A1A" stroke-width="6"/>
<path d="M70.123 346.773L70.123 387.37" stroke="#1A1A1A" stroke-width="6"/>
<path d="M86.7988 367.07L52.0018 367.07" stroke="#1A1A1A" stroke-width="6"/>
<rect x="178" y="421" width="30.2469" height="37.4963" rx="5.07354" fill="#EA968B" stroke="#1A1A1A" stroke-width="6"/>
<path d="M193.123 419.449L193.123 460.046" stroke="#1A1A1A" stroke-width="6"/>
<path d="M209.797 439.748L175 439.748" stroke="#1A1A1A" stroke-width="6"/>
<rect x="179" y="348.322" width="30.2469" height="37.4963" rx="5.07354" fill="#EA968B" stroke="#1A1A1A" stroke-width="6"/>
<path d="M194.123 346.773L194.123 387.37" stroke="#1A1A1A" stroke-width="6"/>
<path d="M210.797 367.07L176 367.07" stroke="#1A1A1A" stroke-width="6"/>
<rect x="118" y="348.322" width="30.2469" height="37.4963" rx="5.07354" fill="#EA968B" stroke="#1A1A1A" stroke-width="6"/>
<path d="M133.125 346.773L133.125 387.37" stroke="#1A1A1A" stroke-width="6"/>
<path d="M149.799 367.07L115.002 367.07" stroke="#1A1A1A" stroke-width="6"/>
<rect x="117.121" y="97.7148" width="25.9049" height="32.2859" rx="5.07354" fill="#E8B2AB" stroke="#1A1A1A" stroke-width="6"/>
<path d="M130.068 95.9902L130.068 131.724" stroke="#1A1A1A" stroke-width="6"/>
<path d="M144.746 113.855L114.117 113.855" stroke="#1A1A1A" stroke-width="6"/>
<rect x="291" y="438.711" width="27.8542" height="43.0133" rx="5.07354" transform="rotate(-90 291 438.711)" fill="#1A1A1A" stroke="#E8B2AB" stroke-width="6"/>
<path d="M289.633 424.785L335.379 424.785" stroke="#E8B2AB" stroke-width="6"/>
<path d="M312.506 409.213L312.506 441.713" stroke="#E8B2AB" stroke-width="6"/>
<rect x="291" y="382.855" width="27.8542" height="43.0133" rx="5.07354" transform="rotate(-90 291 382.855)" fill="#1A1A1A" stroke="#E8B2AB" stroke-width="6"/>
<path d="M289.633 368.93L335.379 368.93" stroke="#E8B2AB" stroke-width="6"/>
<path d="M312.506 353.355L312.506 385.855" stroke="#E8B2AB" stroke-width="6"/>
<rect x="366.557" y="438.715" width="27.8542" height="43.0133" rx="5.07354" transform="rotate(-90 366.557 438.715)" fill="#1A1A1A" stroke="#E8B2AB" stroke-width="6"/>
<path d="M365.191 424.789L410.937 424.789" stroke="#E8B2AB" stroke-width="6"/>
<path d="M388.064 409.217L388.064 441.717" stroke="#E8B2AB" stroke-width="6"/>
<rect x="442.111" y="438.715" width="27.8542" height="43.0133" rx="5.07354" transform="rotate(-90 442.111 438.715)" fill="#1A1A1A" stroke="#E8B2AB" stroke-width="6"/>
<path d="M440.746 424.789L486.492 424.789" stroke="#E8B2AB" stroke-width="6"/>
<path d="M463.621 409.217L463.621 441.717" stroke="#E8B2AB" stroke-width="6"/>
<rect x="366.557" y="382.859" width="27.8542" height="43.0133" rx="5.07354" transform="rotate(-90 366.557 382.859)" fill="#1A1A1A" stroke="#E8B2AB" stroke-width="6"/>
<path d="M365.191 368.934L410.937 368.934" stroke="#E8B2AB" stroke-width="6"/>
<path d="M388.064 353.359L388.064 385.859" stroke="#E8B2AB" stroke-width="6"/>
<rect x="442.111" y="382.859" width="27.8542" height="43.0133" rx="5.07354" transform="rotate(-90 442.111 382.859)" fill="#1A1A1A" stroke="#E8B2AB" stroke-width="6"/>
<path d="M440.746 368.934L486.492 368.934" stroke="#E8B2AB" stroke-width="6"/>
<path d="M463.621 353.359L463.621 385.859" stroke="#E8B2AB" stroke-width="6"/>
<path d="M246.244 321.077L130.367 163.226C129.294 161.763 127.111 161.76 126.033 163.22L22.8749 302.911" stroke="#1A1A1A" stroke-width="17.4927" stroke-linecap="round"/>
<path d="M211.932 115.875L132.669 18.2709C131.574 16.9224 129.507 16.9493 128.447 18.3259L58.5344 109.147" stroke="#E8B2AB" stroke-width="30.9486" stroke-linecap="round"/>
<path d="M200.492 130.004L132.974 37.4387C131.901 35.9676 129.707 35.9645 128.63 37.4326L68.6244 119.21" stroke="#1A1A1A" stroke-width="17.4927" stroke-linecap="round"/>
<g filter="url(#filter4_g_520_1932)">
<path d="M252.971 217.469L265.081 234.961" stroke="#D7859C" stroke-width="16.1471" stroke-linecap="round"/>
</g>
<g filter="url(#filter5_g_520_1932)">
<path d="M294.012 254.471L303.431 268.599" stroke="#D7859C" stroke-width="16.1471" stroke-linecap="round"/>
</g>
<g filter="url(#filter6_g_520_1932)">
<path d="M419.824 243.039L429.243 257.168" stroke="#D7859C" stroke-width="16.1471" stroke-linecap="round"/>
</g>
<g filter="url(#filter7_g_520_1932)">
<path d="M302.086 219.484L311.505 234.286" stroke="#D7859C" stroke-width="16.1471" stroke-linecap="round"/>
</g>
</g>
<g filter="url(#filter8_g_520_1932)">
<path d="M91 213H167" stroke="#1A1A1A" stroke-width="12.1103"/>
</g>
<g filter="url(#filter9_g_520_1932)">
<path d="M101.186 68.166H156.177" stroke="#1A1A1A" stroke-width="12.1103"/>
</g>
<defs>
<filter id="filter0_g_520_1932" x="72.2585" y="36.7585" width="128.639" height="162.278" filterUnits="userSpaceOnUse" color-interpolation-filters="sRGB">
<feFlood flood-opacity="0" result="BackgroundImageFix"/>
<feBlend mode="normal" in="SourceGraphic" in2="BackgroundImageFix" result="shape"/>
<feTurbulence type="fractalNoise" baseFrequency="0.30836868286132812 0.30836868286132812" numOctaves="3" seed="4240" />
<feDisplacementMap in="shape" scale="3.4985332489013672" xChannelSelector="R" yChannelSelector="G" result="displacedImage" width="100%" height="100%" />
<feMerge result="effect1_texture_520_1932">
<feMergeNode in="displacedImage"/>
</feMerge>
</filter>
<filter id="filter1_g_520_1932" x="0.266358" y="0.0534678" width="536.815" height="497.7" filterUnits="userSpaceOnUse" color-interpolation-filters="sRGB">
<feFlood flood-opacity="0" result="BackgroundImageFix"/>
<feBlend mode="normal" in="SourceGraphic" in2="BackgroundImageFix" result="shape"/>
<feTurbulence type="fractalNoise" baseFrequency="0.30836868286132812 0.30836868286132812" numOctaves="3" seed="4240" />
<feDisplacementMap in="shape" scale="3.4985332489013672" xChannelSelector="R" yChannelSelector="G" result="displacedImage" width="100%" height="100%" />
<feMerge result="effect1_texture_520_1932">
<feMergeNode in="displacedImage"/>
</feMerge>
</filter>
<filter id="filter2_g_520_1932" x="122.718" y="126.909" width="414.364" height="183.727" filterUnits="userSpaceOnUse" color-interpolation-filters="sRGB">
<feFlood flood-opacity="0" result="BackgroundImageFix"/>
<feBlend mode="normal" in="SourceGraphic" in2="BackgroundImageFix" result="shape"/>
<feTurbulence type="fractalNoise" baseFrequency="0.30836868286132812 0.30836868286132812" numOctaves="3" seed="4240" />
<feDisplacementMap in="shape" scale="3.4985332489013672" xChannelSelector="R" yChannelSelector="G" result="displacedImage" width="100%" height="100%" />
<feMerge result="effect1_texture_520_1932">
<feMergeNode in="displacedImage"/>
</feMerge>
</filter>
<filter id="filter3_g_520_1932" x="122.718" y="0.422608" width="152.961" height="177.524" filterUnits="userSpaceOnUse" color-interpolation-filters="sRGB">
<feFlood flood-opacity="0" result="BackgroundImageFix"/>
<feBlend mode="normal" in="SourceGraphic" in2="BackgroundImageFix" result="shape"/>
<feTurbulence type="fractalNoise" baseFrequency="0.30836868286132812 0.30836868286132812" numOctaves="3" seed="4240" />
<feDisplacementMap in="shape" scale="3.4985332489013672" xChannelSelector="R" yChannelSelector="G" result="displacedImage" width="100%" height="100%" />
<feMerge result="effect1_texture_520_1932">
<feMergeNode in="displacedImage"/>
</feMerge>
</filter>
<filter id="filter4_g_520_1932" x="243.147" y="207.645" width="31.7583" height="37.1392" filterUnits="userSpaceOnUse" color-interpolation-filters="sRGB">
<feFlood flood-opacity="0" result="BackgroundImageFix"/>
<feBlend mode="normal" in="SourceGraphic" in2="BackgroundImageFix" result="shape"/>
<feTurbulence type="fractalNoise" baseFrequency="0.30836868286132812 0.30836868286132812" numOctaves="3" seed="4240" />
<feDisplacementMap in="shape" scale="3.4985332489013672" xChannelSelector="R" yChannelSelector="G" result="displacedImage" width="100%" height="100%" />
<feMerge result="effect1_texture_520_1932">
<feMergeNode in="displacedImage"/>
</feMerge>
</filter>
<filter id="filter5_g_520_1932" x="284.188" y="244.647" width="29.0669" height="33.7759" filterUnits="userSpaceOnUse" color-interpolation-filters="sRGB">
<feFlood flood-opacity="0" result="BackgroundImageFix"/>
<feBlend mode="normal" in="SourceGraphic" in2="BackgroundImageFix" result="shape"/>
<feTurbulence type="fractalNoise" baseFrequency="0.30836868286132812 0.30836868286132812" numOctaves="3" seed="4240" />
<feDisplacementMap in="shape" scale="3.4985332489013672" xChannelSelector="R" yChannelSelector="G" result="displacedImage" width="100%" height="100%" />
<feMerge result="effect1_texture_520_1932">
<feMergeNode in="displacedImage"/>
</feMerge>
</filter>
<filter id="filter6_g_520_1932" x="410.001" y="233.216" width="29.0669" height="33.7759" filterUnits="userSpaceOnUse" color-interpolation-filters="sRGB">
<feFlood flood-opacity="0" result="BackgroundImageFix"/>
<feBlend mode="normal" in="SourceGraphic" in2="BackgroundImageFix" result="shape"/>
<feTurbulence type="fractalNoise" baseFrequency="0.30836868286132812 0.30836868286132812" numOctaves="3" seed="4240" />
<feDisplacementMap in="shape" scale="3.4985332489013672" xChannelSelector="R" yChannelSelector="G" result="displacedImage" width="100%" height="100%" />
<feMerge result="effect1_texture_520_1932">
<feMergeNode in="displacedImage"/>
</feMerge>
</filter>
<filter id="filter7_g_520_1932" x="292.262" y="209.661" width="29.0669" height="34.4497" filterUnits="userSpaceOnUse" color-interpolation-filters="sRGB">
<feFlood flood-opacity="0" result="BackgroundImageFix"/>
<feBlend mode="normal" in="SourceGraphic" in2="BackgroundImageFix" result="shape"/>
<feTurbulence type="fractalNoise" baseFrequency="0.30836868286132812 0.30836868286132812" numOctaves="3" seed="4240" />
<feDisplacementMap in="shape" scale="3.4985332489013672" xChannelSelector="R" yChannelSelector="G" result="displacedImage" width="100%" height="100%" />
<feMerge result="effect1_texture_520_1932">
<feMergeNode in="displacedImage"/>
</feMerge>
</filter>
<filter id="filter8_g_520_1932" x="89.2507" y="205.196" width="79.4985" height="15.6079" filterUnits="userSpaceOnUse" color-interpolation-filters="sRGB">
<feFlood flood-opacity="0" result="BackgroundImageFix"/>
<feBlend mode="normal" in="SourceGraphic" in2="BackgroundImageFix" result="shape"/>
<feTurbulence type="fractalNoise" baseFrequency="0.30836868286132812 0.30836868286132812" numOctaves="3" seed="4240" />
<feDisplacementMap in="shape" scale="3.4985332489013672" xChannelSelector="R" yChannelSelector="G" result="displacedImage" width="100%" height="100%" />
<feMerge result="effect1_texture_520_1932">
<feMergeNode in="displacedImage"/>
</feMerge>
</filter>
<filter id="filter9_g_520_1932" x="99.4363" y="60.3621" width="58.4907" height="15.6079" filterUnits="userSpaceOnUse" color-interpolation-filters="sRGB">
<feFlood flood-opacity="0" result="BackgroundImageFix"/>
<feBlend mode="normal" in="SourceGraphic" in2="BackgroundImageFix" result="shape"/>
<feTurbulence type="fractalNoise" baseFrequency="0.30836868286132812 0.30836868286132812" numOctaves="3" seed="4240" />
<feDisplacementMap in="shape" scale="3.4985332489013672" xChannelSelector="R" yChannelSelector="G" result="displacedImage" width="100%" height="100%" />
<feMerge result="effect1_texture_520_1932">
<feMergeNode in="displacedImage"/>
</feMerge>
</filter>
</defs>
</svg>
