<svg width="286" height="430" viewBox="0 0 286 430" fill="none" xmlns="http://www.w3.org/2000/svg">
<g filter="url(#filter0_g_516_1810)">
<g filter="url(#filter1_g_516_1810)">
<path d="M56.586 71.7442L70.776 47.166C78.1401 34.4107 86.2363 21.0866 99.6564 15.0179C116.708 7.307 134.502 9.95882 143.156 13.2358L112.338 88.6045L57.1832 73.2074C56.554 73.0318 56.2594 72.3099 56.586 71.7442Z" fill="#F6F0E5" stroke="#F6F0E5" stroke-width="17" stroke-linecap="round"/>
<path d="M226.041 71.7442L211.851 47.166C204.487 34.4107 196.391 21.0866 182.971 15.0179C165.919 7.307 148.125 9.95882 139.471 13.2358L170.289 88.6045L225.444 73.2074C226.073 73.0318 226.368 72.3099 226.041 71.7442Z" fill="#F6F0E5" stroke="#F6F0E5" stroke-width="17" stroke-linecap="round"/>
</g>
<g filter="url(#filter2_g_516_1810)">
<circle cx="123.359" cy="55.1012" r="28.6469" transform="rotate(30 123.359 55.1012)" fill="#F34C34"/>
<circle cx="93.4015" cy="99.8258" r="28.6469" transform="rotate(30 93.4015 99.8258)" fill="#F34C34"/>
<circle cx="67.8976" cy="141.613" r="28.6469" transform="rotate(30 67.8976 141.613)" fill="#F34C34"/>
<circle cx="39.1339" cy="184.269" r="28.6469" transform="rotate(30 39.1339 184.269)" fill="#F34C34"/>
</g>
<g filter="url(#filter3_g_516_1810)">
<circle cx="28.6469" cy="28.6469" r="28.6469" transform="matrix(-0.866025 0.5 0.5 0.866025 172.619 15.9668)" fill="#F34C34"/>
<circle cx="28.6469" cy="28.6469" r="28.6469" transform="matrix(-0.866025 0.5 0.5 0.866025 202.578 60.6934)" fill="#F34C34"/>
<circle cx="28.6469" cy="28.6469" r="28.6469" transform="matrix(-0.866025 0.5 0.5 0.866025 154.619 69)" fill="#F34C34"/>
<circle cx="28.6469" cy="28.6469" r="28.6469" transform="matrix(-0.866025 0.5 0.5 0.866025 228.082 102.48)" fill="#F34C34"/>
<circle cx="28.6469" cy="28.6469" r="28.6469" transform="matrix(-0.866025 0.5 0.5 0.866025 256.846 145.135)" fill="#F34C34"/>
</g>
<g filter="url(#filter4_g_516_1810)">
<path d="M155 303H206L217 386H155V303Z" fill="#E8B2AB"/>
</g>
<g filter="url(#filter5_g_516_1810)">
<path d="M128 303H77L66 386H128V303Z" fill="#E8B2AB"/>
</g>
<g filter="url(#filter6_g_516_1810)">
<path d="M129 360.5C129 358.843 127.657 357.5 126 357.5H69.4333C68.0146 357.5 66.7899 358.494 66.4976 359.882L60.9991 386H128.999L129 360.5Z" fill="#F6F0E5"/>
</g>
<g filter="url(#filter7_g_516_1810)">
<path d="M154 360.5C154 358.843 155.343 357.5 157 357.5H213.3C214.835 357.5 216.123 358.659 216.284 360.186L219.001 386H154.001L154 360.5Z" fill="#F6F0E5"/>
</g>
<g filter="url(#filter8_g_516_1810)">
<ellipse cx="142.002" cy="59.7266" rx="60" ry="46.5" fill="#E8B2AB"/>
</g>
<g filter="url(#filter9_g_516_1810)">
<path d="M57.9734 317.842L95.759 147.648L184.194 140.227L223.997 317.821C225.538 324.696 220.309 331.227 213.264 331.227H68.7119C61.6756 331.227 56.4484 324.712 57.9734 317.842Z" fill="#1A1A1A"/>
</g>
<g filter="url(#filter10_g_516_1810)">
<path d="M91.6705 248.786L102.331 192H179.711L189.57 248.953C190.84 256.29 185.192 263 177.746 263H103.464C95.9496 263 90.2839 256.172 91.6705 248.786Z" fill="#F6F0E5"/>
</g>
<g filter="url(#filter11_g_516_1810)">
<path d="M168.002 133.227C200.331 142.719 269.846 155.342 205.821 197.227" stroke="#1A1A1A" stroke-width="39" stroke-linejoin="round"/>
</g>
<g filter="url(#filter12_g_516_1810)">
<path d="M126 93H159V116.5C159 125.613 151.613 133 142.5 133V133C133.387 133 126 125.613 126 116.5V93Z" fill="#E8B2AB"/>
</g>
<g filter="url(#filter13_g_516_1810)">
<path d="M115 133.227C82.6714 142.719 13.1561 155.342 77.181 197.227" stroke="#1A1A1A" stroke-width="39" stroke-linejoin="round"/>
</g>
<g filter="url(#filter14_g_516_1810)">
<path d="M126.83 107.559C126.475 108.582 126.284 109.658 126.284 110.768C126.284 117.613 133.483 123.162 142.363 123.162C151.243 123.162 158.441 117.613 158.441 110.768C158.441 109.736 158.277 108.735 157.969 107.777L226.875 128.125C229.818 128.994 230.677 132.632 228.311 134.586C215.787 144.925 181.886 169.443 142.028 169.443C102.171 169.443 68.2693 144.925 55.7461 134.586C53.3794 132.632 54.2383 128.994 57.1816 128.125L126.83 107.559Z" fill="#F6F0E5"/>
</g>
<mask id="mask0_516_1810" style="mask-type:alpha" maskUnits="userSpaceOnUse" x="82" y="13" width="120" height="94">
<ellipse cx="142.028" cy="59.7964" rx="59.96" ry="46.2261" fill="#EA968B"/>
</mask>
<g mask="url(#mask0_516_1810)">
<g filter="url(#filter15_g_516_1810)">
<path d="M200.648 51.4221C167.15 53.03 146.27 26.8575 140.018 13.5703L172.175 16.92L192.273 27.3042L200.648 51.4221Z" fill="#F34C34"/>
<path d="M80.7275 51.4221C114.225 53.03 135.105 26.8575 141.357 13.5703L109.2 16.92L89.1018 27.3042L80.7275 51.4221Z" fill="#F34C34"/>
</g>
</g>
<g filter="url(#filter16_g_516_1810)">
<ellipse cx="166" cy="76.5" rx="11" ry="10.5" fill="#EA968B"/>
</g>
<g filter="url(#filter17_g_516_1810)">
<ellipse cx="118" cy="77.5" rx="11" ry="10.5" fill="#EA968B"/>
</g>
<circle cx="126.5" cy="63.7266" r="3.5" fill="#1A1A1A"/>
<circle cx="155.502" cy="63.7266" r="3.5" fill="#1A1A1A"/>
<path d="M156.535 54.0894L151 55.9277" stroke="#F34C34" stroke-width="6" stroke-linecap="round"/>
<path d="M156.535 54.0894L151 55.9277" stroke="#5A0000" stroke-opacity="0.2" stroke-width="6" stroke-linecap="round" style="mix-blend-mode:multiply"/>
<path d="M126 54.0894L131.535 55.9277" stroke="#F34C34" stroke-width="6" stroke-linecap="round"/>
<path d="M126 54.0894L131.535 55.9277" stroke="#5A0000" stroke-opacity="0.2" stroke-width="6" stroke-linecap="round" style="mix-blend-mode:multiply"/>
<path d="M134 71.5V71.5C138.404 69.3001 143.598 69.2967 148 71.5V71.5" stroke="#1A1A1A" stroke-width="5" stroke-linecap="round" stroke-linejoin="round"/>
<g filter="url(#filter18_g_516_1810)">
<ellipse cx="88.502" cy="66.2266" rx="19.5" ry="16" fill="#E8B2AB"/>
</g>
<g filter="url(#filter19_g_516_1810)">
<ellipse cx="200.502" cy="66.2266" rx="19.5" ry="16" fill="#E8B2AB"/>
</g>
<g filter="url(#filter20_g_516_1810)">
<path d="M187.459 183C191.071 183 194.235 185.421 195.18 188.907L196.264 192.907C197.643 197.993 193.813 203 188.543 203H89.457C84.1872 203 80.357 197.993 81.7356 192.907L82.8198 188.907C83.7648 185.421 86.929 183 90.5412 183H187.459Z" fill="#F6F0E5"/>
</g>
<g filter="url(#filter21_g_516_1810)">
<ellipse cx="87.5" cy="206" rx="24.5" ry="25" fill="#E8B2AB"/>
</g>
<g filter="url(#filter22_g_516_1810)">
<ellipse cx="24.5" cy="25" rx="24.5" ry="25" transform="matrix(-1 0 0 1 220 181)" fill="#E8B2AB"/>
</g>
<g filter="url(#filter23_g_516_1810)">
<path d="M154 380H216C232.569 380 246 393.431 246 410V423C246 425.761 243.761 428 241 428H154V380Z" fill="#1A1A1A"/>
</g>
<g filter="url(#filter24_g_516_1810)">
<path d="M129 380H67C50.4315 380 37 393.431 37 410V423C37 425.761 39.2386 428 42 428H129V380Z" fill="#1A1A1A"/>
</g>
<path d="M87.4023 68.2734L80.0005 64" stroke="#EA968B" stroke-width="6" stroke-linecap="round"/>
<path d="M201 68.2734L208.402 64" stroke="#EA968B" stroke-width="6" stroke-linecap="round"/>
</g>
<g filter="url(#filter25_g_516_1810)">
<rect x="43.8047" y="197.768" width="44.5098" height="25.067" rx="2" transform="rotate(-49.6097 43.8047 197.768)" fill="#F6F0E5"/>
</g>
<g filter="url(#filter26_g_516_1810)">
<rect width="44.5098" height="25.067" rx="2" transform="matrix(-0.647992 -0.761647 -0.761647 0.647992 239.195 197.768)" fill="#F6F0E5"/>
</g>
<defs>
<filter id="filter0_g_516_1810" x="9.18242" y="0.2" width="267.129" height="429.1" filterUnits="userSpaceOnUse" color-interpolation-filters="sRGB">
<feFlood flood-opacity="0" result="BackgroundImageFix"/>
<feBlend mode="normal" in="SourceGraphic" in2="BackgroundImageFix" result="shape"/>
<feTurbulence type="fractalNoise" baseFrequency="0.41493773460388184 0.41493773460388184" numOctaves="3" seed="4240" />
<feDisplacementMap in="shape" scale="2.5999999046325684" xChannelSelector="R" yChannelSelector="G" result="displacedImage" width="100%" height="100%" />
<feMerge result="effect1_texture_516_1810">
<feMergeNode in="displacedImage"/>
</feMerge>
</filter>
<filter id="filter1_g_516_1810" x="46.6473" y="0.2" width="189.332" height="99.9262" filterUnits="userSpaceOnUse" color-interpolation-filters="sRGB">
<feFlood flood-opacity="0" result="BackgroundImageFix"/>
<feBlend mode="normal" in="SourceGraphic" in2="BackgroundImageFix" result="shape"/>
<feTurbulence type="fractalNoise" baseFrequency="0.41493773460388184 0.41493773460388184" numOctaves="3" seed="4240" />
<feDisplacementMap in="shape" scale="2.5999999046325684" xChannelSelector="R" yChannelSelector="G" result="displacedImage" width="100%" height="100%" />
<feMerge result="effect1_texture_516_1810">
<feMergeNode in="displacedImage"/>
</feMerge>
</filter>
<filter id="filter2_g_516_1810" x="9.18242" y="25.1492" width="144.127" height="189.071" filterUnits="userSpaceOnUse" color-interpolation-filters="sRGB">
<feFlood flood-opacity="0" result="BackgroundImageFix"/>
<feBlend mode="normal" in="SourceGraphic" in2="BackgroundImageFix" result="shape"/>
<feTurbulence type="fractalNoise" baseFrequency="0.41493773460388184 0.41493773460388184" numOctaves="3" seed="4240" />
<feDisplacementMap in="shape" scale="2.5999999046325684" xChannelSelector="R" yChannelSelector="G" result="displacedImage" width="100%" height="100%" />
<feMerge result="effect1_texture_516_1810">
<feMergeNode in="displacedImage"/>
</feMerge>
</filter>
<filter id="filter3_g_516_1810" x="114.182" y="25.1473" width="162.129" height="189.071" filterUnits="userSpaceOnUse" color-interpolation-filters="sRGB">
<feFlood flood-opacity="0" result="BackgroundImageFix"/>
<feBlend mode="normal" in="SourceGraphic" in2="BackgroundImageFix" result="shape"/>
<feTurbulence type="fractalNoise" baseFrequency="0.41493773460388184 0.41493773460388184" numOctaves="3" seed="4240" />
<feDisplacementMap in="shape" scale="2.5999999046325684" xChannelSelector="R" yChannelSelector="G" result="displacedImage" width="100%" height="100%" />
<feMerge result="effect1_texture_516_1810">
<feMergeNode in="displacedImage"/>
</feMerge>
</filter>
<filter id="filter4_g_516_1810" x="153.7" y="301.7" width="64.6" height="85.6" filterUnits="userSpaceOnUse" color-interpolation-filters="sRGB">
<feFlood flood-opacity="0" result="BackgroundImageFix"/>
<feBlend mode="normal" in="SourceGraphic" in2="BackgroundImageFix" result="shape"/>
<feTurbulence type="fractalNoise" baseFrequency="0.41493773460388184 0.41493773460388184" numOctaves="3" seed="4240" />
<feDisplacementMap in="shape" scale="2.5999999046325684" xChannelSelector="R" yChannelSelector="G" result="displacedImage" width="100%" height="100%" />
<feMerge result="effect1_texture_516_1810">
<feMergeNode in="displacedImage"/>
</feMerge>
</filter>
<filter id="filter5_g_516_1810" x="64.7" y="301.7" width="64.6" height="85.6" filterUnits="userSpaceOnUse" color-interpolation-filters="sRGB">
<feFlood flood-opacity="0" result="BackgroundImageFix"/>
<feBlend mode="normal" in="SourceGraphic" in2="BackgroundImageFix" result="shape"/>
<feTurbulence type="fractalNoise" baseFrequency="0.41493773460388184 0.41493773460388184" numOctaves="3" seed="4240" />
<feDisplacementMap in="shape" scale="2.5999999046325684" xChannelSelector="R" yChannelSelector="G" result="displacedImage" width="100%" height="100%" />
<feMerge result="effect1_texture_516_1810">
<feMergeNode in="displacedImage"/>
</feMerge>
</filter>
<filter id="filter6_g_516_1810" x="59.7" y="356.2" width="70.6" height="31.1" filterUnits="userSpaceOnUse" color-interpolation-filters="sRGB">
<feFlood flood-opacity="0" result="BackgroundImageFix"/>
<feBlend mode="normal" in="SourceGraphic" in2="BackgroundImageFix" result="shape"/>
<feTurbulence type="fractalNoise" baseFrequency="0.41493773460388184 0.41493773460388184" numOctaves="3" seed="4240" />
<feDisplacementMap in="shape" scale="2.5999999046325684" xChannelSelector="R" yChannelSelector="G" result="displacedImage" width="100%" height="100%" />
<feMerge result="effect1_texture_516_1810">
<feMergeNode in="displacedImage"/>
</feMerge>
</filter>
<filter id="filter7_g_516_1810" x="152.7" y="356.2" width="67.6" height="31.1" filterUnits="userSpaceOnUse" color-interpolation-filters="sRGB">
<feFlood flood-opacity="0" result="BackgroundImageFix"/>
<feBlend mode="normal" in="SourceGraphic" in2="BackgroundImageFix" result="shape"/>
<feTurbulence type="fractalNoise" baseFrequency="0.41493773460388184 0.41493773460388184" numOctaves="3" seed="4240" />
<feDisplacementMap in="shape" scale="2.5999999046325684" xChannelSelector="R" yChannelSelector="G" result="displacedImage" width="100%" height="100%" />
<feMerge result="effect1_texture_516_1810">
<feMergeNode in="displacedImage"/>
</feMerge>
</filter>
<filter id="filter8_g_516_1810" x="80.702" y="11.9266" width="122.6" height="95.6" filterUnits="userSpaceOnUse" color-interpolation-filters="sRGB">
<feFlood flood-opacity="0" result="BackgroundImageFix"/>
<feBlend mode="normal" in="SourceGraphic" in2="BackgroundImageFix" result="shape"/>
<feTurbulence type="fractalNoise" baseFrequency="0.41493773460388184 0.41493773460388184" numOctaves="3" seed="4240" />
<feDisplacementMap in="shape" scale="2.5999999046325684" xChannelSelector="R" yChannelSelector="G" result="displacedImage" width="100%" height="100%" />
<feMerge result="effect1_texture_516_1810">
<feMergeNode in="displacedImage"/>
</feMerge>
</filter>
<filter id="filter9_g_516_1810" x="56.407" y="138.927" width="169.161" height="193.6" filterUnits="userSpaceOnUse" color-interpolation-filters="sRGB">
<feFlood flood-opacity="0" result="BackgroundImageFix"/>
<feBlend mode="normal" in="SourceGraphic" in2="BackgroundImageFix" result="shape"/>
<feTurbulence type="fractalNoise" baseFrequency="0.41493773460388184 0.41493773460388184" numOctaves="3" seed="4240" />
<feDisplacementMap in="shape" scale="2.5999999046325684" xChannelSelector="R" yChannelSelector="G" result="displacedImage" width="100%" height="100%" />
<feMerge result="effect1_texture_516_1810">
<feMergeNode in="displacedImage"/>
</feMerge>
</filter>
<filter id="filter10_g_516_1810" x="90.1609" y="190.7" width="100.889" height="73.6" filterUnits="userSpaceOnUse" color-interpolation-filters="sRGB">
<feFlood flood-opacity="0" result="BackgroundImageFix"/>
<feBlend mode="normal" in="SourceGraphic" in2="BackgroundImageFix" result="shape"/>
<feTurbulence type="fractalNoise" baseFrequency="0.41493773460388184 0.41493773460388184" numOctaves="3" seed="4240" />
<feDisplacementMap in="shape" scale="2.5999999046325684" xChannelSelector="R" yChannelSelector="G" result="displacedImage" width="100%" height="100%" />
<feMerge result="effect1_texture_516_1810">
<feMergeNode in="displacedImage"/>
</feMerge>
</filter>
<filter id="filter11_g_516_1810" x="161.208" y="113.216" width="91.5941" height="101.629" filterUnits="userSpaceOnUse" color-interpolation-filters="sRGB">
<feFlood flood-opacity="0" result="BackgroundImageFix"/>
<feBlend mode="normal" in="SourceGraphic" in2="BackgroundImageFix" result="shape"/>
<feTurbulence type="fractalNoise" baseFrequency="0.41493773460388184 0.41493773460388184" numOctaves="3" seed="4240" />
<feDisplacementMap in="shape" scale="2.5999999046325684" xChannelSelector="R" yChannelSelector="G" result="displacedImage" width="100%" height="100%" />
<feMerge result="effect1_texture_516_1810">
<feMergeNode in="displacedImage"/>
</feMerge>
</filter>
<filter id="filter12_g_516_1810" x="124.7" y="91.7" width="35.6" height="42.6" filterUnits="userSpaceOnUse" color-interpolation-filters="sRGB">
<feFlood flood-opacity="0" result="BackgroundImageFix"/>
<feBlend mode="normal" in="SourceGraphic" in2="BackgroundImageFix" result="shape"/>
<feTurbulence type="fractalNoise" baseFrequency="0.41493773460388184 0.41493773460388184" numOctaves="3" seed="4240" />
<feDisplacementMap in="shape" scale="2.5999999046325684" xChannelSelector="R" yChannelSelector="G" result="displacedImage" width="100%" height="100%" />
<feMerge result="effect1_texture_516_1810">
<feMergeNode in="displacedImage"/>
</feMerge>
</filter>
<filter id="filter13_g_516_1810" x="30.2" y="113.216" width="91.5941" height="101.629" filterUnits="userSpaceOnUse" color-interpolation-filters="sRGB">
<feFlood flood-opacity="0" result="BackgroundImageFix"/>
<feBlend mode="normal" in="SourceGraphic" in2="BackgroundImageFix" result="shape"/>
<feTurbulence type="fractalNoise" baseFrequency="0.41493773460388184 0.41493773460388184" numOctaves="3" seed="4240" />
<feDisplacementMap in="shape" scale="2.5999999046325684" xChannelSelector="R" yChannelSelector="G" result="displacedImage" width="100%" height="100%" />
<feMerge result="effect1_texture_516_1810">
<feMergeNode in="displacedImage"/>
</feMerge>
</filter>
<filter id="filter14_g_516_1810" x="53.0809" y="106.259" width="177.895" height="64.4848" filterUnits="userSpaceOnUse" color-interpolation-filters="sRGB">
<feFlood flood-opacity="0" result="BackgroundImageFix"/>
<feBlend mode="normal" in="SourceGraphic" in2="BackgroundImageFix" result="shape"/>
<feTurbulence type="fractalNoise" baseFrequency="0.41493773460388184 0.41493773460388184" numOctaves="3" seed="4240" />
<feDisplacementMap in="shape" scale="2.5999999046325684" xChannelSelector="R" yChannelSelector="G" result="displacedImage" width="100%" height="100%" />
<feMerge result="effect1_texture_516_1810">
<feMergeNode in="displacedImage"/>
</feMerge>
</filter>
<filter id="filter15_g_516_1810" x="79.4266" y="12.2703" width="122.522" height="40.5219" filterUnits="userSpaceOnUse" color-interpolation-filters="sRGB">
<feFlood flood-opacity="0" result="BackgroundImageFix"/>
<feBlend mode="normal" in="SourceGraphic" in2="BackgroundImageFix" result="shape"/>
<feTurbulence type="fractalNoise" baseFrequency="0.41493773460388184 0.41493773460388184" numOctaves="3" seed="4240" />
<feDisplacementMap in="shape" scale="2.5999999046325684" xChannelSelector="R" yChannelSelector="G" result="displacedImage" width="100%" height="100%" />
<feMerge result="effect1_texture_516_1810">
<feMergeNode in="displacedImage"/>
</feMerge>
</filter>
<filter id="filter16_g_516_1810" x="144.03" y="55.03" width="43.94" height="42.94" filterUnits="userSpaceOnUse" color-interpolation-filters="sRGB">
<feFlood flood-opacity="0" result="BackgroundImageFix"/>
<feBlend mode="normal" in="SourceGraphic" in2="BackgroundImageFix" result="shape"/>
<feTurbulence type="fractalNoise" baseFrequency="2 2" numOctaves="3" seed="1626" />
<feDisplacementMap in="shape" scale="21.940000534057617" xChannelSelector="R" yChannelSelector="G" result="displacedImage" width="100%" height="100%" />
<feMerge result="effect1_texture_516_1810">
<feMergeNode in="displacedImage"/>
</feMerge>
</filter>
<filter id="filter17_g_516_1810" x="96.03" y="56.03" width="43.94" height="42.94" filterUnits="userSpaceOnUse" color-interpolation-filters="sRGB">
<feFlood flood-opacity="0" result="BackgroundImageFix"/>
<feBlend mode="normal" in="SourceGraphic" in2="BackgroundImageFix" result="shape"/>
<feTurbulence type="fractalNoise" baseFrequency="2 2" numOctaves="3" seed="1626" />
<feDisplacementMap in="shape" scale="21.940000534057617" xChannelSelector="R" yChannelSelector="G" result="displacedImage" width="100%" height="100%" />
<feMerge result="effect1_texture_516_1810">
<feMergeNode in="displacedImage"/>
</feMerge>
</filter>
<filter id="filter18_g_516_1810" x="67.702" y="48.9266" width="41.6" height="34.6" filterUnits="userSpaceOnUse" color-interpolation-filters="sRGB">
<feFlood flood-opacity="0" result="BackgroundImageFix"/>
<feBlend mode="normal" in="SourceGraphic" in2="BackgroundImageFix" result="shape"/>
<feTurbulence type="fractalNoise" baseFrequency="0.41493773460388184 0.41493773460388184" numOctaves="3" seed="4240" />
<feDisplacementMap in="shape" scale="2.5999999046325684" xChannelSelector="R" yChannelSelector="G" result="displacedImage" width="100%" height="100%" />
<feMerge result="effect1_texture_516_1810">
<feMergeNode in="displacedImage"/>
</feMerge>
</filter>
<filter id="filter19_g_516_1810" x="179.702" y="48.9266" width="41.6" height="34.6" filterUnits="userSpaceOnUse" color-interpolation-filters="sRGB">
<feFlood flood-opacity="0" result="BackgroundImageFix"/>
<feBlend mode="normal" in="SourceGraphic" in2="BackgroundImageFix" result="shape"/>
<feTurbulence type="fractalNoise" baseFrequency="0.41493773460388184 0.41493773460388184" numOctaves="3" seed="4240" />
<feDisplacementMap in="shape" scale="2.5999999046325684" xChannelSelector="R" yChannelSelector="G" result="displacedImage" width="100%" height="100%" />
<feMerge result="effect1_texture_516_1810">
<feMergeNode in="displacedImage"/>
</feMerge>
</filter>
<filter id="filter20_g_516_1810" x="80.1531" y="181.7" width="117.694" height="22.6" filterUnits="userSpaceOnUse" color-interpolation-filters="sRGB">
<feFlood flood-opacity="0" result="BackgroundImageFix"/>
<feBlend mode="normal" in="SourceGraphic" in2="BackgroundImageFix" result="shape"/>
<feTurbulence type="fractalNoise" baseFrequency="0.41493773460388184 0.41493773460388184" numOctaves="3" seed="4240" />
<feDisplacementMap in="shape" scale="2.5999999046325684" xChannelSelector="R" yChannelSelector="G" result="displacedImage" width="100%" height="100%" />
<feMerge result="effect1_texture_516_1810">
<feMergeNode in="displacedImage"/>
</feMerge>
</filter>
<filter id="filter21_g_516_1810" x="61.7" y="179.7" width="51.6" height="52.6" filterUnits="userSpaceOnUse" color-interpolation-filters="sRGB">
<feFlood flood-opacity="0" result="BackgroundImageFix"/>
<feBlend mode="normal" in="SourceGraphic" in2="BackgroundImageFix" result="shape"/>
<feTurbulence type="fractalNoise" baseFrequency="0.41493773460388184 0.41493773460388184" numOctaves="3" seed="4240" />
<feDisplacementMap in="shape" scale="2.5999999046325684" xChannelSelector="R" yChannelSelector="G" result="displacedImage" width="100%" height="100%" />
<feMerge result="effect1_texture_516_1810">
<feMergeNode in="displacedImage"/>
</feMerge>
</filter>
<filter id="filter22_g_516_1810" x="169.7" y="179.7" width="51.6" height="52.6" filterUnits="userSpaceOnUse" color-interpolation-filters="sRGB">
<feFlood flood-opacity="0" result="BackgroundImageFix"/>
<feBlend mode="normal" in="SourceGraphic" in2="BackgroundImageFix" result="shape"/>
<feTurbulence type="fractalNoise" baseFrequency="0.41493773460388184 0.41493773460388184" numOctaves="3" seed="4240" />
<feDisplacementMap in="shape" scale="2.5999999046325684" xChannelSelector="R" yChannelSelector="G" result="displacedImage" width="100%" height="100%" />
<feMerge result="effect1_texture_516_1810">
<feMergeNode in="displacedImage"/>
</feMerge>
</filter>
<filter id="filter23_g_516_1810" x="152.7" y="378.7" width="94.6" height="50.6" filterUnits="userSpaceOnUse" color-interpolation-filters="sRGB">
<feFlood flood-opacity="0" result="BackgroundImageFix"/>
<feBlend mode="normal" in="SourceGraphic" in2="BackgroundImageFix" result="shape"/>
<feTurbulence type="fractalNoise" baseFrequency="0.41493773460388184 0.41493773460388184" numOctaves="3" seed="4240" />
<feDisplacementMap in="shape" scale="2.5999999046325684" xChannelSelector="R" yChannelSelector="G" result="displacedImage" width="100%" height="100%" />
<feMerge result="effect1_texture_516_1810">
<feMergeNode in="displacedImage"/>
</feMerge>
</filter>
<filter id="filter24_g_516_1810" x="35.7" y="378.7" width="94.6" height="50.6" filterUnits="userSpaceOnUse" color-interpolation-filters="sRGB">
<feFlood flood-opacity="0" result="BackgroundImageFix"/>
<feBlend mode="normal" in="SourceGraphic" in2="BackgroundImageFix" result="shape"/>
<feTurbulence type="fractalNoise" baseFrequency="0.41493773460388184 0.41493773460388184" numOctaves="3" seed="4240" />
<feDisplacementMap in="shape" scale="2.5999999046325684" xChannelSelector="R" yChannelSelector="G" result="displacedImage" width="100%" height="100%" />
<feMerge result="effect1_texture_516_1810">
<feMergeNode in="displacedImage"/>
</feMerge>
</filter>
<filter id="filter25_g_516_1810" x="43.323" y="163.386" width="48.8969" height="51.1059" filterUnits="userSpaceOnUse" color-interpolation-filters="sRGB">
<feFlood flood-opacity="0" result="BackgroundImageFix"/>
<feBlend mode="normal" in="SourceGraphic" in2="BackgroundImageFix" result="shape"/>
<feTurbulence type="fractalNoise" baseFrequency="0.41493773460388184 0.41493773460388184" numOctaves="3" seed="4240" />
<feDisplacementMap in="shape" scale="2.5999999046325684" xChannelSelector="R" yChannelSelector="G" result="displacedImage" width="100%" height="100%" />
<feMerge result="effect1_texture_516_1810">
<feMergeNode in="displacedImage"/>
</feMerge>
</filter>
<filter id="filter26_g_516_1810" x="190.78" y="163.386" width="48.8969" height="51.1059" filterUnits="userSpaceOnUse" color-interpolation-filters="sRGB">
<feFlood flood-opacity="0" result="BackgroundImageFix"/>
<feBlend mode="normal" in="SourceGraphic" in2="BackgroundImageFix" result="shape"/>
<feTurbulence type="fractalNoise" baseFrequency="0.41493773460388184 0.41493773460388184" numOctaves="3" seed="4240" />
<feDisplacementMap in="shape" scale="2.5999999046325684" xChannelSelector="R" yChannelSelector="G" result="displacedImage" width="100%" height="100%" />
<feMerge result="effect1_texture_516_1810">
<feMergeNode in="displacedImage"/>
</feMerge>
</filter>
</defs>
</svg>
