<svg width="67" height="87" viewBox="0 0 67 87" fill="none" xmlns="http://www.w3.org/2000/svg">
<path d="M25.4395 58.1582H40.9513V79.667C40.9513 83.533 37.8172 86.667 33.9513 86.667H32.4394C28.5735 86.667 25.4395 83.533 25.4395 79.667V58.1582Z" fill="#E8B2AB"/>
<path d="M14.2406 27.3109C18.1267 21.459 22.5288 14.8994 26.0452 9.67574C29.1846 5.01232 36.0242 4.97499 39.2273 9.59483L51.6403 27.4978C54.2664 31.2854 51.5557 36.4634 46.9468 36.4634C45.8238 36.4634 45.1404 37.6999 45.7378 38.6508L58.5328 59.016C61.8801 64.3436 58.0507 71.2719 51.7588 71.2719H14.4742C8.18221 71.2719 4.35289 64.3437 7.70017 59.016L20.4364 38.7444C21.0594 37.7528 20.3467 36.4634 19.1756 36.4634C14.4538 36.4634 11.6285 31.2444 14.2406 27.3109Z" fill="#B2B33A"/>
</svg>
